SplineFontDB: 3.0
FontName: ProUnifontRegular
FullName: ProUnifont Regular
FamilyName: ProUnifont
Weight: Regular
Copyright: ""
Version: ""
ItalicAngle: 0
UnderlinePosition: -100
UnderlineWidth: 50
Ascent: 900
Descent: 300
InvalidEm: 0
sfntRevision: 0x00010000
LayerCount: 2
Layer: 0 0 "Back" 1
Layer: 1 0 "Fore" 0
XUID: [1021 888 -723544441 7541246]
StyleMap: 0x0040
FSType: 0
OS2Version: 3
OS2_WeightWidthSlopeOnly: 0
OS2_UseTypoMetrics: 0
CreationTime: 1557468358
ModificationTime: 1557780574
PfmFamily: 81
TTFWeight: 500
TTFWidth: 5
LineGap: 0
VLineGap: 0
Panose: 0 0 0 0 0 0 0 0 0 0
OS2TypoAscent: 900
OS2TypoAOffset: 0
OS2TypoDescent: -300
OS2TypoDOffset: 0
OS2TypoLinegap: 0
OS2WinAscent: 962
OS2WinAOffset: 0
OS2WinDescent: 302
OS2WinDOffset: 0
HheadAscent: 900
HheadAOffset: 0
HheadDescent: -300
HheadDOffset: 0
OS2SubXSize: 650
OS2SubYSize: 699
OS2SubXOff: 0
OS2SubYOff: 140
OS2SupXSize: 650
OS2SupYSize: 699
OS2SupXOff: 0
OS2SupYOff: 479
OS2StrikeYSize: 49
OS2StrikeYPos: 258
OS2CapHeight: 700
OS2XHeight: 500
OS2Vendor: 'XXXX'
OS2CodePages: 00000001.00000000
OS2UnicodeRanges: 8000002f.1000388a.00000000.00000000
Lookup: 1 0 0 "Hack-Regular-'aalt' Access All Alternates in Latin lookup 0" { "Hack-Regular-'aalt' Access All Alternates in Latin lookup 0 subtable"  } ['aalt' ('DFLT' <'dflt' > 'latn' <'MOL ' 'ROM ' 'dflt' > ) ]
Lookup: 1 0 0 "Hack-Regular-'locl' Localized Forms in Latin lookup 2" { "Hack-Regular-'locl' Localized Forms in Latin lookup 2 subtable"  } ['locl' ('latn' <'MOL ' > ) ]
Lookup: 1 0 0 "Hack-Regular-'locl' Localized Forms in Latin lookup 3" { "Hack-Regular-'locl' Localized Forms in Latin lookup 3 subtable"  } ['locl' ('latn' <'ROM ' > ) ]
Lookup: 4 0 0 "Hack-Regular-'frac' Diagonal Fractions in Latin lookup 10" { "Hack-Regular-'frac' Diagonal Fractions in Latin lookup 10 subtable"  } ['frac' ('DFLT' <'dflt' > 'latn' <'MOL ' 'ROM ' 'dflt' > ) ]

StartChar: .notdef
Encoding: 0 -1 0
AltUni2: 000000.ffffffff.0
Width: 472
Flags: W
LayerCount: 2
Fore
SplineSet
0 700 m 1
 0 700 0 0 0 0 c 1
 0 0 432 0 432 0 c 1
 432 0 432 700 432 700 c 1
 432 700 0 700 0 700 c 1
50 50 m 1
 50 50 50 650 50 650 c 1
 50 650 382 650 382 650 c 1
 382 650 382 50 382 50 c 1
 382 50 50 50 50 50 c 1
EndSplineSet
Validated: 9
EndChar

StartChar: exclam
Encoding: 33 33 2
Width: 600
Flags: W
LayerCount: 2
Fore
SplineSet
300 700 m 1
 300 700 200 700 200 700 c 1
 200 700 200 200 200 200 c 1
 200 200 300 200 300 200 c 1
 300 200 300 700 300 700 c 1
300 50 m 1
 300 64 295 76 286 86 c 0
 276 95 264 100 250 100 c 1
 250 100 250 100 250 100 c 1
 236 100 224 95 215 86 c 0
 205 76 200 64 200 50 c 1
 200 50 200 50 200 50 c 1
 200 36 205 24 215 15 c 0
 224 5 236 0 250 0 c 1
 250 0 250 0 250 0 c 1
 264 0 276 5 286 15 c 0
 295 24 300 36 300 50 c 1
 300 50 300 50 300 50 c 1
EndSplineSet
Validated: 5
EndChar

StartChar: quotedbl
Encoding: 34 34 3
Width: 600
Flags: W
LayerCount: 2
Fore
SplineSet
400 800 m 1
 400 800 300 800 300 800 c 1
 300 800 300 500 300 500 c 1
 300 500 400 500 400 500 c 1
 400 500 400 800 400 800 c 1
200 800 m 1
 200 800 100 800 100 800 c 1
 100 800 100 500 100 500 c 1
 100 500 200 500 200 500 c 1
 200 500 200 800 200 800 c 1
EndSplineSet
Validated: 9
EndChar

StartChar: numbersign
Encoding: 35 35 4
Width: 600
Flags: W
LayerCount: 2
Fore
SplineSet
500 400 m 1
 500 400 400 400 400 400 c 1
 400 400 400 500 400 500 c 1
 400 500 500 500 500 500 c 1
 500 500 500 600 500 600 c 1
 500 600 400 600 400 600 c 1
 400 600 400 700 400 700 c 1
 400 700 300 700 300 700 c 1
 300 700 300 600 300 600 c 1
 300 600 200 600 200 600 c 1
 200 600 200 700 200 700 c 1
 200 700 100 700 100 700 c 1
 100 700 100 600 100 600 c 1
 100 600 0 600 0 600 c 1
 0 600 0 500 0 500 c 1
 0 500 100 500 100 500 c 1
 100 500 100 400 100 400 c 1
 100 400 0 400 0 400 c 1
 0 400 0 300 0 300 c 1
 0 300 100 300 100 300 c 1
 100 300 100 200 100 200 c 1
 100 200 200 200 200 200 c 1
 200 200 200 300 200 300 c 1
 200 300 300 300 300 300 c 1
 300 300 300 200 300 200 c 1
 300 200 400 200 400 200 c 1
 400 200 400 300 400 300 c 1
 400 300 500 300 500 300 c 1
 500 300 500 400 500 400 c 1
200 400 m 1
 200 400 200 500 200 500 c 1
 200 500 300 500 300 500 c 1
 300 500 300 400 300 400 c 1
 300 400 200 400 200 400 c 1
EndSplineSet
Validated: 9
EndChar

StartChar: dollar
Encoding: 36 36 5
Width: 600
Flags: W
LayerCount: 2
Fore
SplineSet
500 200 m 1
 500 255 480 302 441 341 c 0
 402 380 355 400 300 400 c 1
 300 400 300 600 300 600 c 1
 300 600 300 600 300 600 c 1
 327 600 351 590 371 571 c 0
 390 551 400 527 400 500 c 1
 400 500 500 500 500 500 c 1
 500 500 500 500 500 500 c 1
 500 555 481 602 442 641 c 0
 403 680 355 700 300 700 c 1
 300 700 300 800 300 800 c 1
 300 800 200 800 200 800 c 1
 200 800 200 700 200 700 c 1
 200 700 200 700 200 700 c 1
 145 700 98 681 59 642 c 0
 20 603 0 555 0 500 c 1
 0 500 0 500 0 500 c 1
 0 445 20 398 59 359 c 0
 98 320 145 300 200 300 c 1
 200 300 200 100 200 100 c 1
 200 100 200 100 200 100 c 1
 173 100 149 110 130 130 c 0
 110 149 100 173 100 200 c 1
 100 200 0 200 0 200 c 1
 0 200 0 200 0 200 c 1
 0 145 20 98 59 59 c 0
 98 20 145 0 200 0 c 1
 200 0 200 -99 200 -99 c 1
 200 -99 300 -99 300 -99 c 1
 300 -99 300 0 300 0 c 1
 300 0 300 0 300 0 c 1
 355 0 403 20 442 59 c 0
 481 98 500 145 500 200 c 1
 500 200 500 200 500 200 c 1
200 400 m 1
 173 400 149 410 130 430 c 0
 110 449 100 473 100 500 c 1
 100 500 100 500 100 500 c 1
 100 527 110 551 130 571 c 0
 149 590 173 600 200 600 c 1
 200 600 200 400 200 400 c 1
 200 400 200 400 200 400 c 1
400 200 m 1
 400 173 390 149 371 130 c 0
 351 110 327 100 300 100 c 1
 300 100 300 300 300 300 c 1
 300 300 300 300 300 300 c 1
 327 300 351 290 371 271 c 0
 390 251 400 227 400 200 c 1
 400 200 400 200 400 200 c 1
EndSplineSet
Validated: 5
EndChar

StartChar: percent
Encoding: 37 37 6
Width: 600
Flags: W
LayerCount: 2
Fore
SplineSet
500 200 m 1
 500 249 488 293 464 331 c 0
 439 368 408 391 370 399 c 1
 370 399 500 529 500 529 c 1
 500 529 500 700 500 700 c 1
 500 700 150 700 150 700 c 1
 150 700 150 700 150 700 c 1
 109 700 73 681 44 642 c 0
 15 603 0 555 0 500 c 1
 0 500 0 500 0 500 c 1
 0 449 12 406 35 371 c 1
 35 371 35 371 35 371 c 1
 58 334 90 311 131 302 c 1
 131 302 0 171 0 171 c 1
 0 171 0 0 0 0 c 1
 0 0 100 0 100 0 c 1
 100 0 100 129 100 129 c 1
 100 129 202 231 202 231 c 1
 202 231 202 231 202 231 c 1
 201 218 200 207 200 200 c 1
 200 200 200 200 200 200 c 1
 200 145 215 98 244 59 c 0
 273 20 309 0 350 0 c 1
 350 0 350 0 350 0 c 1
 391 0 427 20 456 59 c 0
 485 98 500 145 500 200 c 1
 500 200 500 200 500 200 c 1
299 470 m 1
 299 470 299 470 299 470 c 1
 300 476 300 486 300 500 c 1
 300 500 300 500 300 500 c 1
 300 535 293 568 279 600 c 1
 279 600 400 600 400 600 c 1
 400 600 400 571 400 571 c 1
 400 571 299 470 299 470 c 1
200 500 m 1
 200 473 195 449 186 430 c 0
 176 410 164 400 150 400 c 1
 150 400 150 400 150 400 c 1
 136 400 124 410 115 430 c 0
 105 449 100 473 100 500 c 1
 100 500 100 500 100 500 c 1
 100 527 105 551 115 571 c 0
 124 590 136 600 150 600 c 1
 150 600 150 600 150 600 c 1
 164 600 176 590 186 571 c 0
 195 551 200 527 200 500 c 1
 200 500 200 500 200 500 c 1
400 200 m 1
 400 173 395 149 386 130 c 0
 376 110 364 100 350 100 c 1
 350 100 350 100 350 100 c 1
 336 100 324 110 315 130 c 0
 305 149 300 173 300 200 c 1
 300 200 300 200 300 200 c 1
 300 227 305 251 315 271 c 0
 324 290 336 300 350 300 c 1
 350 300 350 300 350 300 c 1
 364 300 376 290 386 271 c 0
 395 251 400 227 400 200 c 1
 400 200 400 200 400 200 c 1
EndSplineSet
Validated: 5
EndChar

StartChar: ampersand
Encoding: 38 38 7
Width: 600
Flags: W
LayerCount: 2
Fore
SplineSet
453 322 m 1
 453 322 350 219 350 219 c 1
 350 219 220 350 220 350 c 1
 220 350 392 523 392 523 c 1
 392 523 392 523 392 523 c 1
 397 530 400 544 400 563 c 1
 400 563 400 563 400 563 c 1
 400 600 387 633 360 660 c 0
 333 687 300 700 262 700 c 2
 262 700 200 700 200 700 c 1
 200 700 200 700 200 700 c 1
 145 700 98 681 59 642 c 0
 20 603 0 555 0 500 c 1
 0 500 0 500 0 500 c 1
 0 467 7 436 22 408 c 1
 22 408 80 349 80 349 c 1
 80 349 22 292 22 292 c 1
 22 292 22 292 22 292 c 1
 7 264 0 233 0 200 c 1
 0 200 0 200 0 200 c 1
 0 145 20 98 59 59 c 0
 98 20 145 0 200 0 c 1
 200 0 200 0 200 0 c 1
 233 0 264 7 292 22 c 1
 292 22 350 81 350 81 c 1
 350 81 447 -15 447 -15 c 1
 447 -15 516 53 516 53 c 1
 516 53 420 150 420 150 c 1
 420 150 522 253 522 253 c 1
 522 253 453 322 453 322 c 1
151 419 m 1
 151 419 107 463 107 463 c 1
 107 463 107 463 107 463 c 1
 102 473 100 485 100 500 c 1
 100 500 100 500 100 500 c 1
 100 527 110 551 130 571 c 0
 149 590 173 600 200 600 c 2
 200 600 275 600 275 600 c 1
 275 600 275 600 275 600 c 1
 292 600 300 592 300 575 c 1
 300 575 300 575 300 575 c 1
 300 572 300 570 299 567 c 2
 299 567 151 419 151 419 c 1
237 107 m 1
 237 107 237 107 237 107 c 1
 227 102 215 100 200 100 c 1
 200 100 200 100 200 100 c 1
 173 100 149 110 130 130 c 0
 110 149 100 173 100 200 c 1
 100 200 100 200 100 200 c 1
 100 215 102 227 107 237 c 2
 107 237 150 280 150 280 c 1
 150 280 281 150 281 150 c 1
 281 150 237 107 237 107 c 1
EndSplineSet
Validated: 5
EndChar

StartChar: quotesingle
Encoding: 39 39 8
Width: 600
Flags: W
LayerCount: 2
Fore
SplineSet
300 800 m 1
 300 800 200 800 200 800 c 1
 200 800 200 500 200 500 c 1
 200 500 300 500 300 500 c 1
 300 500 300 800 300 800 c 1
EndSplineSet
Validated: 9
EndChar

StartChar: parenleft
Encoding: 40 40 9
Width: 600
Flags: W
LayerCount: 2
Fore
SplineSet
200 169 m 1
 200 169 200 531 200 531 c 1
 200 531 419 750 419 750 c 1
 419 750 350 819 350 819 c 1
 350 819 100 569 100 569 c 1
 100 569 100 131 100 131 c 1
 100 131 350 -118 350 -118 c 1
 350 -118 419 -49 419 -49 c 1
 419 -49 200 169 200 169 c 1
EndSplineSet
Validated: 9
EndChar

StartChar: parenright
Encoding: 41 41 10
Width: 600
Flags: W
LayerCount: 2
Fore
SplineSet
400 569 m 1
 400 569 150 819 150 819 c 1
 150 819 81 750 81 750 c 1
 81 750 300 531 300 531 c 1
 300 531 300 169 300 169 c 1
 300 169 81 -49 81 -49 c 1
 81 -49 150 -118 150 -118 c 1
 150 -118 400 131 400 131 c 1
 400 131 400 569 400 569 c 1
EndSplineSet
Validated: 9
EndChar

StartChar: asterisk
Encoding: 42 42 11
Width: 600
Flags: W
LayerCount: 2
Fore
SplineSet
350 450 m 1
 350 450 491 532 491 532 c 1
 491 532 441 618 441 618 c 1
 441 618 300 537 300 537 c 1
 300 537 300 700 300 700 c 1
 300 700 200 700 200 700 c 1
 200 700 200 535 200 535 c 1
 200 535 56 615 56 615 c 1
 56 615 7 527 7 527 c 1
 7 527 150 450 150 450 c 1
 150 450 8 368 8 368 c 1
 8 368 58 282 58 282 c 1
 58 282 200 364 200 364 c 1
 200 364 200 200 200 200 c 1
 200 200 300 200 300 200 c 1
 300 200 300 364 300 364 c 1
 300 364 444 285 444 285 c 1
 444 285 493 373 493 373 c 1
 493 373 350 450 350 450 c 1
EndSplineSet
Validated: 9
EndChar

StartChar: plus
Encoding: 43 43 12
Width: 600
Flags: W
LayerCount: 2
Fore
SplineSet
500 400 m 1
 500 400 300 400 300 400 c 1
 300 400 300 600 300 600 c 1
 300 600 200 600 200 600 c 1
 200 600 200 400 200 400 c 1
 200 400 0 400 0 400 c 1
 0 400 0 300 0 300 c 1
 0 300 200 300 200 300 c 1
 200 300 200 100 200 100 c 1
 200 100 300 100 300 100 c 1
 300 100 300 300 300 300 c 1
 300 300 500 300 500 300 c 1
 500 300 500 400 500 400 c 1
EndSplineSet
Validated: 9
EndChar

StartChar: comma
Encoding: 44 44 13
Width: 600
Flags: W
LayerCount: 2
Fore
SplineSet
350 125 m 1
 350 125 350 125 350 125 c 1
 350 152 340 176 321 196 c 0
 301 215 277 225 250 225 c 1
 250 225 250 225 250 225 c 1
 223 225 199 215 180 196 c 0
 160 176 150 152 150 125 c 1
 150 125 150 125 150 125 c 1
 150 98 160 74 180 55 c 0
 199 35 223 25 250 25 c 1
 250 25 250 -5 250 -5 c 1
 250 -5 125 -130 125 -130 c 1
 125 -130 194 -199 194 -199 c 1
 194 -199 350 -43 350 -43 c 1
 350 -43 350 125 350 125 c 1
EndSplineSet
Validated: 5
EndChar

StartChar: hyphen
Encoding: 45 45 14
Width: 600
Flags: W
LayerCount: 2
Fore
SplineSet
400 400 m 1
 400 400 100 400 100 400 c 1
 100 400 100 300 100 300 c 1
 100 300 400 300 400 300 c 1
 400 300 400 400 400 400 c 1
EndSplineSet
Validated: 9
EndChar

StartChar: period
Encoding: 46 46 15
Width: 600
Flags: W
LayerCount: 2
Fore
SplineSet
346 125 m 1
 346 153 337 177 319 196 c 0
 300 215 277 225 250 225 c 1
 250 225 250 225 250 225 c 1
 223 225 199 215 180 196 c 0
 160 176 150 152 150 125 c 1
 150 125 150 125 150 125 c 1
 150 98 160 74 180 55 c 0
 199 35 223 25 250 25 c 1
 250 25 250 25 250 25 c 1
 277 25 300 35 319 54 c 0
 337 73 346 97 346 125 c 1
 346 125 346 125 346 125 c 1
EndSplineSet
Validated: 5
EndChar

StartChar: slash
Encoding: 47 47 16
Width: 600
Flags: W
LayerCount: 2
Fore
SplineSet
482 800 m 1
 482 800 0 -145 0 -145 c 1
 0 -145 89 -190 89 -190 c 1
 89 -190 571 754 571 754 c 1
 571 754 482 800 482 800 c 1
EndSplineSet
Validated: 9
EndChar

StartChar: zero
Encoding: 48 48 17
Width: 600
Flags: W
LayerCount: 2
Fore
SplineSet
500 500 m 1
 500 500 500 500 500 500 c 1
 500 555 480 602 441 641 c 0
 402 680 355 700 300 700 c 2
 300 700 200 700 200 700 c 1
 200 700 200 700 200 700 c 1
 145 700 98 680 59 641 c 0
 20 602 0 555 0 500 c 2
 0 500 0 200 0 200 c 1
 0 200 0 200 0 200 c 1
 0 145 20 98 59 59 c 0
 98 20 145 0 200 0 c 2
 200 0 300 0 300 0 c 1
 300 0 300 0 300 0 c 1
 355 0 402 20 441 59 c 0
 480 98 500 145 500 200 c 2
 500 200 500 500 500 500 c 1
100 269 m 1
 100 269 100 500 100 500 c 1
 100 500 100 500 100 500 c 1
 100 527 110 551 130 571 c 0
 149 590 173 600 200 600 c 2
 200 600 300 600 300 600 c 1
 300 600 300 600 300 600 c 1
 337 600 365 585 385 554 c 1
 385 554 100 269 100 269 c 1
400 200 m 1
 400 173 390 149 371 130 c 0
 351 110 327 100 300 100 c 2
 300 100 200 100 200 100 c 1
 200 100 200 100 200 100 c 1
 165 100 137 115 117 146 c 1
 117 146 400 429 400 429 c 1
 400 429 400 200 400 200 c 1
 400 200 400 200 400 200 c 1
EndSplineSet
Validated: 5
EndChar

StartChar: one
Encoding: 49 49 18
Width: 600
Flags: W
LayerCount: 2
Fore
SplineSet
500 100 m 1
 500 100 300 100 300 100 c 1
 300 100 300 700 300 700 c 1
 300 700 200 700 200 700 c 1
 200 700 200 700 200 700 c 1
 200 673 190 649 171 630 c 0
 151 610 127 600 100 600 c 2
 100 600 50 600 50 600 c 1
 50 600 50 500 50 500 c 1
 50 500 200 500 200 500 c 1
 200 500 200 100 200 100 c 1
 200 100 0 100 0 100 c 1
 0 100 0 0 0 0 c 1
 0 0 500 0 500 0 c 1
 500 0 500 100 500 100 c 1
EndSplineSet
Validated: 5
EndChar

StartChar: two
Encoding: 50 50 19
Width: 600
Flags: W
LayerCount: 2
Fore
SplineSet
500 100 m 1
 500 100 169 100 169 100 c 1
 169 100 478 408 478 408 c 1
 478 408 478 408 478 408 c 1
 493 436 500 467 500 500 c 1
 500 500 500 500 500 500 c 1
 500 555 480 603 441 642 c 0
 402 681 355 700 300 700 c 2
 300 700 200 700 200 700 c 1
 200 700 200 700 200 700 c 1
 145 700 98 680 59 641 c 0
 20 602 0 555 0 500 c 1
 0 500 100 500 100 500 c 1
 100 500 100 500 100 500 c 1
 100 527 110 551 130 571 c 0
 149 590 173 600 200 600 c 2
 200 600 300 600 300 600 c 1
 300 600 300 600 300 600 c 1
 327 600 351 590 371 571 c 0
 390 551 400 527 400 500 c 1
 400 500 400 500 400 500 c 1
 400 485 398 473 393 463 c 2
 393 463 0 69 0 69 c 1
 0 69 0 0 0 0 c 1
 0 0 500 0 500 0 c 1
 500 0 500 100 500 100 c 1
EndSplineSet
Validated: 5
EndChar

StartChar: three
Encoding: 51 51 20
Width: 600
Flags: W
LayerCount: 2
Fore
SplineSet
0 200 m 1
 0 200 0 200 0 200 c 1
 0 145 20 98 59 59 c 0
 98 20 145 0 200 0 c 2
 200 0 300 0 300 0 c 1
 300 0 300 0 300 0 c 1
 355 0 403 20 442 59 c 0
 481 98 500 145 500 200 c 1
 500 200 500 200 500 200 c 1
 500 260 472 310 415 350 c 1
 415 350 415 350 415 350 c 1
 472 390 500 440 500 500 c 1
 500 500 500 500 500 500 c 1
 500 555 481 603 442 642 c 0
 403 681 355 700 300 700 c 2
 300 700 200 700 200 700 c 1
 200 700 200 700 200 700 c 1
 145 700 98 681 59 642 c 0
 20 603 0 555 0 500 c 1
 0 500 100 500 100 500 c 1
 100 500 100 500 100 500 c 1
 100 527 110 551 130 571 c 0
 149 590 173 600 200 600 c 2
 200 600 300 600 300 600 c 1
 300 600 300 600 300 600 c 1
 327 600 351 590 371 571 c 0
 390 551 400 527 400 500 c 1
 400 500 400 500 400 500 c 1
 400 473 390 449 371 430 c 0
 351 410 327 400 300 400 c 2
 300 400 200 400 200 400 c 1
 200 400 200 300 200 300 c 1
 200 300 300 300 300 300 c 1
 300 300 300 300 300 300 c 1
 327 300 351 290 371 271 c 0
 390 251 400 227 400 200 c 1
 400 200 400 200 400 200 c 1
 400 173 390 149 371 130 c 0
 351 110 327 100 300 100 c 2
 300 100 200 100 200 100 c 1
 200 100 200 100 200 100 c 1
 173 100 149 110 130 130 c 0
 110 149 100 173 100 200 c 1
 100 200 0 200 0 200 c 1
EndSplineSet
Validated: 5
EndChar

StartChar: four
Encoding: 52 52 21
Width: 600
Flags: W
LayerCount: 2
Fore
SplineSet
500 100 m 1
 500 100 400 100 400 100 c 1
 400 100 400 200 400 200 c 1
 400 200 500 200 500 200 c 1
 500 200 500 300 500 300 c 1
 500 300 400 300 400 300 c 1
 400 300 400 700 400 700 c 1
 400 700 331 700 331 700 c 1
 331 700 0 369 0 369 c 1
 0 369 0 200 0 200 c 1
 0 200 300 200 300 200 c 1
 300 200 300 100 300 100 c 1
 300 100 200 100 200 100 c 1
 200 100 200 0 200 0 c 1
 200 0 500 0 500 0 c 1
 500 0 500 100 500 100 c 1
100 300 m 1
 100 300 100 331 100 331 c 1
 100 331 300 531 300 531 c 1
 300 531 300 300 300 300 c 1
 300 300 100 300 100 300 c 1
EndSplineSet
Validated: 9
EndChar

StartChar: five
Encoding: 53 53 22
Width: 600
Flags: W
LayerCount: 2
Fore
SplineSet
500 300 m 1
 500 300 500 300 500 300 c 1
 500 355 480 402 441 441 c 0
 402 480 355 500 300 500 c 2
 300 500 100 500 100 500 c 1
 100 500 100 600 100 600 c 1
 100 600 500 600 500 600 c 1
 500 600 500 700 500 700 c 1
 500 700 0 700 0 700 c 1
 0 700 0 400 0 400 c 1
 0 400 300 400 300 400 c 1
 300 400 300 400 300 400 c 1
 327 400 351 390 371 371 c 0
 390 351 400 327 400 300 c 2
 400 300 400 200 400 200 c 1
 400 200 400 200 400 200 c 1
 400 173 390 149 371 130 c 0
 351 110 327 100 300 100 c 2
 300 100 200 100 200 100 c 1
 200 100 200 100 200 100 c 1
 173 100 149 110 130 130 c 0
 110 149 100 173 100 200 c 1
 100 200 0 200 0 200 c 1
 0 200 0 200 0 200 c 1
 0 145 20 98 59 59 c 0
 98 20 145 0 200 0 c 2
 200 0 300 0 300 0 c 1
 300 0 300 0 300 0 c 1
 355 0 402 20 441 59 c 0
 480 98 500 145 500 200 c 2
 500 200 500 300 500 300 c 1
EndSplineSet
Validated: 5
EndChar

StartChar: six
Encoding: 54 54 23
Width: 600
Flags: W
LayerCount: 2
Fore
SplineSet
500 300 m 1
 500 300 500 300 500 300 c 1
 500 355 480 402 441 441 c 0
 402 480 355 500 300 500 c 2
 300 500 100 500 100 500 c 1
 100 500 100 500 100 500 c 1
 100 527 110 551 130 571 c 0
 149 590 173 600 200 600 c 2
 200 600 400 600 400 600 c 1
 400 600 400 700 400 700 c 1
 400 700 200 700 200 700 c 1
 200 700 200 700 200 700 c 1
 145 700 98 680 59 641 c 0
 20 602 0 555 0 500 c 2
 0 500 0 200 0 200 c 1
 0 200 0 200 0 200 c 1
 0 145 20 98 59 59 c 0
 98 20 145 0 200 0 c 2
 200 0 300 0 300 0 c 1
 300 0 300 0 300 0 c 1
 355 0 402 20 441 59 c 0
 480 98 500 145 500 200 c 2
 500 200 500 300 500 300 c 1
400 200 m 1
 400 173 390 149 371 130 c 0
 351 110 327 100 300 100 c 2
 300 100 200 100 200 100 c 1
 200 100 200 100 200 100 c 1
 173 100 149 110 130 130 c 0
 110 149 100 173 100 200 c 2
 100 200 100 400 100 400 c 1
 100 400 300 400 300 400 c 1
 300 400 300 400 300 400 c 1
 327 400 351 390 371 371 c 0
 390 351 400 327 400 300 c 2
 400 300 400 200 400 200 c 1
 400 200 400 200 400 200 c 1
EndSplineSet
Validated: 5
EndChar

StartChar: seven
Encoding: 55 55 24
Width: 600
Flags: W
LayerCount: 2
Fore
SplineSet
500 700 m 1
 500 700 0 700 0 700 c 1
 0 700 0 600 0 600 c 1
 0 600 400 600 400 600 c 1
 400 600 400 469 400 469 c 1
 400 469 200 269 200 269 c 1
 200 269 200 0 200 0 c 1
 200 0 300 0 300 0 c 1
 300 0 300 231 300 231 c 1
 300 231 500 431 500 431 c 1
 500 431 500 700 500 700 c 1
EndSplineSet
Validated: 9
EndChar

StartChar: eight
Encoding: 56 56 25
Width: 600
Flags: W
LayerCount: 2
Fore
SplineSet
200 700 m 1
 200 700 200 700 200 700 c 1
 145 700 98 681 59 642 c 0
 20 603 0 555 0 500 c 1
 0 500 0 500 0 500 c 1
 0 440 28 390 85 350 c 1
 85 350 85 350 85 350 c 1
 28 310 0 260 0 200 c 1
 0 200 0 200 0 200 c 1
 0 145 20 98 59 59 c 0
 98 20 145 0 200 0 c 2
 200 0 300 0 300 0 c 1
 300 0 300 0 300 0 c 1
 355 0 403 20 442 59 c 0
 481 98 500 145 500 200 c 1
 500 200 500 200 500 200 c 1
 500 260 472 310 415 350 c 1
 415 350 415 350 415 350 c 1
 472 390 500 440 500 500 c 1
 500 500 500 500 500 500 c 1
 500 555 481 603 442 642 c 0
 403 681 355 700 300 700 c 2
 300 700 200 700 200 700 c 1
300 600 m 1
 300 600 300 600 300 600 c 1
 327 600 351 590 371 571 c 0
 390 551 400 527 400 500 c 1
 400 500 400 500 400 500 c 1
 400 473 390 449 371 430 c 0
 351 410 327 400 300 400 c 2
 300 400 200 400 200 400 c 1
 200 400 200 400 200 400 c 1
 173 400 149 410 130 430 c 0
 110 449 100 473 100 500 c 1
 100 500 100 500 100 500 c 1
 100 527 110 551 129 571 c 0
 148 590 172 600 200 600 c 2
 200 600 300 600 300 600 c 1
200 100 m 1
 200 100 200 100 200 100 c 1
 173 100 149 110 130 130 c 0
 110 149 100 173 100 200 c 1
 100 200 100 200 100 200 c 1
 100 227 110 251 130 271 c 0
 149 290 173 300 200 300 c 2
 200 300 300 300 300 300 c 1
 300 300 300 300 300 300 c 1
 327 300 351 290 371 271 c 0
 390 251 400 227 400 200 c 1
 400 200 400 200 400 200 c 1
 400 173 390 149 371 130 c 0
 352 110 328 100 300 100 c 2
 300 100 200 100 200 100 c 1
EndSplineSet
Validated: 5
EndChar

StartChar: nine
Encoding: 57 57 26
Width: 600
Flags: W
LayerCount: 2
Fore
SplineSet
500 500 m 1
 500 500 500 500 500 500 c 1
 500 555 480 602 441 641 c 0
 402 680 355 700 300 700 c 2
 300 700 200 700 200 700 c 1
 200 700 200 700 200 700 c 1
 145 700 98 680 59 641 c 0
 20 602 0 555 0 500 c 2
 0 500 0 400 0 400 c 1
 0 400 0 400 0 400 c 1
 0 345 20 298 59 259 c 0
 98 220 145 200 200 200 c 2
 200 200 400 200 400 200 c 1
 400 200 400 200 400 200 c 1
 400 173 390 149 371 130 c 0
 351 110 327 100 300 100 c 2
 300 100 100 100 100 100 c 1
 100 100 100 0 100 0 c 1
 100 0 300 0 300 0 c 1
 300 0 300 0 300 0 c 1
 355 0 402 20 441 59 c 0
 480 98 500 145 500 200 c 2
 500 200 500 500 500 500 c 1
200 300 m 1
 200 300 200 300 200 300 c 1
 173 300 149 310 130 330 c 0
 110 349 100 373 100 400 c 2
 100 400 100 500 100 500 c 1
 100 500 100 500 100 500 c 1
 100 527 110 551 130 571 c 0
 149 590 173 600 200 600 c 2
 200 600 300 600 300 600 c 1
 300 600 300 600 300 600 c 1
 327 600 351 590 371 571 c 0
 390 551 400 527 400 500 c 2
 400 500 400 300 400 300 c 1
 400 300 200 300 200 300 c 1
EndSplineSet
Validated: 5
EndChar

StartChar: colon
Encoding: 58 58 27
Width: 600
Flags: W
LayerCount: 2
Fore
SplineSet
350 425 m 1
 350 452 340 476 321 496 c 0
 301 515 277 525 250 525 c 1
 250 525 250 525 250 525 c 1
 223 525 199 515 180 496 c 0
 160 476 150 452 150 425 c 1
 150 425 150 425 150 425 c 1
 150 398 160 374 180 355 c 0
 199 335 223 325 250 325 c 1
 250 325 250 325 250 325 c 1
 277 325 301 335 321 355 c 0
 340 374 350 398 350 425 c 1
 350 425 350 425 350 425 c 1
350 125 m 1
 350 152 340 176 321 196 c 0
 301 215 277 225 250 225 c 1
 250 225 250 225 250 225 c 1
 223 225 199 215 180 196 c 0
 160 176 150 152 150 125 c 1
 150 125 150 125 150 125 c 1
 150 98 160 74 180 55 c 0
 199 35 223 25 250 25 c 1
 250 25 250 25 250 25 c 1
 277 25 301 35 321 55 c 0
 340 74 350 98 350 125 c 1
 350 125 350 125 350 125 c 1
EndSplineSet
Validated: 5
EndChar

StartChar: semicolon
Encoding: 59 59 28
Width: 600
Flags: W
LayerCount: 2
Fore
SplineSet
350 425 m 1
 350 452 340 476 321 496 c 0
 301 515 277 525 250 525 c 1
 250 525 250 525 250 525 c 1
 223 525 199 515 180 496 c 0
 160 476 150 452 150 425 c 1
 150 425 150 425 150 425 c 1
 150 398 160 374 180 355 c 0
 199 335 223 325 250 325 c 1
 250 325 250 325 250 325 c 1
 277 325 301 335 321 355 c 0
 340 374 350 398 350 425 c 1
 350 425 350 425 350 425 c 1
350 125 m 1
 350 125 350 125 350 125 c 1
 350 152 340 176 321 196 c 0
 301 215 277 225 250 225 c 1
 250 225 250 225 250 225 c 1
 223 225 199 215 180 196 c 0
 160 176 150 152 150 125 c 1
 150 125 150 125 150 125 c 1
 150 98 160 74 180 55 c 0
 199 35 223 25 250 25 c 1
 250 25 250 -5 250 -5 c 1
 250 -5 125 -130 125 -130 c 1
 125 -130 194 -199 194 -199 c 1
 194 -199 350 -43 350 -43 c 1
 350 -43 350 125 350 125 c 1
EndSplineSet
Validated: 5
EndChar

StartChar: less
Encoding: 60 60 29
Width: 600
Flags: W
LayerCount: 2
Fore
SplineSet
221 350 m 1
 221 350 519 650 519 650 c 1
 519 650 450 719 450 719 c 1
 450 719 79 350 79 350 c 1
 79 350 456 -24 456 -24 c 1
 456 -24 525 44 525 44 c 1
 525 44 221 350 221 350 c 1
EndSplineSet
Validated: 9
EndChar

StartChar: equal
Encoding: 61 61 30
Width: 600
Flags: W
LayerCount: 2
Fore
SplineSet
500 500 m 1
 500 500 0 500 0 500 c 1
 0 500 0 400 0 400 c 1
 0 400 500 400 500 400 c 1
 500 400 500 500 500 500 c 1
500 300 m 1
 500 300 0 300 0 300 c 1
 0 300 0 200 0 200 c 1
 0 200 500 200 500 200 c 1
 500 200 500 300 500 300 c 1
EndSplineSet
Validated: 9
EndChar

StartChar: greater
Encoding: 62 62 31
Width: 600
Flags: W
LayerCount: 2
Fore
SplineSet
144 725 m 1
 144 725 75 656 75 656 c 1
 75 656 379 350 379 350 c 1
 379 350 81 50 81 50 c 1
 81 50 150 -18 150 -18 c 1
 150 -18 521 350 521 350 c 1
 521 350 144 725 144 725 c 1
EndSplineSet
Validated: 9
EndChar

StartChar: question
Encoding: 63 63 32
Width: 600
Flags: W
LayerCount: 2
Fore
SplineSet
500 500 m 1
 500 555 480 603 441 642 c 0
 402 681 355 700 300 700 c 2
 300 700 200 700 200 700 c 1
 200 700 200 700 200 700 c 1
 145 700 98 680 59 641 c 0
 20 602 0 555 0 500 c 1
 0 500 100 500 100 500 c 1
 100 500 100 500 100 500 c 1
 100 527 110 551 130 571 c 0
 149 590 173 600 200 600 c 2
 200 600 300 600 300 600 c 1
 300 600 300 600 300 600 c 1
 327 600 351 590 371 571 c 0
 390 551 400 527 400 500 c 1
 400 500 400 500 400 500 c 1
 400 485 398 473 393 463 c 2
 393 463 200 269 200 269 c 1
 200 269 200 200 200 200 c 1
 200 200 269 200 269 200 c 1
 269 200 478 408 478 408 c 1
 478 408 478 408 478 408 c 1
 493 436 500 467 500 500 c 1
 500 500 500 500 500 500 c 1
300 50 m 1
 300 64 295 76 286 86 c 0
 276 95 264 100 250 100 c 1
 250 100 250 100 250 100 c 1
 236 100 224 95 215 86 c 0
 205 76 200 64 200 50 c 1
 200 50 200 50 200 50 c 1
 200 36 205 24 215 15 c 0
 224 5 236 0 250 0 c 1
 250 0 250 0 250 0 c 1
 264 0 276 5 286 15 c 0
 295 24 300 36 300 50 c 1
 300 50 300 50 300 50 c 1
EndSplineSet
Validated: 5
EndChar

StartChar: at
Encoding: 64 64 33
Width: 600
Flags: W
LayerCount: 2
Fore
SplineSet
500 100 m 1
 500 100 200 100 200 100 c 1
 200 100 200 100 200 100 c 1
 173 100 149 110 130 130 c 0
 110 149 100 173 100 200 c 2
 100 200 100 500 100 500 c 1
 100 500 100 500 100 500 c 1
 100 527 110 551 130 571 c 0
 149 590 173 600 200 600 c 2
 200 600 300 600 300 600 c 1
 300 600 300 600 300 600 c 1
 327 600 351 590 371 571 c 0
 390 551 400 527 400 500 c 1
 400 500 300 500 300 500 c 1
 300 500 300 500 300 500 c 1
 273 500 249 490 230 471 c 0
 210 451 200 427 200 400 c 2
 200 400 200 300 200 300 c 1
 200 300 200 300 200 300 c 1
 200 274 210 251 230 231 c 0
 249 210 273 200 300 200 c 2
 300 200 400 200 400 200 c 1
 400 200 400 200 400 200 c 1
 427 200 451 210 471 229 c 0
 490 248 500 272 500 300 c 2
 500 300 500 500 500 500 c 1
 500 500 500 500 500 500 c 1
 500 555 480 602 441 641 c 0
 402 680 355 700 300 700 c 2
 300 700 200 700 200 700 c 1
 200 700 200 700 200 700 c 1
 145 700 98 680 59 641 c 0
 20 602 0 555 0 500 c 2
 0 500 0 200 0 200 c 1
 0 200 0 200 0 200 c 1
 0 145 20 98 59 59 c 0
 98 20 145 0 200 0 c 2
 200 0 500 0 500 0 c 1
 500 0 500 100 500 100 c 1
400 325 m 1
 400 308 392 300 375 300 c 2
 375 300 325 300 325 300 c 1
 325 300 325 300 325 300 c 1
 308 300 300 308 300 325 c 2
 300 325 300 375 300 375 c 1
 300 375 300 375 300 375 c 1
 300 392 308 400 325 400 c 2
 325 400 375 400 375 400 c 1
 375 400 375 400 375 400 c 1
 392 400 400 392 400 375 c 2
 400 375 400 325 400 325 c 1
 400 325 400 325 400 325 c 1
EndSplineSet
Validated: 5
EndChar

StartChar: A
Encoding: 65 65 34
Width: 600
Flags: W
LayerCount: 2
Fore
SplineSet
400 200 m 1
 400 200 400 0 400 0 c 1
 400 0 500 0 500 0 c 1
 500 0 500 325 500 325 c 1
 500 325 313 700 313 700 c 1
 313 700 188 700 188 700 c 1
 188 700 0 325 0 325 c 1
 0 325 0 0 0 0 c 1
 0 0 100 0 100 0 c 1
 100 0 100 200 100 200 c 1
 100 200 400 200 400 200 c 1
400 300 m 1
 400 300 100 300 100 300 c 1
 100 300 250 600 250 600 c 1
 250 600 400 300 400 300 c 1
EndSplineSet
Validated: 9
EndChar

StartChar: B
Encoding: 66 66 35
Width: 600
Flags: W
LayerCount: 2
Fore
SplineSet
500 500 m 1
 500 555 481 603 442 642 c 0
 403 681 355 700 300 700 c 2
 300 700 0 700 0 700 c 1
 0 700 0 0 0 0 c 1
 0 0 300 0 300 0 c 1
 300 0 300 0 300 0 c 1
 355 0 403 20 442 59 c 0
 481 98 500 145 500 200 c 1
 500 200 500 200 500 200 c 1
 500 260 472 310 415 350 c 1
 415 350 415 350 415 350 c 1
 472 390 500 440 500 500 c 1
 500 500 500 500 500 500 c 1
300 600 m 1
 300 600 300 600 300 600 c 1
 327 600 351 590 371 571 c 0
 390 551 400 527 400 500 c 1
 400 500 400 500 400 500 c 1
 400 473 390 449 371 430 c 0
 351 410 327 400 300 400 c 2
 300 400 100 400 100 400 c 1
 100 400 100 600 100 600 c 1
 100 600 300 600 300 600 c 1
300 300 m 1
 300 300 300 300 300 300 c 1
 327 300 351 290 371 271 c 0
 390 251 400 227 400 200 c 1
 400 200 400 200 400 200 c 1
 400 173 390 149 371 130 c 0
 351 110 327 100 300 100 c 2
 300 100 100 100 100 100 c 1
 100 100 100 300 100 300 c 1
 100 300 300 300 300 300 c 1
EndSplineSet
Validated: 5
EndChar

StartChar: C
Encoding: 67 67 36
Width: 600
Flags: W
LayerCount: 2
Fore
SplineSet
400 200 m 1
 400 200 400 200 400 200 c 1
 400 173 390 149 371 130 c 0
 351 110 327 100 300 100 c 2
 300 100 200 100 200 100 c 1
 200 100 200 100 200 100 c 1
 173 100 149 110 130 130 c 0
 110 149 100 173 100 200 c 2
 100 200 100 500 100 500 c 1
 100 500 100 500 100 500 c 1
 100 527 110 551 130 571 c 0
 149 590 173 600 200 600 c 2
 200 600 300 600 300 600 c 1
 300 600 300 600 300 600 c 1
 327 600 351 590 371 571 c 0
 390 551 400 527 400 500 c 1
 400 500 500 500 500 500 c 1
 500 500 500 500 500 500 c 1
 500 555 480 602 441 641 c 0
 402 680 355 700 300 700 c 2
 300 700 200 700 200 700 c 1
 200 700 200 700 200 700 c 1
 145 700 98 680 59 641 c 0
 20 602 0 555 0 500 c 2
 0 500 0 200 0 200 c 1
 0 200 0 200 0 200 c 1
 0 145 20 98 59 59 c 0
 98 20 145 0 200 0 c 2
 200 0 300 0 300 0 c 1
 300 0 300 0 300 0 c 1
 355 0 402 20 441 59 c 0
 480 98 500 145 500 200 c 1
 500 200 400 200 400 200 c 1
EndSplineSet
Validated: 5
EndChar

StartChar: D
Encoding: 68 68 37
Width: 600
Flags: W
LayerCount: 2
Fore
SplineSet
500 500 m 1
 500 500 500 500 500 500 c 1
 500 555 480 602 441 641 c 0
 402 680 355 700 300 700 c 2
 300 700 0 700 0 700 c 1
 0 700 0 0 0 0 c 1
 0 0 300 0 300 0 c 1
 300 0 300 0 300 0 c 1
 355 0 402 20 441 59 c 0
 480 98 500 145 500 200 c 2
 500 200 500 500 500 500 c 1
400 200 m 1
 400 173 390 149 371 130 c 0
 351 110 327 100 300 100 c 2
 300 100 100 100 100 100 c 1
 100 100 100 600 100 600 c 1
 100 600 300 600 300 600 c 1
 300 600 300 600 300 600 c 1
 327 600 351 590 371 571 c 0
 390 551 400 527 400 500 c 2
 400 500 400 200 400 200 c 1
 400 200 400 200 400 200 c 1
EndSplineSet
Validated: 5
EndChar

StartChar: E
Encoding: 69 69 38
Width: 600
Flags: W
LayerCount: 2
Fore
SplineSet
500 100 m 1
 500 100 100 100 100 100 c 1
 100 100 100 300 100 300 c 1
 100 300 400 300 400 300 c 1
 400 300 400 400 400 400 c 1
 400 400 100 400 100 400 c 1
 100 400 100 600 100 600 c 1
 100 600 500 600 500 600 c 1
 500 600 500 700 500 700 c 1
 500 700 0 700 0 700 c 1
 0 700 0 0 0 0 c 1
 0 0 500 0 500 0 c 1
 500 0 500 100 500 100 c 1
EndSplineSet
Validated: 9
EndChar

StartChar: F
Encoding: 70 70 39
Width: 600
Flags: W
LayerCount: 2
Fore
SplineSet
500 700 m 1
 500 700 0 700 0 700 c 1
 0 700 0 0 0 0 c 1
 0 0 100 0 100 0 c 1
 100 0 100 300 100 300 c 1
 100 300 400 300 400 300 c 1
 400 300 400 400 400 400 c 1
 400 400 100 400 100 400 c 1
 100 400 100 600 100 600 c 1
 100 600 500 600 500 600 c 1
 500 600 500 700 500 700 c 1
EndSplineSet
Validated: 9
EndChar

StartChar: G
Encoding: 71 71 40
Width: 600
Flags: W
LayerCount: 2
Fore
SplineSet
500 400 m 1
 500 400 300 400 300 400 c 1
 300 400 300 300 300 300 c 1
 300 300 400 300 400 300 c 1
 400 300 400 200 400 200 c 1
 400 200 400 200 400 200 c 1
 400 173 390 149 371 130 c 0
 351 110 327 100 300 100 c 2
 300 100 200 100 200 100 c 1
 200 100 200 100 200 100 c 1
 173 100 149 110 130 130 c 0
 110 149 100 173 100 200 c 2
 100 200 100 500 100 500 c 1
 100 500 100 500 100 500 c 1
 100 527 110 551 130 571 c 0
 149 590 173 600 200 600 c 2
 200 600 300 600 300 600 c 1
 300 600 300 600 300 600 c 1
 327 600 351 590 371 571 c 0
 390 551 400 527 400 500 c 1
 400 500 500 500 500 500 c 1
 500 500 500 500 500 500 c 1
 500 555 480 602 441 641 c 0
 402 680 355 700 300 700 c 2
 300 700 200 700 200 700 c 1
 200 700 200 700 200 700 c 1
 145 700 98 680 59 641 c 0
 20 602 0 555 0 500 c 2
 0 500 0 200 0 200 c 1
 0 200 0 200 0 200 c 1
 0 145 20 98 59 59 c 0
 98 20 145 0 200 0 c 2
 200 0 300 0 300 0 c 1
 300 0 300 0 300 0 c 1
 355 0 402 20 441 59 c 0
 480 98 500 145 500 200 c 2
 500 200 500 400 500 400 c 1
EndSplineSet
Validated: 5
EndChar

StartChar: H
Encoding: 72 72 41
Width: 600
Flags: W
LayerCount: 2
Fore
SplineSet
500 700 m 1
 500 700 400 700 400 700 c 1
 400 700 400 400 400 400 c 1
 400 400 100 400 100 400 c 1
 100 400 100 700 100 700 c 1
 100 700 0 700 0 700 c 1
 0 700 0 0 0 0 c 1
 0 0 100 0 100 0 c 1
 100 0 100 300 100 300 c 1
 100 300 400 300 400 300 c 1
 400 300 400 0 400 0 c 1
 400 0 500 0 500 0 c 1
 500 0 500 700 500 700 c 1
EndSplineSet
Validated: 9
EndChar

StartChar: I
Encoding: 73 73 42
Width: 600
Flags: W
LayerCount: 2
Fore
SplineSet
500 100 m 1
 500 100 300 100 300 100 c 1
 300 100 300 600 300 600 c 1
 300 600 500 600 500 600 c 1
 500 600 500 700 500 700 c 1
 500 700 0 700 0 700 c 1
 0 700 0 600 0 600 c 1
 0 600 200 600 200 600 c 1
 200 600 200 100 200 100 c 1
 200 100 0 100 0 100 c 1
 0 100 0 0 0 0 c 1
 0 0 500 0 500 0 c 1
 500 0 500 100 500 100 c 1
EndSplineSet
Validated: 9
EndChar

StartChar: J
Encoding: 74 74 43
Width: 600
Flags: W
LayerCount: 2
Fore
SplineSet
500 700 m 1
 500 700 400 700 400 700 c 1
 400 700 400 200 400 200 c 1
 400 200 400 200 400 200 c 1
 400 173 390 149 371 130 c 0
 351 110 327 100 300 100 c 2
 300 100 200 100 200 100 c 1
 200 100 200 100 200 100 c 1
 173 100 149 110 130 130 c 0
 110 149 100 173 100 200 c 2
 100 200 100 300 100 300 c 1
 100 300 0 300 0 300 c 1
 0 300 0 200 0 200 c 1
 0 200 0 200 0 200 c 1
 0 145 20 98 59 59 c 0
 98 20 145 0 200 0 c 2
 200 0 300 0 300 0 c 1
 300 0 300 0 300 0 c 1
 355 0 402 20 441 59 c 0
 480 98 500 145 500 200 c 2
 500 200 500 700 500 700 c 1
EndSplineSet
Validated: 5
EndChar

StartChar: K
Encoding: 75 75 44
Width: 600
Flags: W
LayerCount: 2
Fore
SplineSet
500 38 m 1
 500 38 187 350 187 350 c 1
 187 350 500 663 500 663 c 1
 500 663 500 700 500 700 c 1
 500 700 400 700 400 700 c 1
 400 700 100 400 100 400 c 1
 100 400 100 700 100 700 c 1
 100 700 0 700 0 700 c 1
 0 700 0 0 0 0 c 1
 0 0 100 0 100 0 c 1
 100 0 100 300 100 300 c 1
 100 300 400 0 400 0 c 1
 400 0 500 0 500 0 c 1
 500 0 500 38 500 38 c 1
EndSplineSet
Validated: 9
EndChar

StartChar: L
Encoding: 76 76 45
Width: 600
Flags: W
LayerCount: 2
Fore
SplineSet
500 100 m 1
 500 100 100 100 100 100 c 1
 100 100 100 700 100 700 c 1
 100 700 0 700 0 700 c 1
 0 700 0 0 0 0 c 1
 0 0 500 0 500 0 c 1
 500 0 500 100 500 100 c 1
EndSplineSet
Validated: 9
EndChar

StartChar: M
Encoding: 77 77 46
Width: 600
Flags: W
LayerCount: 2
Fore
SplineSet
500 700 m 1
 500 700 425 700 425 700 c 1
 425 700 250 525 250 525 c 1
 250 525 75 700 75 700 c 1
 75 700 0 700 0 700 c 1
 0 700 0 0 0 0 c 1
 0 0 100 0 100 0 c 1
 100 0 100 525 100 525 c 1
 100 525 200 425 200 425 c 1
 200 425 200 300 200 300 c 1
 200 300 300 300 300 300 c 1
 300 300 300 425 300 425 c 1
 300 425 400 525 400 525 c 1
 400 525 400 0 400 0 c 1
 400 0 500 0 500 0 c 1
 500 0 500 700 500 700 c 1
EndSplineSet
Validated: 9
EndChar

StartChar: N
Encoding: 78 78 47
Width: 600
Flags: W
LayerCount: 2
Fore
SplineSet
500 700 m 1
 500 700 400 700 400 700 c 1
 400 700 400 369 400 369 c 1
 400 369 69 700 69 700 c 1
 69 700 0 700 0 700 c 1
 0 700 0 0 0 0 c 1
 0 0 100 0 100 0 c 1
 100 0 100 531 100 531 c 1
 100 531 400 231 400 231 c 1
 400 231 400 0 400 0 c 1
 400 0 500 0 500 0 c 1
 500 0 500 700 500 700 c 1
EndSplineSet
Validated: 9
EndChar

StartChar: O
Encoding: 79 79 48
Width: 600
Flags: W
LayerCount: 2
Fore
SplineSet
500 500 m 1
 500 500 500 500 500 500 c 1
 500 555 480 602 441 641 c 0
 402 680 355 700 300 700 c 2
 300 700 200 700 200 700 c 1
 200 700 200 700 200 700 c 1
 145 700 98 680 59 641 c 0
 20 602 0 555 0 500 c 2
 0 500 0 200 0 200 c 1
 0 200 0 200 0 200 c 1
 0 145 20 98 59 59 c 0
 98 20 145 0 200 0 c 2
 200 0 300 0 300 0 c 1
 300 0 300 0 300 0 c 1
 355 0 402 20 441 59 c 0
 480 98 500 145 500 200 c 2
 500 200 500 500 500 500 c 1
400 200 m 1
 400 173 390 149 371 130 c 0
 351 110 327 100 300 100 c 2
 300 100 200 100 200 100 c 1
 200 100 200 100 200 100 c 1
 173 100 149 110 130 130 c 0
 110 149 100 173 100 200 c 2
 100 200 100 500 100 500 c 1
 100 500 100 500 100 500 c 1
 100 527 110 551 130 571 c 0
 149 590 173 600 200 600 c 2
 200 600 300 600 300 600 c 1
 300 600 300 600 300 600 c 1
 327 600 351 590 371 571 c 0
 390 551 400 527 400 500 c 2
 400 500 400 200 400 200 c 1
 400 200 400 200 400 200 c 1
EndSplineSet
Validated: 5
EndChar

StartChar: P
Encoding: 80 80 49
Width: 600
Flags: W
LayerCount: 2
Fore
SplineSet
500 500 m 1
 500 555 481 603 442 642 c 0
 403 681 355 700 300 700 c 2
 300 700 0 700 0 700 c 1
 0 700 0 0 0 0 c 1
 0 0 100 0 100 0 c 1
 100 0 100 300 100 300 c 1
 100 300 300 300 300 300 c 1
 300 300 300 300 300 300 c 1
 355 300 402 320 441 359 c 0
 480 398 500 445 500 500 c 1
 500 500 500 500 500 500 c 1
400 500 m 1
 400 473 390 449 371 430 c 0
 351 410 327 400 300 400 c 2
 300 400 100 400 100 400 c 1
 100 400 100 600 100 600 c 1
 100 600 300 600 300 600 c 1
 300 600 300 600 300 600 c 1
 327 600 351 590 371 571 c 0
 390 551 400 527 400 500 c 1
 400 500 400 500 400 500 c 1
EndSplineSet
Validated: 5
EndChar

StartChar: Q
Encoding: 81 81 50
Width: 600
Flags: W
LayerCount: 2
Fore
SplineSet
426 45 m 1
 426 45 426 45 426 45 c 1
 475 84 500 136 500 200 c 2
 500 200 500 500 500 500 c 1
 500 500 500 500 500 500 c 1
 500 555 480 602 441 641 c 0
 402 680 355 700 300 700 c 2
 300 700 200 700 200 700 c 1
 200 700 200 700 200 700 c 1
 145 700 98 680 59 641 c 0
 20 602 0 555 0 500 c 2
 0 500 0 200 0 200 c 1
 0 200 0 200 0 200 c 1
 0 145 20 98 59 59 c 0
 98 20 145 0 200 0 c 2
 200 0 300 0 300 0 c 1
 300 0 300 0 300 0 c 1
 307 0 316 1 328 2 c 1
 328 2 440 -110 440 -110 c 1
 440 -110 511 -38 511 -38 c 1
 511 -38 426 45 426 45 c 1
400 200 m 1
 400 164 385 136 355 116 c 1
 355 116 261 210 261 210 c 1
 261 210 190 140 190 140 c 1
 190 140 229 101 229 101 c 1
 229 101 200 100 200 100 c 1
 200 100 200 100 200 100 c 1
 173 99 149 109 130 129 c 0
 110 148 100 172 100 200 c 2
 100 200 100 500 100 500 c 1
 100 500 100 500 100 500 c 1
 100 527 110 551 130 571 c 0
 149 590 173 600 200 600 c 2
 200 600 300 600 300 600 c 1
 300 600 300 600 300 600 c 1
 327 600 351 590 371 571 c 0
 390 551 400 527 400 500 c 2
 400 500 400 200 400 200 c 1
 400 200 400 200 400 200 c 1
EndSplineSet
Validated: 37
EndChar

StartChar: R
Encoding: 82 82 51
Width: 600
Flags: W
LayerCount: 2
Fore
SplineSet
500 0 m 1
 500 0 500 200 500 200 c 1
 500 200 500 200 500 200 c 1
 500 260 472 310 415 350 c 1
 415 350 415 350 415 350 c 1
 472 390 500 440 500 500 c 1
 500 500 500 500 500 500 c 1
 500 555 481 603 442 642 c 0
 403 681 355 700 300 700 c 2
 300 700 0 700 0 700 c 1
 0 700 0 0 0 0 c 1
 0 0 100 0 100 0 c 1
 100 0 100 300 100 300 c 1
 100 300 300 300 300 300 c 1
 300 300 300 300 300 300 c 1
 327 300 351 290 371 271 c 0
 390 251 400 227 400 200 c 2
 400 200 400 0 400 0 c 1
 400 0 500 0 500 0 c 1
100 600 m 1
 100 600 300 600 300 600 c 1
 300 600 300 600 300 600 c 1
 327 600 351 590 371 571 c 0
 390 551 400 527 400 500 c 1
 400 500 400 500 400 500 c 1
 400 473 390 449 371 430 c 0
 351 410 327 400 300 400 c 2
 300 400 100 400 100 400 c 1
 100 400 100 600 100 600 c 1
EndSplineSet
Validated: 5
EndChar

StartChar: S
Encoding: 83 83 52
Width: 600
Flags: W
LayerCount: 2
Fore
SplineSet
500 200 m 1
 500 255 480 302 441 341 c 0
 402 380 355 400 300 400 c 2
 300 400 200 400 200 400 c 1
 200 400 200 400 200 400 c 1
 173 400 149 410 130 430 c 0
 110 449 100 473 100 500 c 1
 100 500 100 500 100 500 c 1
 100 527 110 551 130 571 c 0
 149 590 173 600 200 600 c 2
 200 600 300 600 300 600 c 1
 300 600 300 600 300 600 c 1
 327 600 351 590 371 571 c 0
 390 551 400 527 400 500 c 1
 400 500 500 500 500 500 c 1
 500 500 500 500 500 500 c 1
 500 555 480 602 441 641 c 0
 402 680 355 700 300 700 c 2
 300 700 200 700 200 700 c 1
 200 700 200 700 200 700 c 1
 145 700 98 680 59 641 c 0
 20 602 0 555 0 500 c 1
 0 500 0 500 0 500 c 1
 0 445 20 398 59 359 c 0
 98 320 145 300 200 300 c 2
 200 300 300 300 300 300 c 1
 300 300 300 300 300 300 c 1
 327 300 351 290 371 271 c 0
 390 251 400 227 400 200 c 1
 400 200 400 200 400 200 c 1
 400 173 390 149 371 130 c 0
 351 110 327 100 300 100 c 2
 300 100 200 100 200 100 c 1
 200 100 200 100 200 100 c 1
 173 100 149 110 130 130 c 0
 110 149 100 173 100 200 c 1
 100 200 0 200 0 200 c 1
 0 200 0 200 0 200 c 1
 0 145 20 98 59 59 c 0
 98 20 145 0 200 0 c 2
 200 0 300 0 300 0 c 1
 300 0 300 0 300 0 c 1
 355 0 402 20 441 59 c 0
 480 98 500 145 500 200 c 1
 500 200 500 200 500 200 c 1
EndSplineSet
Validated: 5
EndChar

StartChar: T
Encoding: 84 84 53
Width: 600
Flags: W
LayerCount: 2
Fore
SplineSet
500 700 m 1
 500 700 0 700 0 700 c 1
 0 700 0 600 0 600 c 1
 0 600 200 600 200 600 c 1
 200 600 200 0 200 0 c 1
 200 0 300 0 300 0 c 1
 300 0 300 600 300 600 c 1
 300 600 500 600 500 600 c 1
 500 600 500 700 500 700 c 1
EndSplineSet
Validated: 9
EndChar

StartChar: U
Encoding: 85 85 54
Width: 600
Flags: W
LayerCount: 2
Fore
SplineSet
500 700 m 1
 500 700 400 700 400 700 c 1
 400 700 400 200 400 200 c 1
 400 200 400 200 400 200 c 1
 400 173 390 149 371 130 c 0
 351 110 327 100 300 100 c 2
 300 100 200 100 200 100 c 1
 200 100 200 100 200 100 c 1
 173 100 149 110 130 130 c 0
 110 149 100 173 100 200 c 2
 100 200 100 700 100 700 c 1
 100 700 0 700 0 700 c 1
 0 700 0 200 0 200 c 1
 0 200 0 200 0 200 c 1
 0 145 20 98 59 59 c 0
 98 20 145 0 200 0 c 2
 200 0 300 0 300 0 c 1
 300 0 300 0 300 0 c 1
 355 0 402 20 441 59 c 0
 480 98 500 145 500 200 c 2
 500 200 500 700 500 700 c 1
EndSplineSet
Validated: 5
EndChar

StartChar: V
Encoding: 86 86 55
Width: 600
Flags: W
LayerCount: 2
Fore
SplineSet
500 700 m 1
 500 700 400 700 400 700 c 1
 400 700 400 525 400 525 c 1
 400 525 250 225 250 225 c 1
 250 225 100 523 100 523 c 1
 100 523 100 700 100 700 c 1
 100 700 0 700 0 700 c 1
 0 700 0 500 0 500 c 1
 0 500 250 0 250 0 c 1
 250 0 500 500 500 500 c 1
 500 500 500 700 500 700 c 1
EndSplineSet
Validated: 9
EndChar

StartChar: W
Encoding: 87 87 56
Width: 600
Flags: W
LayerCount: 2
Fore
SplineSet
500 700 m 1
 500 700 400 700 400 700 c 1
 400 700 400 175 400 175 c 1
 400 175 300 275 300 275 c 1
 300 275 300 400 300 400 c 1
 300 400 200 400 200 400 c 1
 200 400 200 275 200 275 c 1
 200 275 100 175 100 175 c 1
 100 175 100 700 100 700 c 1
 100 700 0 700 0 700 c 1
 0 700 0 0 0 0 c 1
 0 0 75 0 75 0 c 1
 75 0 250 175 250 175 c 1
 250 175 425 0 425 0 c 1
 425 0 500 0 500 0 c 1
 500 0 500 700 500 700 c 1
EndSplineSet
Validated: 9
EndChar

StartChar: X
Encoding: 88 88 57
Width: 600
Flags: W
LayerCount: 2
Fore
SplineSet
500 169 m 1
 500 169 319 350 319 350 c 1
 319 350 500 531 500 531 c 1
 500 531 500 700 500 700 c 1
 500 700 400 700 400 700 c 1
 400 700 400 569 400 569 c 1
 400 569 250 419 250 419 c 1
 250 419 100 569 100 569 c 1
 100 569 100 700 100 700 c 1
 100 700 0 700 0 700 c 1
 0 700 0 531 0 531 c 1
 0 531 181 350 181 350 c 1
 181 350 0 169 0 169 c 1
 0 169 0 0 0 0 c 1
 0 0 100 0 100 0 c 1
 100 0 100 131 100 131 c 1
 100 131 250 281 250 281 c 1
 250 281 400 131 400 131 c 1
 400 131 400 0 400 0 c 1
 400 0 500 0 500 0 c 1
 500 0 500 169 500 169 c 1
EndSplineSet
Validated: 9
EndChar

StartChar: Y
Encoding: 89 89 58
Width: 600
Flags: W
LayerCount: 2
Fore
SplineSet
500 700 m 1
 500 700 400 700 400 700 c 1
 400 700 400 469 400 469 c 1
 400 469 250 319 250 319 c 1
 250 319 100 469 100 469 c 1
 100 469 100 700 100 700 c 1
 100 700 0 700 0 700 c 1
 0 700 0 431 0 431 c 1
 0 431 200 231 200 231 c 1
 200 231 200 0 200 0 c 1
 200 0 300 0 300 0 c 1
 300 0 300 231 300 231 c 1
 300 231 500 431 500 431 c 1
 500 431 500 700 500 700 c 1
EndSplineSet
Validated: 9
EndChar

StartChar: Z
Encoding: 90 90 59
Width: 600
Flags: W
LayerCount: 2
Fore
SplineSet
500 100 m 1
 500 100 100 100 100 100 c 1
 100 100 100 138 100 138 c 1
 100 138 500 538 500 538 c 1
 500 538 500 700 500 700 c 1
 500 700 0 700 0 700 c 1
 0 700 0 600 0 600 c 1
 0 600 400 600 400 600 c 1
 400 600 400 578 400 578 c 1
 400 578 0 179 0 179 c 1
 0 179 0 0 0 0 c 1
 0 0 500 0 500 0 c 1
 500 0 500 100 500 100 c 1
EndSplineSet
Validated: 9
EndChar

StartChar: bracketleft
Encoding: 91 91 60
Width: 600
Flags: W
LayerCount: 2
Fore
SplineSet
400 0 m 1
 400 0 300 0 300 0 c 1
 300 0 300 700 300 700 c 1
 300 700 400 700 400 700 c 1
 400 700 400 800 400 800 c 1
 400 800 200 800 200 800 c 1
 200 800 200 -99 200 -99 c 1
 200 -99 400 -99 400 -99 c 1
 400 -99 400 0 400 0 c 1
EndSplineSet
Validated: 9
EndChar

StartChar: backslash
Encoding: 92 92 61
Width: 600
Flags: W
LayerCount: 2
Fore
SplineSet
124 801 m 1
 124 801 35 755 35 755 c 1
 35 755 518 -190 518 -190 c 1
 518 -190 600 -145 600 -145 c 1
 600 -145 124 801 124 801 c 1
EndSplineSet
Validated: 9
EndChar

StartChar: bracketright
Encoding: 93 93 62
Width: 600
Flags: W
LayerCount: 2
Fore
SplineSet
300 800 m 1
 300 800 100 800 100 800 c 1
 100 800 100 700 100 700 c 1
 100 700 200 700 200 700 c 1
 200 700 200 0 200 0 c 1
 200 0 100 0 100 0 c 1
 100 0 100 -99 100 -99 c 1
 100 -99 300 -99 300 -99 c 1
 300 -99 300 800 300 800 c 1
EndSplineSet
Validated: 9
EndChar

StartChar: asciicircum
Encoding: 94 94 63
Width: 600
Flags: W
LayerCount: 2
Fore
SplineSet
267 721 m 1
 267 721 2 456 2 456 c 1
 2 456 73 385 73 385 c 1
 73 385 267 579 267 579 c 1
 267 579 462 384 462 384 c 1
 462 384 532 455 532 455 c 1
 532 455 267 721 267 721 c 1
EndSplineSet
Validated: 9
EndChar

StartChar: underscore
Encoding: 95 95 64
Width: 600
Flags: W
LayerCount: 2
Fore
SplineSet
600 -99 m 1
 600 -99 0 -99 0 -99 c 1
 0 -99 0 -199 0 -199 c 1
 0 -199 600 -199 600 -199 c 1
 600 -199 600 -99 600 -99 c 1
EndSplineSet
Validated: 9
EndChar

StartChar: grave
Encoding: 96 96 65
Width: 600
Flags: W
LayerCount: 2
Fore
SplineSet
150 800 m 1
 150 800 81 731 81 731 c 1
 81 731 244 569 244 569 c 1
 244 569 312 637 312 637 c 1
 312 637 150 800 150 800 c 1
EndSplineSet
Validated: 9
EndChar

StartChar: a
Encoding: 97 97 66
Width: 600
Flags: W
LayerCount: 2
Fore
SplineSet
200 500 m 1
 200 500 200 500 200 500 c 1
 145 500 98 481 59 442 c 0
 20 403 0 355 0 300 c 2
 0 300 0 200 0 200 c 1
 0 200 0 200 0 200 c 1
 0 145 20 98 59 59 c 0
 98 20 145 0 200 0 c 1
 200 0 200 0 200 0 c 1
 242 0 288 25 338 75 c 2
 338 75 400 138 400 138 c 1
 400 138 400 0 400 0 c 1
 400 0 500 0 500 0 c 1
 500 0 500 500 500 500 c 1
 500 500 200 500 200 500 c 1
400 400 m 1
 400 400 400 250 400 250 c 1
 400 250 300 150 300 150 c 1
 300 150 300 150 300 150 c 1
 267 117 233 100 200 100 c 1
 200 100 200 100 200 100 c 1
 173 100 149 110 130 130 c 0
 110 149 100 173 100 200 c 2
 100 200 100 300 100 300 c 1
 100 300 100 300 100 300 c 1
 100 327 110 351 130 371 c 0
 149 390 173 400 200 400 c 2
 200 400 400 400 400 400 c 1
EndSplineSet
Validated: 5
EndChar

StartChar: b
Encoding: 98 98 67
Width: 600
Flags: W
LayerCount: 2
Fore
SplineSet
500 300 m 1
 500 300 500 300 500 300 c 1
 500 355 480 402 441 441 c 0
 402 480 355 500 300 500 c 2
 300 500 100 500 100 500 c 1
 100 500 100 700 100 700 c 1
 100 700 0 700 0 700 c 1
 0 700 0 0 0 0 c 1
 0 0 300 0 300 0 c 1
 300 0 300 0 300 0 c 1
 355 0 402 20 441 59 c 0
 480 98 500 145 500 200 c 2
 500 200 500 300 500 300 c 1
400 200 m 1
 400 173 390 149 371 130 c 0
 351 110 327 100 300 100 c 2
 300 100 100 100 100 100 c 1
 100 100 100 400 100 400 c 1
 100 400 300 400 300 400 c 1
 300 400 300 400 300 400 c 1
 327 400 351 390 371 371 c 0
 390 351 400 327 400 300 c 2
 400 300 400 200 400 200 c 1
 400 200 400 200 400 200 c 1
EndSplineSet
Validated: 5
EndChar

StartChar: c
Encoding: 99 99 68
Width: 600
Flags: W
LayerCount: 2
Fore
SplineSet
500 100 m 1
 500 100 200 100 200 100 c 1
 200 100 200 100 200 100 c 1
 173 100 149 110 130 130 c 0
 110 149 100 173 100 200 c 2
 100 200 100 300 100 300 c 1
 100 300 100 300 100 300 c 1
 100 327 110 351 130 371 c 0
 149 390 173 400 200 400 c 2
 200 400 300 400 300 400 c 1
 300 400 300 400 300 400 c 1
 327 400 351 390 371 371 c 0
 390 351 400 327 400 300 c 1
 400 300 500 300 500 300 c 1
 500 300 500 300 500 300 c 1
 500 355 480 402 441 441 c 0
 402 480 355 500 300 500 c 2
 300 500 200 500 200 500 c 1
 200 500 200 500 200 500 c 1
 145 500 98 480 59 441 c 0
 20 402 0 355 0 300 c 2
 0 300 0 200 0 200 c 1
 0 200 0 200 0 200 c 1
 0 145 20 98 59 59 c 0
 98 20 145 0 200 0 c 2
 200 0 500 0 500 0 c 1
 500 0 500 100 500 100 c 1
EndSplineSet
Validated: 5
EndChar

StartChar: d
Encoding: 100 100 69
Width: 600
Flags: W
LayerCount: 2
Fore
SplineSet
500 700 m 1
 500 700 400 700 400 700 c 1
 400 700 400 500 400 500 c 1
 400 500 200 500 200 500 c 1
 200 500 200 500 200 500 c 1
 145 500 98 480 59 441 c 0
 20 402 0 355 0 300 c 2
 0 300 0 200 0 200 c 1
 0 200 0 200 0 200 c 1
 0 145 20 98 59 59 c 0
 98 20 145 0 200 0 c 2
 200 0 500 0 500 0 c 1
 500 0 500 700 500 700 c 1
200 100 m 1
 200 100 200 100 200 100 c 1
 173 100 149 110 130 130 c 0
 110 149 100 173 100 200 c 2
 100 200 100 300 100 300 c 1
 100 300 100 300 100 300 c 1
 100 327 110 351 130 371 c 0
 149 390 173 400 200 400 c 2
 200 400 400 400 400 400 c 1
 400 400 400 100 400 100 c 1
 400 100 200 100 200 100 c 1
EndSplineSet
Validated: 5
EndChar

StartChar: e
Encoding: 101 101 70
Width: 600
Flags: W
LayerCount: 2
Fore
SplineSet
500 100 m 1
 500 100 200 100 200 100 c 1
 200 100 200 100 200 100 c 1
 173 100 149 110 130 130 c 0
 110 149 100 173 100 200 c 1
 100 200 500 200 500 200 c 1
 500 200 500 300 500 300 c 1
 500 300 500 300 500 300 c 1
 500 355 480 402 441 441 c 0
 402 480 355 500 300 500 c 2
 300 500 200 500 200 500 c 1
 200 500 200 500 200 500 c 1
 145 500 98 480 59 441 c 0
 20 402 0 355 0 300 c 2
 0 300 0 200 0 200 c 1
 0 200 0 200 0 200 c 1
 0 145 20 98 59 59 c 0
 98 20 145 0 200 0 c 2
 200 0 500 0 500 0 c 1
 500 0 500 100 500 100 c 1
100 300 m 1
 100 300 100 300 100 300 c 1
 100 327 110 351 130 371 c 0
 149 390 173 400 200 400 c 2
 200 400 300 400 300 400 c 1
 300 400 300 400 300 400 c 1
 327 400 351 390 371 371 c 0
 390 351 400 327 400 300 c 1
 400 300 100 300 100 300 c 1
EndSplineSet
Validated: 5
EndChar

StartChar: f
Encoding: 102 102 71
Width: 600
Flags: W
LayerCount: 2
Fore
SplineSet
500 700 m 1
 500 700 400 700 400 700 c 1
 400 700 400 700 400 700 c 1
 345 700 298 680 259 641 c 0
 220 602 200 555 200 500 c 1
 200 500 100 500 100 500 c 1
 100 500 100 400 100 400 c 1
 100 400 200 400 200 400 c 1
 200 400 200 0 200 0 c 1
 200 0 300 0 300 0 c 1
 300 0 300 400 300 400 c 1
 300 400 400 400 400 400 c 1
 400 400 400 500 400 500 c 1
 400 500 300 500 300 500 c 1
 300 500 300 500 300 500 c 1
 300 527 310 551 330 571 c 0
 349 590 373 600 400 600 c 2
 400 600 500 600 500 600 c 1
 500 600 500 700 500 700 c 1
EndSplineSet
Validated: 5
EndChar

StartChar: g
Encoding: 103 103 72
Width: 600
Flags: W
LayerCount: 2
Fore
SplineSet
500 500 m 1
 500 500 200 500 200 500 c 1
 200 500 200 500 200 500 c 1
 145 500 98 480 59 441 c 0
 20 402 0 355 0 300 c 2
 0 300 0 200 0 200 c 1
 0 200 0 200 0 200 c 1
 0 145 20 98 59 59 c 0
 98 20 145 0 200 0 c 2
 200 0 400 0 400 0 c 1
 400 0 400 0 400 0 c 1
 400 -27 390 -50 371 -69 c 0
 351 -89 327 -99 300 -99 c 2
 300 -99 100 -99 100 -99 c 1
 100 -99 100 -199 100 -199 c 1
 100 -199 300 -199 300 -199 c 1
 300 -199 300 -199 300 -199 c 1
 355 -199 402 -179 441 -140 c 0
 480 -101 500 -55 500 0 c 2
 500 0 500 500 500 500 c 1
200 100 m 1
 200 100 200 100 200 100 c 1
 173 100 149 110 130 130 c 0
 110 149 100 173 100 200 c 2
 100 200 100 300 100 300 c 1
 100 300 100 300 100 300 c 1
 100 327 110 351 130 371 c 0
 149 390 173 400 200 400 c 2
 200 400 400 400 400 400 c 1
 400 400 400 100 400 100 c 1
 400 100 200 100 200 100 c 1
EndSplineSet
Validated: 5
EndChar

StartChar: h
Encoding: 104 104 73
Width: 600
Flags: W
LayerCount: 2
Fore
SplineSet
500 300 m 1
 500 300 500 300 500 300 c 1
 500 355 480 402 441 441 c 0
 402 480 355 500 300 500 c 2
 300 500 100 500 100 500 c 1
 100 500 100 700 100 700 c 1
 100 700 0 700 0 700 c 1
 0 700 0 0 0 0 c 1
 0 0 100 0 100 0 c 1
 100 0 100 400 100 400 c 1
 100 400 300 400 300 400 c 1
 300 400 300 400 300 400 c 1
 327 400 351 390 371 371 c 0
 390 351 400 327 400 300 c 2
 400 300 400 0 400 0 c 1
 400 0 500 0 500 0 c 1
 500 0 500 300 500 300 c 1
EndSplineSet
Validated: 5
EndChar

StartChar: i
Encoding: 105 105 74
Width: 600
Flags: W
LayerCount: 2
Fore
SplineSet
300 650 m 1
 300 664 295 676 286 686 c 0
 276 695 264 700 250 700 c 1
 250 700 250 700 250 700 c 1
 236 700 224 695 215 686 c 0
 205 676 200 664 200 650 c 1
 200 650 200 650 200 650 c 1
 200 636 205 624 215 615 c 0
 224 605 236 600 250 600 c 1
 250 600 250 600 250 600 c 1
 264 600 276 605 286 615 c 0
 295 624 300 636 300 650 c 1
 300 650 300 650 300 650 c 1
400 100 m 1
 400 100 300 100 300 100 c 1
 300 100 300 500 300 500 c 1
 300 500 100 500 100 500 c 1
 100 500 100 400 100 400 c 1
 100 400 200 400 200 400 c 1
 200 400 200 100 200 100 c 1
 200 100 100 100 100 100 c 1
 100 100 100 0 100 0 c 1
 100 0 400 0 400 0 c 1
 400 0 400 100 400 100 c 1
EndSplineSet
Validated: 5
EndChar

StartChar: j
Encoding: 106 106 75
Width: 600
Flags: W
LayerCount: 2
Fore
SplineSet
300 650 m 1
 300 664 295 676 286 686 c 0
 276 695 264 700 250 700 c 1
 250 700 250 700 250 700 c 1
 236 700 224 695 215 686 c 0
 205 676 200 664 200 650 c 1
 200 650 200 650 200 650 c 1
 200 636 205 624 215 615 c 0
 224 605 236 600 250 600 c 1
 250 600 250 600 250 600 c 1
 264 600 276 605 286 615 c 0
 295 624 300 636 300 650 c 1
 300 650 300 650 300 650 c 1
300 500 m 1
 300 500 100 500 100 500 c 1
 100 500 100 400 100 400 c 1
 100 400 200 400 200 400 c 1
 200 400 200 0 200 0 c 1
 200 0 200 0 200 0 c 1
 200 -27 190 -50 171 -69 c 0
 151 -89 127 -99 100 -99 c 2
 100 -99 0 -99 0 -99 c 1
 0 -99 0 -199 0 -199 c 1
 0 -199 100 -199 100 -199 c 1
 100 -199 100 -199 100 -199 c 1
 155 -199 202 -179 241 -140 c 0
 280 -101 300 -55 300 0 c 2
 300 0 300 500 300 500 c 1
EndSplineSet
Validated: 5
EndChar

StartChar: k
Encoding: 107 107 76
Width: 600
Flags: W
LayerCount: 2
Fore
SplineSet
500 69 m 1
 500 69 269 300 269 300 c 1
 269 300 469 500 469 500 c 1
 469 500 331 500 331 500 c 1
 331 500 100 269 100 269 c 1
 100 269 100 700 100 700 c 1
 100 700 0 700 0 700 c 1
 0 700 0 0 0 0 c 1
 0 0 100 0 100 0 c 1
 100 0 100 131 100 131 c 1
 100 131 200 231 200 231 c 1
 200 231 431 0 431 0 c 1
 431 0 500 0 500 0 c 1
 500 0 500 69 500 69 c 1
EndSplineSet
Validated: 9
EndChar

StartChar: l
Encoding: 108 108 77
Width: 600
Flags: W
LayerCount: 2
Fore
SplineSet
400 100 m 1
 400 100 300 100 300 100 c 1
 300 100 300 700 300 700 c 1
 300 700 100 700 100 700 c 1
 100 700 100 600 100 600 c 1
 100 600 200 600 200 600 c 1
 200 600 200 100 200 100 c 1
 200 100 100 100 100 100 c 1
 100 100 100 0 100 0 c 1
 100 0 400 0 400 0 c 1
 400 0 400 100 400 100 c 1
EndSplineSet
Validated: 9
EndChar

StartChar: m
Encoding: 109 109 78
Width: 600
Flags: W
LayerCount: 2
Fore
SplineSet
500 300 m 1
 500 300 500 300 500 300 c 1
 500 355 480 402 441 441 c 0
 402 480 355 500 300 500 c 2
 300 500 0 500 0 500 c 1
 0 500 0 0 0 0 c 1
 0 0 100 0 100 0 c 1
 100 0 100 400 100 400 c 1
 100 400 200 400 200 400 c 1
 200 400 200 0 200 0 c 1
 200 0 300 0 300 0 c 1
 300 0 300 400 300 400 c 1
 300 400 300 400 300 400 c 1
 327 400 351 390 371 371 c 0
 390 351 400 327 400 300 c 2
 400 300 400 0 400 0 c 1
 400 0 500 0 500 0 c 1
 500 0 500 300 500 300 c 1
EndSplineSet
Validated: 5
EndChar

StartChar: n
Encoding: 110 110 79
Width: 600
Flags: W
LayerCount: 2
Fore
SplineSet
0 500 m 1
 0 500 0 0 0 0 c 1
 0 0 100 0 100 0 c 1
 100 0 100 250 100 250 c 1
 100 250 200 350 200 350 c 1
 200 350 200 350 200 350 c 1
 233 383 267 400 300 400 c 1
 300 400 300 400 300 400 c 1
 327 400 351 390 371 371 c 0
 390 351 400 327 400 300 c 2
 400 300 400 0 400 0 c 1
 400 0 500 0 500 0 c 1
 500 0 500 300 500 300 c 1
 500 300 500 300 500 300 c 1
 500 355 481 403 442 442 c 0
 403 481 355 500 300 500 c 1
 300 500 300 500 300 500 c 1
 259 500 213 475 163 425 c 2
 163 425 100 363 100 363 c 1
 100 363 100 500 100 500 c 1
 100 500 0 500 0 500 c 1
EndSplineSet
Validated: 5
EndChar

StartChar: o
Encoding: 111 111 80
Width: 600
Flags: W
LayerCount: 2
Fore
SplineSet
500 300 m 1
 500 300 500 300 500 300 c 1
 500 355 480 402 441 441 c 0
 402 480 355 500 300 500 c 2
 300 500 200 500 200 500 c 1
 200 500 200 500 200 500 c 1
 145 500 98 480 59 441 c 0
 20 402 0 355 0 300 c 2
 0 300 0 200 0 200 c 1
 0 200 0 200 0 200 c 1
 0 145 20 98 59 59 c 0
 98 20 145 0 200 0 c 2
 200 0 300 0 300 0 c 1
 300 0 300 0 300 0 c 1
 355 0 402 20 441 59 c 0
 480 98 500 145 500 200 c 2
 500 200 500 300 500 300 c 1
400 200 m 1
 400 173 390 149 371 130 c 0
 351 110 327 100 300 100 c 2
 300 100 200 100 200 100 c 1
 200 100 200 100 200 100 c 1
 173 100 149 110 130 130 c 0
 110 149 100 173 100 200 c 2
 100 200 100 300 100 300 c 1
 100 300 100 300 100 300 c 1
 100 327 110 351 130 371 c 0
 149 390 173 400 200 400 c 2
 200 400 300 400 300 400 c 1
 300 400 300 400 300 400 c 1
 327 400 351 390 371 371 c 0
 390 351 400 327 400 300 c 2
 400 300 400 200 400 200 c 1
 400 200 400 200 400 200 c 1
EndSplineSet
Validated: 5
EndChar

StartChar: p
Encoding: 112 112 81
Width: 600
Flags: W
LayerCount: 2
Fore
SplineSet
500 300 m 1
 500 300 500 300 500 300 c 1
 500 355 480 402 441 441 c 0
 402 480 355 500 300 500 c 2
 300 500 0 500 0 500 c 1
 0 500 0 -199 0 -199 c 1
 0 -199 100 -199 100 -199 c 1
 100 -199 100 0 100 0 c 1
 100 0 300 0 300 0 c 1
 300 0 300 0 300 0 c 1
 355 0 402 20 441 59 c 0
 480 98 500 145 500 200 c 2
 500 200 500 300 500 300 c 1
400 200 m 1
 400 173 390 149 371 130 c 0
 351 110 327 100 300 100 c 2
 300 100 100 100 100 100 c 1
 100 100 100 400 100 400 c 1
 100 400 300 400 300 400 c 1
 300 400 300 400 300 400 c 1
 327 400 351 390 371 371 c 0
 390 351 400 327 400 300 c 2
 400 300 400 200 400 200 c 1
 400 200 400 200 400 200 c 1
EndSplineSet
Validated: 5
EndChar

StartChar: q
Encoding: 113 113 82
Width: 600
Flags: W
LayerCount: 2
Fore
SplineSet
500 500 m 1
 500 500 200 500 200 500 c 1
 200 500 200 500 200 500 c 1
 145 500 98 480 59 441 c 0
 20 402 0 355 0 300 c 2
 0 300 0 200 0 200 c 1
 0 200 0 200 0 200 c 1
 0 145 20 98 59 59 c 0
 98 20 145 0 200 0 c 2
 200 0 400 0 400 0 c 1
 400 0 400 -199 400 -199 c 1
 400 -199 500 -199 500 -199 c 1
 500 -199 500 500 500 500 c 1
200 100 m 1
 200 100 200 100 200 100 c 1
 173 100 149 110 130 130 c 0
 110 149 100 173 100 200 c 2
 100 200 100 300 100 300 c 1
 100 300 100 300 100 300 c 1
 100 327 110 351 130 371 c 0
 149 390 173 400 200 400 c 2
 200 400 400 400 400 400 c 1
 400 400 400 100 400 100 c 1
 400 100 200 100 200 100 c 1
EndSplineSet
Validated: 5
EndChar

StartChar: r
Encoding: 114 114 83
Width: 600
Flags: W
LayerCount: 2
Fore
SplineSet
0 500 m 1
 0 500 0 0 0 0 c 1
 0 0 100 0 100 0 c 1
 100 0 100 250 100 250 c 1
 100 250 200 350 200 350 c 1
 200 350 200 350 200 350 c 1
 233 383 267 400 300 400 c 1
 300 400 300 400 300 400 c 1
 327 400 351 390 371 371 c 0
 390 351 400 327 400 300 c 1
 400 300 500 300 500 300 c 1
 500 300 500 300 500 300 c 1
 500 355 481 403 442 442 c 0
 403 481 355 500 300 500 c 1
 300 500 300 500 300 500 c 1
 259 500 213 475 163 425 c 2
 163 425 100 363 100 363 c 1
 100 363 100 500 100 500 c 1
 100 500 0 500 0 500 c 1
EndSplineSet
Validated: 5
EndChar

StartChar: s
Encoding: 115 115 84
Width: 600
Flags: W
LayerCount: 2
Fore
SplineSet
238 500 m 1
 238 500 238 500 238 500 c 1
 175 500 122 485 79 456 c 0
 35 427 13 391 13 350 c 1
 13 350 13 350 13 350 c 1
 13 309 35 273 79 244 c 0
 122 215 175 200 238 200 c 2
 238 200 263 200 263 200 c 1
 263 200 263 200 263 200 c 1
 297 200 326 195 351 186 c 0
 376 176 388 164 388 150 c 1
 388 150 388 150 388 150 c 1
 388 136 376 124 351 115 c 0
 326 105 297 100 263 100 c 2
 263 100 0 100 0 100 c 1
 0 100 0 0 0 0 c 1
 0 0 263 0 263 0 c 1
 263 0 263 0 263 0 c 1
 325 0 378 15 422 44 c 0
 466 73 488 109 488 150 c 1
 488 150 488 150 488 150 c 1
 488 191 466 227 422 256 c 0
 378 285 325 300 263 300 c 2
 263 300 238 300 238 300 c 1
 238 300 238 300 238 300 c 1
 203 300 174 305 150 315 c 0
 125 324 113 336 113 350 c 1
 113 350 113 350 113 350 c 1
 113 364 125 376 150 386 c 0
 174 395 203 400 238 400 c 2
 238 400 500 400 500 400 c 1
 500 400 500 500 500 500 c 1
 500 500 238 500 238 500 c 1
EndSplineSet
Validated: 5
EndChar

StartChar: t
Encoding: 116 116 85
Width: 600
Flags: W
LayerCount: 2
Fore
SplineSet
500 100 m 1
 500 100 400 100 400 100 c 1
 400 100 400 100 400 100 c 1
 373 100 349 110 330 130 c 0
 310 149 300 173 300 200 c 2
 300 200 300 400 300 400 c 1
 300 400 400 400 400 400 c 1
 400 400 400 500 400 500 c 1
 400 500 300 500 300 500 c 1
 300 500 300 700 300 700 c 1
 300 700 200 700 200 700 c 1
 200 700 200 500 200 500 c 1
 200 500 100 500 100 500 c 1
 100 500 100 400 100 400 c 1
 100 400 200 400 200 400 c 1
 200 400 200 200 200 200 c 1
 200 200 200 200 200 200 c 1
 200 145 220 98 259 59 c 0
 298 20 345 0 400 0 c 2
 400 0 500 0 500 0 c 1
 500 0 500 100 500 100 c 1
EndSplineSet
Validated: 5
EndChar

StartChar: u
Encoding: 117 117 86
Width: 600
Flags: W
LayerCount: 2
Fore
SplineSet
500 0 m 1
 500 0 500 500 500 500 c 1
 500 500 400 500 400 500 c 1
 400 500 400 250 400 250 c 1
 400 250 300 150 300 150 c 1
 300 150 300 150 300 150 c 1
 267 117 233 100 200 100 c 1
 200 100 200 100 200 100 c 1
 173 100 149 110 130 130 c 0
 110 149 100 173 100 200 c 2
 100 200 100 500 100 500 c 1
 100 500 0 500 0 500 c 1
 0 500 0 200 0 200 c 1
 0 200 0 200 0 200 c 1
 0 145 20 98 59 59 c 0
 98 20 145 0 200 0 c 1
 200 0 200 0 200 0 c 1
 242 0 288 25 338 75 c 2
 338 75 400 138 400 138 c 1
 400 138 400 0 400 0 c 1
 400 0 500 0 500 0 c 1
EndSplineSet
Validated: 5
EndChar

StartChar: v
Encoding: 118 118 87
Width: 600
Flags: W
LayerCount: 2
Fore
SplineSet
500 500 m 1
 500 500 400 500 400 500 c 1
 400 500 400 425 400 425 c 1
 400 425 250 125 250 125 c 1
 250 125 100 425 100 425 c 1
 100 425 100 500 100 500 c 1
 100 500 0 500 0 500 c 1
 0 500 0 400 0 400 c 1
 0 400 200 0 200 0 c 1
 200 0 300 0 300 0 c 1
 300 0 500 400 500 400 c 1
 500 400 500 500 500 500 c 1
EndSplineSet
Validated: 9
EndChar

StartChar: w
Encoding: 119 119 88
Width: 600
Flags: W
LayerCount: 2
Fore
SplineSet
256 100 m 1
 256 100 256 100 256 100 c 1
 283 33 315 0 350 0 c 1
 350 0 350 0 350 0 c 1
 391 0 427 22 456 66 c 0
 485 110 500 163 500 225 c 2
 500 225 500 500 500 500 c 1
 500 500 400 500 400 500 c 1
 400 500 400 225 400 225 c 1
 400 225 400 225 400 225 c 1
 400 190 395 161 386 137 c 0
 376 112 364 100 350 100 c 1
 350 100 350 100 350 100 c 1
 336 100 324 112 315 137 c 0
 305 161 300 190 300 225 c 2
 300 225 300 500 300 500 c 1
 300 500 200 500 200 500 c 1
 200 500 200 225 200 225 c 1
 200 225 200 225 200 225 c 1
 200 190 195 161 186 136 c 0
 176 111 164 99 150 99 c 1
 150 99 150 99 150 99 c 1
 136 99 124 111 115 136 c 0
 105 161 100 190 100 225 c 2
 100 225 100 500 100 500 c 1
 100 500 0 500 0 500 c 1
 0 500 0 225 0 225 c 1
 0 225 0 225 0 225 c 1
 0 163 15 110 44 66 c 0
 73 22 109 0 150 0 c 1
 150 0 150 0 150 0 c 1
 185 0 217 33 244 100 c 1
 244 100 256 100 256 100 c 1
EndSplineSet
Validated: 5
EndChar

StartChar: x
Encoding: 120 120 89
Width: 600
Flags: W
LayerCount: 2
Fore
SplineSet
500 69 m 1
 500 69 319 250 319 250 c 1
 319 250 500 431 500 431 c 1
 500 431 500 500 500 500 c 1
 500 500 400 500 400 500 c 1
 400 500 400 469 400 469 c 1
 400 469 250 319 250 319 c 1
 250 319 100 469 100 469 c 1
 100 469 100 500 100 500 c 1
 100 500 0 500 0 500 c 1
 0 500 0 431 0 431 c 1
 0 431 181 250 181 250 c 1
 181 250 0 69 0 69 c 1
 0 69 0 0 0 0 c 1
 0 0 100 0 100 0 c 1
 100 0 100 31 100 31 c 1
 100 31 250 181 250 181 c 1
 250 181 400 31 400 31 c 1
 400 31 400 0 400 0 c 1
 400 0 500 0 500 0 c 1
 500 0 500 69 500 69 c 1
EndSplineSet
Validated: 9
EndChar

StartChar: y
Encoding: 121 121 90
Width: 600
Flags: W
LayerCount: 2
Fore
SplineSet
500 500 m 1
 500 500 400 500 400 500 c 1
 400 500 400 100 400 100 c 1
 400 100 200 100 200 100 c 1
 200 100 200 100 200 100 c 1
 173 100 149 110 130 130 c 0
 110 149 100 173 100 200 c 2
 100 200 100 500 100 500 c 1
 100 500 0 500 0 500 c 1
 0 500 0 200 0 200 c 1
 0 200 0 200 0 200 c 1
 0 145 20 98 59 59 c 0
 98 20 145 0 200 0 c 2
 200 0 400 0 400 0 c 1
 400 0 400 0 400 0 c 1
 400 -27 390 -50 371 -69 c 0
 351 -89 327 -99 300 -99 c 2
 300 -99 100 -99 100 -99 c 1
 100 -99 100 -199 100 -199 c 1
 100 -199 300 -199 300 -199 c 1
 300 -199 300 -199 300 -199 c 1
 355 -199 402 -179 441 -140 c 0
 480 -101 500 -55 500 0 c 2
 500 0 500 500 500 500 c 1
EndSplineSet
Validated: 5
EndChar

StartChar: z
Encoding: 122 122 91
Width: 600
Flags: W
LayerCount: 2
Fore
SplineSet
500 100 m 1
 500 100 169 100 169 100 c 1
 169 100 500 431 500 431 c 1
 500 431 500 500 500 500 c 1
 500 500 0 500 0 500 c 1
 0 500 0 400 0 400 c 1
 0 400 331 400 331 400 c 1
 331 400 0 69 0 69 c 1
 0 69 0 0 0 0 c 1
 0 0 500 0 500 0 c 1
 500 0 500 100 500 100 c 1
EndSplineSet
Validated: 9
EndChar

StartChar: braceleft
Encoding: 123 123 92
Width: 600
Flags: W
LayerCount: 2
Fore
SplineSet
400 -99 m 1
 400 -99 400 -99 400 -99 c 1
 373 -99 349 -89 330 -69 c 0
 310 -50 300 -27 300 0 c 2
 300 0 300 250 300 250 c 1
 300 250 300 250 300 250 c 1
 300 285 267 317 200 344 c 1
 200 344 200 356 200 356 c 1
 200 356 200 356 200 356 c 1
 267 383 300 415 300 450 c 2
 300 450 300 700 300 700 c 1
 300 700 300 700 300 700 c 1
 300 727 310 751 330 771 c 0
 349 790 373 800 400 800 c 1
 400 800 400 900 400 900 c 1
 400 900 400 900 400 900 c 1
 345 900 298 883 259 849 c 0
 220 814 200 773 200 725 c 2
 200 725 200 500 200 500 c 1
 200 500 200 500 200 500 c 1
 200 473 190 449 171 430 c 0
 151 410 127 400 100 400 c 1
 100 400 100 300 100 300 c 1
 100 300 100 300 100 300 c 1
 127 300 151 290 171 271 c 0
 190 251 200 227 200 200 c 2
 200 200 200 -24 200 -24 c 1
 200 -24 200 -24 200 -24 c 1
 200 -72 220 -113 259 -147 c 0
 298 -182 345 -199 400 -199 c 1
 400 -199 400 -99 400 -99 c 1
EndSplineSet
Validated: 5
EndChar

StartChar: bar
Encoding: 124 124 93
Width: 600
Flags: W
LayerCount: 2
Fore
SplineSet
300 800 m 1
 300 800 200 800 200 800 c 1
 200 800 200 -99 200 -99 c 1
 200 -99 300 -99 300 -99 c 1
 300 -99 300 800 300 800 c 1
EndSplineSet
Validated: 9
EndChar

StartChar: braceright
Encoding: 125 125 94
Width: 600
Flags: W
LayerCount: 2
Fore
SplineSet
400 400 m 1
 400 400 400 400 400 400 c 1
 373 400 349 410 330 430 c 0
 310 449 300 473 300 500 c 2
 300 500 300 725 300 725 c 1
 300 725 300 725 300 725 c 1
 300 773 281 814 242 849 c 0
 203 883 155 900 100 900 c 1
 100 900 100 800 100 800 c 1
 100 800 100 800 100 800 c 1
 127 800 151 790 171 771 c 0
 190 751 200 727 200 700 c 2
 200 700 200 450 200 450 c 1
 200 450 200 450 200 450 c 1
 200 415 233 383 300 356 c 1
 300 356 300 344 300 344 c 1
 300 344 300 344 300 344 c 1
 233 317 200 285 200 250 c 2
 200 250 200 0 200 0 c 1
 200 0 200 0 200 0 c 1
 200 -27 190 -50 171 -69 c 0
 151 -89 127 -99 100 -99 c 1
 100 -99 100 -199 100 -199 c 1
 100 -199 100 -199 100 -199 c 1
 155 -199 203 -182 242 -147 c 0
 281 -113 300 -72 300 -24 c 2
 300 -24 300 200 300 200 c 1
 300 200 300 200 300 200 c 1
 300 227 310 251 330 271 c 0
 349 290 373 300 400 300 c 1
 400 300 400 400 400 400 c 1
EndSplineSet
Validated: 5
EndChar

StartChar: asciitilde
Encoding: 126 126 95
Width: 600
Flags: W
LayerCount: 2
Fore
SplineSet
500 500 m 1
 500 500 400 500 400 500 c 1
 400 500 400 450 400 450 c 1
 400 450 400 450 400 450 c 1
 400 436 395 424 386 415 c 0
 376 405 364 400 350 400 c 1
 350 400 350 400 350 400 c 1
 325 400 292 421 250 463 c 1
 250 463 250 463 250 463 c 1
 225 488 192 500 150 500 c 1
 150 500 150 500 150 500 c 1
 109 500 73 485 44 456 c 0
 15 427 0 391 0 350 c 2
 0 350 0 300 0 300 c 1
 0 300 100 300 100 300 c 1
 100 300 100 350 100 350 c 1
 100 350 100 350 100 350 c 1
 100 364 105 376 115 386 c 0
 124 395 136 400 150 400 c 1
 150 400 150 400 150 400 c 1
 175 400 209 379 250 338 c 1
 250 338 250 338 250 338 c 1
 275 313 309 300 350 300 c 1
 350 300 350 300 350 300 c 1
 391 300 427 315 456 344 c 0
 485 373 500 409 500 450 c 2
 500 450 500 500 500 500 c 1
EndSplineSet
Validated: 5
EndChar

StartChar: exclamdown
Encoding: 161 161 97
Width: 600
Flags: W
LayerCount: 2
Fore
SplineSet
400 650 m 1
 400 664 395 676 386 686 c 0
 376 695 364 700 350 700 c 1
 350 700 350 700 350 700 c 1
 336 700 324 695 315 686 c 0
 305 676 300 664 300 650 c 1
 300 650 300 650 300 650 c 1
 300 636 305 624 315 615 c 0
 324 605 336 600 350 600 c 1
 350 600 350 600 350 600 c 1
 364 600 376 605 386 615 c 0
 395 624 400 636 400 650 c 1
 400 650 400 650 400 650 c 1
400 500 m 1
 400 500 300 500 300 500 c 1
 300 500 300 0 300 0 c 1
 300 0 400 0 400 0 c 1
 400 0 400 500 400 500 c 1
EndSplineSet
Validated: 5
EndChar

StartChar: cent
Encoding: 162 162 98
Width: 600
Flags: W
LayerCount: 2
Fore
SplineSet
500 100 m 1
 500 100 300 100 300 100 c 1
 300 100 300 400 300 400 c 1
 300 400 300 400 300 400 c 1
 327 400 351 390 371 371 c 0
 390 351 400 327 400 300 c 1
 400 300 500 300 500 300 c 1
 500 300 500 300 500 300 c 1
 500 355 480 402 441 441 c 0
 402 480 355 500 300 500 c 1
 300 500 300 600 300 600 c 1
 300 600 200 600 200 600 c 1
 200 600 200 500 200 500 c 1
 200 500 200 500 200 500 c 1
 145 500 98 480 59 441 c 0
 20 402 0 355 0 300 c 2
 0 300 0 200 0 200 c 1
 0 200 0 200 0 200 c 1
 0 145 20 98 59 59 c 0
 98 20 145 0 200 0 c 1
 200 0 200 -99 200 -99 c 1
 200 -99 300 -99 300 -99 c 1
 300 -99 300 0 300 0 c 1
 300 0 500 0 500 0 c 1
 500 0 500 100 500 100 c 1
200 100 m 1
 173 100 149 110 130 130 c 0
 110 149 100 173 100 200 c 2
 100 200 100 300 100 300 c 1
 100 300 100 300 100 300 c 1
 100 327 110 351 130 371 c 0
 149 390 173 400 200 400 c 1
 200 400 200 100 200 100 c 1
 200 100 200 100 200 100 c 1
EndSplineSet
Validated: 5
EndChar

StartChar: sterling
Encoding: 163 163 99
Width: 600
Flags: W
LayerCount: 2
Fore
SplineSet
400 200 m 1
 400 200 400 200 400 200 c 1
 400 176 389 153 368 132 c 0
 347 111 324 100 300 100 c 2
 300 100 100 100 100 100 c 1
 100 100 100 400 100 400 c 1
 100 400 300 400 300 400 c 1
 300 400 300 500 300 500 c 1
 300 500 100 500 100 500 c 1
 100 500 100 600 100 600 c 1
 100 600 100 600 100 600 c 1
 100 627 110 651 130 671 c 0
 149 690 173 700 200 700 c 1
 200 700 200 700 200 700 c 1
 227 700 251 690 271 671 c 0
 290 651 300 627 300 600 c 1
 300 600 400 600 400 600 c 1
 400 600 400 600 400 600 c 1
 400 655 380 702 341 741 c 0
 302 780 255 800 200 800 c 1
 200 800 200 800 200 800 c 1
 145 800 98 780 59 741 c 0
 20 702 0 655 0 600 c 2
 0 600 0 0 0 0 c 1
 0 0 300 0 300 0 c 1
 300 0 300 0 300 0 c 1
 352 0 398 20 439 61 c 0
 480 102 500 148 500 200 c 1
 500 200 400 200 400 200 c 1
EndSplineSet
Validated: 5
EndChar

StartChar: currency
Encoding: 164 164 100
Width: 600
Flags: W
LayerCount: 2
Fore
SplineSet
385 185 m 1
 385 185 385 185 385 185 c 1
 395 205 400 227 400 250 c 1
 400 250 400 250 400 250 c 1
 400 273 395 295 385 315 c 1
 385 315 500 429 500 429 c 1
 500 429 429 500 429 500 c 1
 429 500 315 385 315 385 c 1
 315 385 315 385 315 385 c 1
 295 395 273 400 250 400 c 1
 250 400 250 400 250 400 c 1
 227 400 205 395 185 385 c 1
 185 385 71 500 71 500 c 1
 71 500 0 429 0 429 c 1
 0 429 115 315 115 315 c 1
 115 315 115 315 115 315 c 1
 105 295 100 273 100 250 c 1
 100 250 100 250 100 250 c 1
 100 227 105 205 115 185 c 1
 115 185 0 71 0 71 c 1
 0 71 71 0 71 0 c 1
 71 0 185 115 185 115 c 1
 185 115 185 115 185 115 c 1
 205 105 227 100 250 100 c 1
 250 100 250 100 250 100 c 1
 273 100 295 105 315 115 c 1
 315 115 429 0 429 0 c 1
 429 0 500 71 500 71 c 1
 500 71 385 185 385 185 c 1
300 250 m 1
 300 236 295 224 286 215 c 0
 276 205 264 200 250 200 c 1
 250 200 250 200 250 200 c 1
 236 200 224 205 215 215 c 0
 205 224 200 236 200 250 c 1
 200 250 200 250 200 250 c 1
 200 264 205 276 215 286 c 0
 224 295 236 300 250 300 c 1
 250 300 250 300 250 300 c 1
 264 300 276 295 286 286 c 0
 295 276 300 264 300 250 c 1
 300 250 300 250 300 250 c 1
EndSplineSet
Validated: 5
EndChar

StartChar: yen
Encoding: 165 165 101
Width: 600
Flags: W
LayerCount: 2
Fore
SplineSet
469 719 m 1
 469 719 269 519 269 519 c 1
 269 519 69 719 69 719 c 1
 69 719 0 650 0 650 c 1
 0 650 150 500 150 500 c 1
 150 500 19 500 19 500 c 1
 19 500 19 400 19 400 c 1
 19 400 219 400 219 400 c 1
 219 400 219 300 219 300 c 1
 219 300 19 300 19 300 c 1
 19 300 19 200 19 200 c 1
 19 200 219 200 219 200 c 1
 219 200 219 0 219 0 c 1
 219 0 319 0 319 0 c 1
 319 0 319 200 319 200 c 1
 319 200 519 200 519 200 c 1
 519 200 519 300 519 300 c 1
 519 300 319 300 319 300 c 1
 319 300 319 400 319 400 c 1
 319 400 519 400 519 400 c 1
 519 400 519 500 519 500 c 1
 519 500 387 500 387 500 c 1
 387 500 537 650 537 650 c 1
 537 650 469 719 469 719 c 1
EndSplineSet
Validated: 9
EndChar

StartChar: brokenbar
Encoding: 166 166 102
Width: 600
Flags: W
LayerCount: 2
Fore
SplineSet
300 800 m 1
 300 800 200 800 200 800 c 1
 200 800 200 400 200 400 c 1
 200 400 300 400 300 400 c 1
 300 400 300 800 300 800 c 1
300 300 m 1
 300 300 200 300 200 300 c 1
 200 300 200 -99 200 -99 c 1
 200 -99 300 -99 300 -99 c 1
 300 -99 300 300 300 300 c 1
EndSplineSet
Validated: 9
EndChar

StartChar: section
Encoding: 167 167 103
Width: 600
Flags: W
LayerCount: 2
Fore
SplineSet
500 369 m 1
 500 369 144 726 144 726 c 1
 144 726 144 726 144 726 c 1
 140 733 138 741 138 750 c 1
 138 750 138 750 138 750 c 1
 138 764 143 776 153 786 c 0
 162 795 174 800 188 800 c 2
 188 800 300 800 300 800 c 1
 300 800 300 800 300 800 c 1
 327 800 351 790 371 771 c 0
 390 751 400 727 400 700 c 2
 400 700 400 600 400 600 c 1
 400 600 500 600 500 600 c 1
 500 600 500 600 500 600 c 1
 501 599 501 632 500 700 c 1
 500 700 500 700 500 700 c 1
 500 755 481 803 442 842 c 0
 403 881 355 900 300 900 c 2
 300 900 200 900 200 900 c 1
 200 900 200 900 200 900 c 1
 161 900 122 882 85 845 c 0
 47 808 28 771 28 734 c 1
 28 734 28 734 28 734 c 1
 28 713 35 695 50 680 c 2
 50 680 400 331 400 331 c 1
 400 331 400 200 400 200 c 1
 400 200 500 200 500 200 c 1
 500 200 500 369 500 369 c 1
100 469 m 1
 100 469 100 600 100 600 c 1
 100 600 0 600 0 600 c 1
 0 600 0 431 0 431 c 1
 0 431 357 74 357 74 c 1
 357 74 357 74 357 74 c 1
 361 67 363 59 363 50 c 1
 363 50 363 50 363 50 c 1
 363 36 358 24 348 15 c 0
 338 5 326 0 313 0 c 2
 313 0 200 0 200 0 c 1
 200 0 200 0 200 0 c 1
 173 0 149 10 130 30 c 0
 110 49 100 73 100 100 c 2
 100 100 100 200 100 200 c 1
 100 200 0 200 0 200 c 1
 0 200 0 100 0 100 c 1
 0 100 0 100 0 100 c 1
 0 45 20 -1 59 -40 c 0
 98 -79 145 -99 200 -99 c 2
 200 -99 300 -99 300 -99 c 1
 300 -99 300 -99 300 -99 c 1
 339 -99 378 -81 416 -44 c 0
 453 -8 472 29 472 66 c 1
 472 66 472 66 472 66 c 1
 472 87 465 105 450 120 c 2
 450 120 100 469 100 469 c 1
EndSplineSet
Validated: 37
EndChar

StartChar: dieresis
Encoding: 168 168 104
Width: 600
Flags: W
LayerCount: 2
Fore
SplineSet
400 650 m 1
 400 664 395 676 386 686 c 0
 376 695 364 700 350 700 c 1
 350 700 350 700 350 700 c 1
 336 700 324 695 315 686 c 0
 305 676 300 664 300 650 c 1
 300 650 300 650 300 650 c 1
 300 636 305 624 315 615 c 0
 324 605 336 600 350 600 c 1
 350 600 350 600 350 600 c 1
 364 600 376 605 386 615 c 0
 395 624 400 636 400 650 c 1
 400 650 400 650 400 650 c 1
200 650 m 1
 200 664 195 676 186 686 c 0
 176 695 164 700 150 700 c 1
 150 700 150 700 150 700 c 1
 136 700 124 695 115 686 c 0
 105 676 100 664 100 650 c 1
 100 650 100 650 100 650 c 1
 100 636 105 624 115 615 c 0
 124 605 136 600 150 600 c 1
 150 600 150 600 150 600 c 1
 164 600 176 605 186 615 c 0
 195 624 200 636 200 650 c 1
 200 650 200 650 200 650 c 1
EndSplineSet
Validated: 5
EndChar

StartChar: copyright
Encoding: 169 169 105
Width: 600
Flags: W
LayerCount: 2
Fore
SplineSet
500 350 m 1
 500 447 466 529 398 598 c 0
 329 666 247 700 150 700 c 1
 150 700 150 700 150 700 c 1
 97 700 47 689 0 666 c 1
 0 666 0 550 0 550 c 1
 0 550 0 550 0 550 c 1
 45 583 95 600 150 600 c 1
 150 600 150 600 150 600 c 1
 219 600 278 576 327 527 c 0
 376 478 400 419 400 350 c 1
 400 350 400 350 400 350 c 1
 400 281 376 222 327 173 c 0
 278 124 219 100 150 100 c 1
 150 100 150 100 150 100 c 1
 94 100 44 117 0 150 c 1
 0 150 0 34 0 34 c 1
 0 34 0 34 0 34 c 1
 47 11 97 0 150 0 c 1
 150 0 150 0 150 0 c 1
 247 0 329 34 398 103 c 0
 466 171 500 253 500 350 c 1
 500 350 500 350 500 350 c 1
300 300 m 1
 300 300 150 300 150 300 c 1
 150 300 150 300 150 300 c 1
 136 300 124 305 115 315 c 0
 105 324 100 336 100 350 c 1
 100 350 100 350 100 350 c 1
 100 364 105 376 115 386 c 0
 124 395 136 400 150 400 c 2
 150 400 300 400 300 400 c 1
 300 400 300 500 300 500 c 1
 300 500 150 500 150 500 c 1
 150 500 150 500 150 500 c 1
 109 500 73 485 44 456 c 0
 15 427 0 391 0 350 c 1
 0 350 0 350 0 350 c 1
 0 309 15 273 44 244 c 0
 73 215 109 200 150 200 c 2
 150 200 300 200 300 200 c 1
 300 200 300 300 300 300 c 1
EndSplineSet
Validated: 5
EndChar

StartChar: ordfeminine
Encoding: 170 170 106
Width: 600
Flags: W
LayerCount: 2
Fore
SplineSet
500 900 m 1
 500 900 300 900 300 900 c 1
 300 900 300 900 300 900 c 1
 245 900 198 880 159 841 c 0
 120 802 100 755 100 700 c 1
 100 700 100 700 100 700 c 1
 100 645 120 598 159 559 c 0
 198 520 245 500 300 500 c 2
 300 500 500 500 500 500 c 1
 500 500 500 900 500 900 c 1
500 400 m 1
 500 400 100 400 100 400 c 1
 100 400 100 300 100 300 c 1
 100 300 500 300 500 300 c 1
 500 300 500 400 500 400 c 1
300 600 m 1
 300 600 300 600 300 600 c 1
 273 600 249 610 230 630 c 0
 210 649 200 673 200 700 c 1
 200 700 200 700 200 700 c 1
 200 727 210 751 230 771 c 0
 249 790 273 800 300 800 c 2
 300 800 400 800 400 800 c 1
 400 800 400 600 400 600 c 1
 400 600 300 600 300 600 c 1
EndSplineSet
Validated: 5
EndChar

StartChar: guillemotleft
Encoding: 171 171 107
Width: 600
Flags: W
LayerCount: 2
Fore
SplineSet
406 200 m 1
 406 200 490 391 490 391 c 1
 490 391 398 430 398 430 c 1
 398 430 300 200 300 200 c 1
 300 200 398 -29 398 -29 c 1
 398 -29 490 9 490 9 c 1
 490 9 406 200 406 200 c 1
106 200 m 1
 106 200 190 391 190 391 c 1
 190 391 98 430 98 430 c 1
 98 430 0 200 0 200 c 1
 0 200 98 -29 98 -29 c 1
 98 -29 190 9 190 9 c 1
 190 9 106 200 106 200 c 1
EndSplineSet
Validated: 9
EndChar

StartChar: logicalnot
Encoding: 172 172 108
Width: 600
Flags: W
LayerCount: 2
Fore
SplineSet
500 400 m 1
 500 400 0 400 0 400 c 1
 0 400 0 300 0 300 c 1
 0 300 400 300 400 300 c 1
 400 300 400 100 400 100 c 1
 400 100 500 100 500 100 c 1
 500 100 500 400 500 400 c 1
EndSplineSet
Validated: 9
EndChar

StartChar: Softhyphen
Encoding: 173 173 109
Width: 600
Flags: W
LayerCount: 2
Fore
SplineSet
500 400 m 1
 500 400 0 400 0 400 c 1
 0 400 0 300 0 300 c 1
 0 300 500 300 500 300 c 1
 500 300 500 400 500 400 c 1
EndSplineSet
Validated: 9
EndChar

StartChar: registered
Encoding: 174 174 110
Width: 600
Flags: W
LayerCount: 2
Fore
SplineSet
500 350 m 1
 500 350 500 350 500 350 c 1
 500 447 466 529 398 598 c 0
 329 666 247 700 150 700 c 1
 150 700 150 700 150 700 c 1
 97 700 47 689 0 666 c 1
 0 666 0 550 0 550 c 1
 0 550 0 550 0 550 c 1
 45 583 95 600 150 600 c 1
 150 600 150 600 150 600 c 1
 219 600 278 576 327 527 c 0
 376 478 400 419 400 350 c 2
 400 350 400 313 400 313 c 1
 400 313 400 313 400 313 c 1
 400 282 389 255 367 233 c 0
 345 211 318 200 287 200 c 2
 287 200 271 200 271 200 c 1
 271 200 240 231 240 231 c 1
 240 231 240 231 240 231 c 1
 280 261 300 301 300 350 c 1
 300 350 300 350 300 350 c 1
 300 391 285 427 256 456 c 0
 227 485 191 500 150 500 c 2
 150 500 0 500 0 500 c 1
 0 500 0 100 0 100 c 1
 0 100 100 100 100 100 c 1
 100 100 100 200 100 200 c 1
 100 200 131 200 131 200 c 1
 131 200 230 100 230 100 c 1
 230 100 325 100 325 100 c 1
 325 100 325 100 325 100 c 1
 374 100 415 117 449 151 c 0
 483 185 500 226 500 275 c 2
 500 275 500 350 500 350 c 1
200 350 m 1
 200 336 195 324 186 315 c 0
 176 305 164 300 150 300 c 2
 150 300 100 300 100 300 c 1
 100 300 100 400 100 400 c 1
 100 400 150 400 150 400 c 1
 150 400 150 400 150 400 c 1
 164 400 176 395 186 386 c 0
 195 376 200 364 200 350 c 1
 200 350 200 350 200 350 c 1
EndSplineSet
Validated: 5
EndChar

StartChar: macron
Encoding: 175 175 111
Width: 600
Flags: W
LayerCount: 2
Fore
SplineSet
400 700 m 1
 400 700 100 700 100 700 c 1
 100 700 100 600 100 600 c 1
 100 600 400 600 400 600 c 1
 400 600 400 700 400 700 c 1
EndSplineSet
Validated: 9
EndChar

StartChar: degree
Encoding: 176 176 112
Width: 600
Flags: W
LayerCount: 2
Fore
SplineSet
500 600 m 1
 500 655 480 702 441 741 c 0
 402 780 355 800 300 800 c 1
 300 800 300 800 300 800 c 1
 245 800 198 781 159 742 c 0
 120 703 100 655 100 600 c 1
 100 600 100 600 100 600 c 1
 100 545 120 498 159 459 c 0
 198 420 245 400 300 400 c 1
 300 400 300 400 300 400 c 1
 355 400 403 420 442 459 c 0
 481 498 500 545 500 600 c 1
 500 600 500 600 500 600 c 1
400 600 m 1
 400 573 390 549 371 530 c 0
 351 510 327 500 300 500 c 1
 300 500 300 500 300 500 c 1
 273 500 249 510 230 530 c 0
 210 549 200 573 200 600 c 1
 200 600 200 600 200 600 c 1
 200 627 210 651 230 671 c 0
 249 690 273 700 300 700 c 1
 300 700 300 700 300 700 c 1
 327 700 351 690 371 671 c 0
 390 651 400 627 400 600 c 1
 400 600 400 600 400 600 c 1
EndSplineSet
Validated: 5
EndChar

StartChar: plusminus
Encoding: 177 177 113
Width: 600
Flags: W
LayerCount: 2
Fore
SplineSet
500 100 m 1
 500 100 300 100 300 100 c 1
 300 100 300 300 300 300 c 1
 300 300 500 300 500 300 c 1
 500 300 500 400 500 400 c 1
 500 400 300 400 300 400 c 1
 300 400 300 600 300 600 c 1
 300 600 200 600 200 600 c 1
 200 600 200 400 200 400 c 1
 200 400 0 400 0 400 c 1
 0 400 0 300 0 300 c 1
 0 300 200 300 200 300 c 1
 200 300 200 100 200 100 c 1
 200 100 0 100 0 100 c 1
 0 100 0 0 0 0 c 1
 0 0 500 0 500 0 c 1
 500 0 500 100 500 100 c 1
EndSplineSet
Validated: 9
EndChar

StartChar: Superscripttwo
Encoding: 178 178 114
Width: 600
Flags: W
LayerCount: 2
Fore
SplineSet
389 754 m 1
 396 768 400 783 400 800 c 1
 400 800 400 800 400 800 c 1
 400 827 390 851 371 871 c 0
 351 890 327 900 300 900 c 2
 300 900 250 900 250 900 c 1
 250 900 250 900 250 900 c 1
 223 900 199 890 180 871 c 0
 160 851 150 827 150 800 c 1
 150 800 200 800 200 800 c 1
 200 800 200 800 200 800 c 1
 200 814 205 826 215 836 c 0
 224 845 236 850 250 850 c 2
 250 850 300 850 300 850 c 1
 300 850 300 850 300 850 c 1
 314 850 326 845 336 836 c 0
 345 826 350 814 350 800 c 1
 350 800 350 800 350 800 c 1
 350 793 349 787 346 781 c 2
 346 781 150 584 150 584 c 1
 150 584 150 550 150 550 c 1
 150 550 400 550 400 550 c 1
 400 550 400 600 400 600 c 1
 400 600 234 600 234 600 c 1
 234 600 389 754 389 754 c 1
 389 754 389 754 389 754 c 1
EndSplineSet
Validated: 5
EndChar

StartChar: Superscriptthree
Encoding: 179 179 115
Width: 600
Flags: W
LayerCount: 2
Fore
SplineSet
150 650 m 1
 150 650 150 650 150 650 c 1
 150 623 160 599 180 580 c 0
 199 560 223 550 250 550 c 2
 250 550 300 550 300 550 c 1
 300 550 300 550 300 550 c 1
 327 550 351 560 371 580 c 0
 390 599 400 623 400 650 c 1
 400 650 400 650 400 650 c 1
 400 680 386 705 358 725 c 1
 358 725 358 725 358 725 c 1
 386 745 400 770 400 800 c 1
 400 800 400 800 400 800 c 1
 400 827 390 851 371 871 c 0
 351 890 327 900 300 900 c 2
 300 900 250 900 250 900 c 1
 250 900 250 900 250 900 c 1
 223 900 199 890 180 871 c 0
 160 851 150 827 150 800 c 1
 150 800 200 800 200 800 c 1
 200 800 200 800 200 800 c 1
 200 814 205 826 215 836 c 0
 224 845 236 850 250 850 c 2
 250 850 300 850 300 850 c 1
 300 850 300 850 300 850 c 1
 314 850 326 845 336 836 c 0
 345 826 350 814 350 800 c 1
 350 800 350 800 350 800 c 1
 350 786 345 774 336 765 c 0
 326 755 314 750 300 750 c 2
 300 750 250 750 250 750 c 1
 250 750 250 700 250 700 c 1
 250 700 300 700 300 700 c 1
 300 700 300 700 300 700 c 1
 314 700 326 695 336 686 c 0
 345 676 350 664 350 650 c 1
 350 650 350 650 350 650 c 1
 350 636 345 624 336 615 c 0
 326 605 314 600 300 600 c 2
 300 600 250 600 250 600 c 1
 250 600 250 600 250 600 c 1
 236 600 224 605 215 615 c 0
 205 624 200 636 200 650 c 1
 200 650 150 650 150 650 c 1
EndSplineSet
Validated: 5
EndChar

StartChar: acute
Encoding: 180 180 116
Width: 600
Flags: W
LayerCount: 2
Fore
SplineSet
424 750 m 1
 424 750 355 819 355 819 c 1
 355 819 192 656 192 656 c 1
 192 656 261 588 261 588 c 1
 261 588 424 750 424 750 c 1
EndSplineSet
Validated: 9
EndChar

StartChar: mu
Encoding: 181 181 117
Width: 600
Flags: W
LayerCount: 2
Fore
SplineSet
500 100 m 1
 500 100 500 100 500 100 c 1
 473 100 449 110 430 130 c 0
 410 149 400 173 400 200 c 2
 400 200 400 500 400 500 c 1
 400 500 300 500 300 500 c 1
 300 500 300 200 300 200 c 1
 300 200 300 200 300 200 c 1
 300 173 290 149 271 130 c 0
 251 110 227 100 200 100 c 2
 200 100 100 100 100 100 c 1
 100 100 100 500 100 500 c 1
 100 500 0 500 0 500 c 1
 0 500 0 -199 0 -199 c 1
 0 -199 100 -199 100 -199 c 1
 100 -199 100 0 100 0 c 1
 100 0 200 0 200 0 c 1
 200 0 200 0 200 0 c 1
 261 0 311 23 350 68 c 1
 350 68 350 68 350 68 c 1
 390 23 440 0 500 0 c 1
 500 0 500 100 500 100 c 1
EndSplineSet
Validated: 5
EndChar

StartChar: paragraph
Encoding: 182 182 118
Width: 600
Flags: W
LayerCount: 2
Fore
SplineSet
500 800 m 1
 500 800 250 800 250 800 c 1
 250 800 250 800 250 800 c 1
 181 800 122 776 73 727 c 0
 24 678 0 619 0 550 c 1
 0 550 0 550 0 550 c 1
 0 490 19 437 57 391 c 0
 95 345 143 316 200 305 c 1
 200 305 200 0 200 0 c 1
 200 0 300 0 300 0 c 1
 300 0 300 300 300 300 c 1
 300 300 400 300 400 300 c 1
 400 300 400 0 400 0 c 1
 400 0 500 0 500 0 c 1
 500 0 500 800 500 800 c 1
300 400 m 1
 300 400 300 700 300 700 c 1
 300 700 400 700 400 700 c 1
 400 700 400 400 400 400 c 1
 400 400 300 400 300 400 c 1
200 409 m 1
 171 419 147 437 128 463 c 0
 109 489 100 518 100 550 c 1
 100 550 100 550 100 550 c 1
 100 582 109 611 128 637 c 0
 147 662 171 680 200 691 c 1
 200 691 200 409 200 409 c 1
 200 409 200 409 200 409 c 1
EndSplineSet
Validated: 5
EndChar

StartChar: periodcentered
Encoding: 183 183 119
Width: 600
Flags: W
LayerCount: 2
Fore
SplineSet
400 325 m 1
 400 352 390 376 371 396 c 0
 351 415 327 425 300 425 c 1
 300 425 300 425 300 425 c 1
 273 425 249 415 230 396 c 0
 210 376 200 352 200 325 c 1
 200 325 200 325 200 325 c 1
 200 298 210 274 230 255 c 0
 249 235 273 225 300 225 c 1
 300 225 300 225 300 225 c 1
 327 225 351 235 371 255 c 0
 390 274 400 298 400 325 c 1
 400 325 400 325 400 325 c 1
EndSplineSet
Validated: 5
EndChar

StartChar: cedilla
Encoding: 184 184 120
Width: 600
Flags: W
LayerCount: 2
Fore
SplineSet
300 -55 m 1
 300 -55 300 100 300 100 c 1
 300 100 100 100 100 100 c 1
 100 100 100 0 100 0 c 1
 100 0 200 0 200 0 c 1
 200 0 200 -18 200 -18 c 1
 200 -18 87 -130 87 -130 c 1
 87 -130 156 -199 156 -199 c 1
 156 -199 300 -55 300 -55 c 1
EndSplineSet
Validated: 9
EndChar

StartChar: Superscriptone
Encoding: 185 185 121
Width: 600
Flags: W
LayerCount: 2
Fore
SplineSet
400 600 m 1
 400 600 300 600 300 600 c 1
 300 600 300 900 300 900 c 1
 300 900 250 900 250 900 c 1
 250 900 250 900 250 900 c 1
 250 886 245 874 236 865 c 0
 226 855 214 850 200 850 c 2
 200 850 175 850 175 850 c 1
 175 850 175 800 175 800 c 1
 175 800 250 800 250 800 c 1
 250 800 250 600 250 600 c 1
 250 600 150 600 150 600 c 1
 150 600 150 550 150 550 c 1
 150 550 400 550 400 550 c 1
 400 550 400 600 400 600 c 1
EndSplineSet
Validated: 5
EndChar

StartChar: ordmasculine
Encoding: 186 186 122
Width: 600
Flags: W
LayerCount: 2
Fore
SplineSet
500 700 m 1
 500 755 480 802 441 841 c 0
 402 880 355 900 300 900 c 1
 300 900 300 900 300 900 c 1
 245 900 198 881 159 842 c 0
 120 803 100 755 100 700 c 1
 100 700 100 700 100 700 c 1
 100 645 120 598 159 559 c 0
 198 520 245 500 300 500 c 1
 300 500 300 500 300 500 c 1
 355 500 403 520 442 559 c 0
 481 598 500 645 500 700 c 1
 500 700 500 700 500 700 c 1
500 400 m 1
 500 400 100 400 100 400 c 1
 100 400 100 300 100 300 c 1
 100 300 500 300 500 300 c 1
 500 300 500 400 500 400 c 1
400 700 m 1
 400 673 390 649 371 630 c 0
 351 610 327 600 300 600 c 1
 300 600 300 600 300 600 c 1
 273 600 249 610 230 630 c 0
 210 649 200 673 200 700 c 1
 200 700 200 700 200 700 c 1
 200 727 210 751 230 771 c 0
 249 790 273 800 300 800 c 1
 300 800 300 800 300 800 c 1
 327 800 351 790 371 771 c 0
 390 751 400 727 400 700 c 1
 400 700 400 700 400 700 c 1
EndSplineSet
Validated: 5
EndChar

StartChar: guillemotright
Encoding: 187 187 123
Width: 600
Flags: W
LayerCount: 2
Fore
SplineSet
402 430 m 1
 402 430 310 391 310 391 c 1
 310 391 394 200 394 200 c 1
 394 200 310 9 310 9 c 1
 310 9 402 -29 402 -29 c 1
 402 -29 500 200 500 200 c 1
 500 200 402 430 402 430 c 1
102 430 m 1
 102 430 10 391 10 391 c 1
 10 391 94 200 94 200 c 1
 94 200 10 9 10 9 c 1
 10 9 102 -29 102 -29 c 1
 102 -29 200 200 200 200 c 1
 200 200 102 430 102 430 c 1
EndSplineSet
Validated: 9
EndChar

StartChar: onequarter
Encoding: 188 188 124
Width: 600
Flags: W
LayerCount: 2
Fore
SplineSet
300 600 m 1
 300 600 200 600 200 600 c 1
 200 600 200 900 200 900 c 1
 200 900 150 900 150 900 c 1
 150 900 150 900 150 900 c 1
 150 886 145 874 136 865 c 0
 126 855 114 850 100 850 c 2
 100 850 75 850 75 850 c 1
 75 850 75 800 75 800 c 1
 75 800 150 800 150 800 c 1
 150 800 150 600 150 600 c 1
 150 600 50 600 50 600 c 1
 50 600 50 550 50 550 c 1
 50 550 300 550 300 550 c 1
 300 550 300 600 300 600 c 1
565 688 m 1
 565 688 0 123 0 123 c 1
 0 123 35 88 35 88 c 1
 35 88 600 653 600 653 c 1
 600 653 565 688 565 688 c 1
300 184 m 1
 300 184 300 100 300 100 c 1
 300 100 450 100 450 100 c 1
 450 100 450 50 450 50 c 1
 450 50 400 50 400 50 c 1
 400 50 400 0 400 0 c 1
 400 0 550 0 550 0 c 1
 550 0 550 50 550 50 c 1
 550 50 500 50 500 50 c 1
 500 50 500 100 500 100 c 1
 500 100 550 100 550 100 c 1
 550 100 550 150 550 150 c 1
 550 150 500 150 500 150 c 1
 500 150 500 350 500 350 c 1
 500 350 466 350 466 350 c 1
 466 350 300 184 300 184 c 1
450 266 m 1
 450 266 450 150 450 150 c 1
 450 150 350 150 350 150 c 1
 350 150 350 166 350 166 c 1
 350 166 450 266 450 266 c 1
EndSplineSet
Validated: 5
EndChar

StartChar: onehalf
Encoding: 189 189 125
Width: 600
Flags: W
LayerCount: 2
Fore
SplineSet
300 600 m 1
 300 600 200 600 200 600 c 1
 200 600 200 900 200 900 c 1
 200 900 150 900 150 900 c 1
 150 900 150 900 150 900 c 1
 150 886 145 874 136 865 c 0
 126 855 114 850 100 850 c 2
 100 850 75 850 75 850 c 1
 75 850 75 800 75 800 c 1
 75 800 150 800 150 800 c 1
 150 800 150 600 150 600 c 1
 150 600 50 600 50 600 c 1
 50 600 50 550 50 550 c 1
 50 550 300 550 300 550 c 1
 300 550 300 600 300 600 c 1
565 688 m 1
 565 688 0 123 0 123 c 1
 0 123 35 88 35 88 c 1
 35 88 600 653 600 653 c 1
 600 653 565 688 565 688 c 1
539 204 m 1
 546 218 550 233 550 250 c 1
 550 250 550 250 550 250 c 1
 550 277 540 301 521 321 c 0
 501 340 477 350 450 350 c 2
 450 350 400 350 400 350 c 1
 400 350 400 350 400 350 c 1
 373 350 349 340 330 321 c 0
 310 301 300 277 300 250 c 1
 300 250 350 250 350 250 c 1
 350 250 350 250 350 250 c 1
 350 264 355 276 365 286 c 0
 374 295 386 300 400 300 c 2
 400 300 450 300 450 300 c 1
 450 300 450 300 450 300 c 1
 464 300 476 295 486 286 c 0
 495 276 500 264 500 250 c 1
 500 250 500 250 500 250 c 1
 500 243 499 237 496 231 c 2
 496 231 300 34 300 34 c 1
 300 34 300 0 300 0 c 1
 300 0 550 0 550 0 c 1
 550 0 550 50 550 50 c 1
 550 50 384 50 384 50 c 1
 384 50 539 204 539 204 c 1
 539 204 539 204 539 204 c 1
EndSplineSet
Validated: 5
EndChar

StartChar: threequarters
Encoding: 190 190 126
Width: 600
Flags: W
LayerCount: 2
Fore
SplineSet
50 650 m 1
 50 650 50 650 50 650 c 1
 50 623 60 599 80 580 c 0
 99 560 123 550 150 550 c 2
 150 550 200 550 200 550 c 1
 200 550 200 550 200 550 c 1
 227 550 251 560 271 580 c 0
 290 599 300 623 300 650 c 1
 300 650 300 650 300 650 c 1
 300 680 286 705 258 725 c 1
 258 725 258 725 258 725 c 1
 286 745 300 770 300 800 c 1
 300 800 300 800 300 800 c 1
 300 827 290 851 271 871 c 0
 251 890 227 900 200 900 c 2
 200 900 150 900 150 900 c 1
 150 900 150 900 150 900 c 1
 123 900 99 890 80 871 c 0
 60 851 50 827 50 800 c 1
 50 800 100 800 100 800 c 1
 100 800 100 800 100 800 c 1
 100 814 105 826 115 836 c 0
 124 845 136 850 150 850 c 2
 150 850 200 850 200 850 c 1
 200 850 200 850 200 850 c 1
 214 850 226 845 236 836 c 0
 245 826 250 814 250 800 c 1
 250 800 250 800 250 800 c 1
 250 786 245 774 236 765 c 0
 226 755 214 750 200 750 c 2
 200 750 150 750 150 750 c 1
 150 750 150 700 150 700 c 1
 150 700 200 700 200 700 c 1
 200 700 200 700 200 700 c 1
 214 700 226 695 236 686 c 0
 245 676 250 664 250 650 c 1
 250 650 250 650 250 650 c 1
 250 636 245 624 236 615 c 0
 226 605 214 600 200 600 c 2
 200 600 150 600 150 600 c 1
 150 600 150 600 150 600 c 1
 136 600 124 605 115 615 c 0
 105 624 100 636 100 650 c 1
 100 650 50 650 50 650 c 1
565 688 m 1
 565 688 0 123 0 123 c 1
 0 123 35 88 35 88 c 1
 35 88 600 653 600 653 c 1
 600 653 565 688 565 688 c 1
300 184 m 1
 300 184 300 100 300 100 c 1
 300 100 450 100 450 100 c 1
 450 100 450 50 450 50 c 1
 450 50 400 50 400 50 c 1
 400 50 400 0 400 0 c 1
 400 0 550 0 550 0 c 1
 550 0 550 50 550 50 c 1
 550 50 500 50 500 50 c 1
 500 50 500 100 500 100 c 1
 500 100 550 100 550 100 c 1
 550 100 550 150 550 150 c 1
 550 150 500 150 500 150 c 1
 500 150 500 350 500 350 c 1
 500 350 466 350 466 350 c 1
 466 350 300 184 300 184 c 1
450 266 m 1
 450 266 450 150 450 150 c 1
 450 150 350 150 350 150 c 1
 350 150 350 166 350 166 c 1
 350 166 450 266 450 266 c 1
EndSplineSet
Validated: 5
EndChar

StartChar: questiondown
Encoding: 191 191 127
Width: 600
Flags: W
LayerCount: 2
Fore
SplineSet
300 650 m 1
 300 664 295 676 286 686 c 0
 276 695 264 700 250 700 c 1
 250 700 250 700 250 700 c 1
 236 700 224 695 215 686 c 0
 205 676 200 664 200 650 c 1
 200 650 200 650 200 650 c 1
 200 636 205 624 215 615 c 0
 224 605 236 600 250 600 c 1
 250 600 250 600 250 600 c 1
 264 600 276 605 286 615 c 0
 295 624 300 636 300 650 c 1
 300 650 300 650 300 650 c 1
400 200 m 1
 400 200 400 200 400 200 c 1
 400 173 390 149 371 130 c 0
 351 110 327 100 300 100 c 2
 300 100 200 100 200 100 c 1
 200 100 200 100 200 100 c 1
 173 100 149 110 130 130 c 0
 110 149 100 173 100 200 c 1
 100 200 100 200 100 200 c 1
 100 215 102 227 107 237 c 2
 107 237 300 431 300 431 c 1
 300 431 300 500 300 500 c 1
 300 500 231 500 231 500 c 1
 231 500 22 292 22 292 c 1
 22 292 22 292 22 292 c 1
 7 264 0 233 0 200 c 1
 0 200 0 200 0 200 c 1
 0 145 20 98 59 59 c 0
 98 20 145 0 200 0 c 2
 200 0 300 0 300 0 c 1
 300 0 300 0 300 0 c 1
 355 0 402 20 441 59 c 0
 480 98 500 145 500 200 c 1
 500 200 400 200 400 200 c 1
EndSplineSet
Validated: 5
EndChar

StartChar: Agrave
Encoding: 192 192 128
Width: 600
Flags: W
LayerCount: 2
Fore
SplineSet
188 700 m 1
 188 700 0 325 0 325 c 1
 0 325 0 0 0 0 c 1
 0 0 100 0 100 0 c 1
 100 0 100 200 100 200 c 1
 100 200 400 200 400 200 c 1
 400 200 400 0 400 0 c 1
 400 0 500 0 500 0 c 1
 500 0 500 325 500 325 c 1
 500 325 313 700 313 700 c 1
 313 700 275 700 275 700 c 1
 275 700 312 738 312 738 c 1
 312 738 150 900 150 900 c 1
 150 900 81 831 81 831 c 1
 81 831 213 700 213 700 c 1
 213 700 188 700 188 700 c 1
400 300 m 1
 400 300 100 300 100 300 c 1
 100 300 250 600 250 600 c 1
 250 600 400 300 400 300 c 1
EndSplineSet
Validated: 9
EndChar

StartChar: Aacute
Encoding: 193 193 129
Width: 600
Flags: W
LayerCount: 2
Fore
SplineSet
419 831 m 1
 419 831 350 900 350 900 c 1
 350 900 188 738 188 738 c 1
 188 738 225 700 225 700 c 1
 225 700 188 700 188 700 c 1
 188 700 0 325 0 325 c 1
 0 325 0 0 0 0 c 1
 0 0 100 0 100 0 c 1
 100 0 100 200 100 200 c 1
 100 200 400 200 400 200 c 1
 400 200 400 0 400 0 c 1
 400 0 500 0 500 0 c 1
 500 0 500 325 500 325 c 1
 500 325 313 700 313 700 c 1
 313 700 288 700 288 700 c 1
 288 700 419 831 419 831 c 1
400 300 m 1
 400 300 100 300 100 300 c 1
 100 300 250 600 250 600 c 1
 250 600 400 300 400 300 c 1
EndSplineSet
Validated: 9
EndChar

StartChar: Acircumflex
Encoding: 194 194 130
Width: 600
Flags: W
LayerCount: 2
Fore
SplineSet
400 200 m 1
 400 200 400 0 400 0 c 1
 400 0 500 0 500 0 c 1
 500 0 500 325 500 325 c 1
 500 325 313 700 313 700 c 1
 330 683 344 669 344 669 c 1
 344 669 413 738 413 738 c 1
 413 738 250 900 250 900 c 1
 250 900 87 738 87 738 c 1
 87 738 156 669 156 669 c 1
 156 669 250 763 250 763 c 1
 250 763 286 727 313 700 c 1
 313 700 188 700 188 700 c 1
 188 700 0 325 0 325 c 1
 0 325 0 0 0 0 c 1
 0 0 100 0 100 0 c 1
 100 0 100 200 100 200 c 1
 100 200 400 200 400 200 c 1
400 300 m 1
 400 300 100 300 100 300 c 1
 100 300 250 600 250 600 c 1
 250 600 400 300 400 300 c 1
EndSplineSet
Validated: 5
EndChar

StartChar: Atilde
Encoding: 195 195 131
Width: 600
Flags: W
LayerCount: 2
Fore
SplineSet
500 900 m 1
 500 900 400 900 400 900 c 1
 400 900 400 850 400 850 c 1
 400 850 400 850 400 850 c 1
 400 836 395 824 386 815 c 0
 376 805 364 800 350 800 c 1
 350 800 350 800 350 800 c 1
 325 800 292 821 250 863 c 1
 250 863 250 863 250 863 c 1
 225 888 192 900 150 900 c 1
 150 900 150 900 150 900 c 1
 109 900 73 885 44 856 c 0
 15 827 0 791 0 750 c 2
 0 750 0 700 0 700 c 1
 0 700 100 700 100 700 c 1
 100 700 100 750 100 750 c 1
 100 750 100 750 100 750 c 1
 100 764 105 776 115 786 c 0
 124 795 136 800 150 800 c 1
 150 800 150 800 150 800 c 1
 175 800 209 779 250 738 c 1
 250 738 250 738 250 738 c 1
 275 713 309 700 350 700 c 1
 350 700 350 700 350 700 c 1
 391 700 427 715 456 744 c 0
 485 773 500 809 500 850 c 2
 500 850 500 900 500 900 c 1
400 200 m 1
 400 200 400 0 400 0 c 1
 400 0 500 0 500 0 c 1
 500 0 500 325 500 325 c 1
 500 325 313 700 313 700 c 1
 313 700 188 700 188 700 c 1
 188 700 0 325 0 325 c 1
 0 325 0 0 0 0 c 1
 0 0 100 0 100 0 c 1
 100 0 100 200 100 200 c 1
 100 200 400 200 400 200 c 1
400 300 m 1
 400 300 100 300 100 300 c 1
 100 300 250 600 250 600 c 1
 250 600 400 300 400 300 c 1
EndSplineSet
Validated: 5
EndChar

StartChar: Adieresis
Encoding: 196 196 132
Width: 600
Flags: W
LayerCount: 2
Fore
SplineSet
400 850 m 1
 400 864 395 876 386 886 c 0
 376 895 364 900 350 900 c 1
 350 900 350 900 350 900 c 1
 336 900 324 895 315 886 c 0
 305 876 300 864 300 850 c 1
 300 850 300 850 300 850 c 1
 300 836 305 824 315 815 c 0
 324 805 336 800 350 800 c 1
 350 800 350 800 350 800 c 1
 364 800 376 805 386 815 c 0
 395 824 400 836 400 850 c 1
 400 850 400 850 400 850 c 1
200 850 m 1
 200 864 195 876 186 886 c 0
 176 895 164 900 150 900 c 1
 150 900 150 900 150 900 c 1
 136 900 124 895 115 886 c 0
 105 876 100 864 100 850 c 1
 100 850 100 850 100 850 c 1
 100 836 105 824 115 815 c 0
 124 805 136 800 150 800 c 1
 150 800 150 800 150 800 c 1
 164 800 176 805 186 815 c 0
 195 824 200 836 200 850 c 1
 200 850 200 850 200 850 c 1
400 200 m 1
 400 200 400 0 400 0 c 1
 400 0 500 0 500 0 c 1
 500 0 500 325 500 325 c 1
 500 325 313 700 313 700 c 1
 313 700 188 700 188 700 c 1
 188 700 0 325 0 325 c 1
 0 325 0 0 0 0 c 1
 0 0 100 0 100 0 c 1
 100 0 100 200 100 200 c 1
 100 200 400 200 400 200 c 1
400 300 m 1
 400 300 100 300 100 300 c 1
 100 300 250 600 250 600 c 1
 250 600 400 300 400 300 c 1
EndSplineSet
Validated: 5
EndChar

StartChar: Aring
Encoding: 197 197 133
Width: 600
Flags: W
LayerCount: 2
Fore
SplineSet
0 325 m 1
 0 325 0 0 0 0 c 1
 0 0 100 0 100 0 c 1
 100 0 100 200 100 200 c 1
 100 200 400 200 400 200 c 1
 400 200 400 0 400 0 c 1
 400 0 500 0 500 0 c 1
 500 0 500 325 500 325 c 1
 500 325 345 634 345 634 c 1
 345 634 345 634 345 634 c 1
 382 664 400 703 400 750 c 1
 400 750 400 750 400 750 c 1
 400 791 385 827 356 856 c 0
 327 885 291 900 250 900 c 1
 250 900 250 900 250 900 c 1
 209 900 173 885 144 856 c 0
 115 827 100 791 100 750 c 1
 100 750 100 750 100 750 c 1
 100 703 118 664 155 634 c 1
 155 634 0 325 0 325 c 1
200 750 m 1
 200 764 205 776 215 786 c 0
 224 795 236 800 250 800 c 1
 250 800 250 800 250 800 c 1
 264 800 276 795 286 786 c 0
 295 776 300 764 300 750 c 1
 300 750 300 750 300 750 c 1
 300 736 295 724 286 715 c 0
 276 705 264 700 250 700 c 1
 250 700 250 700 250 700 c 1
 236 700 224 705 215 715 c 0
 205 724 200 736 200 750 c 1
 200 750 200 750 200 750 c 1
400 300 m 1
 400 300 100 300 100 300 c 1
 100 300 250 600 250 600 c 1
 250 600 400 300 400 300 c 1
EndSplineSet
Validated: 5
EndChar

StartChar: AE
Encoding: 198 198 134
Width: 600
Flags: W
LayerCount: 2
Fore
SplineSet
500 100 m 1
 500 100 300 100 300 100 c 1
 300 100 300 300 300 300 c 1
 300 300 400 300 400 300 c 1
 400 300 400 400 400 400 c 1
 400 400 300 400 300 400 c 1
 300 400 300 600 300 600 c 1
 300 600 500 600 500 600 c 1
 500 600 500 700 500 700 c 1
 500 700 200 700 200 700 c 1
 200 700 200 700 200 700 c 1
 145 700 98 681 59 642 c 0
 20 603 0 555 0 500 c 2
 0 500 0 0 0 0 c 1
 0 0 100 0 100 0 c 1
 100 0 100 300 100 300 c 1
 100 300 200 300 200 300 c 1
 200 300 200 0 200 0 c 1
 200 0 500 0 500 0 c 1
 500 0 500 100 500 100 c 1
100 400 m 1
 100 400 100 500 100 500 c 1
 100 500 100 500 100 500 c 1
 100 527 110 551 130 571 c 0
 149 590 173 600 200 600 c 1
 200 600 200 400 200 400 c 1
 200 400 100 400 100 400 c 1
EndSplineSet
Validated: 5
EndChar

StartChar: Ccedilla
Encoding: 199 199 135
Width: 600
Flags: W
LayerCount: 2
Fore
SplineSet
400 200 m 1
 400 200 400 200 400 200 c 1
 400 173 390 149 371 130 c 0
 351 110 327 100 300 100 c 2
 300 100 200 100 200 100 c 1
 200 100 200 100 200 100 c 1
 173 100 149 110 130 130 c 0
 110 149 100 173 100 200 c 2
 100 200 100 500 100 500 c 1
 100 500 100 500 100 500 c 1
 100 527 110 551 130 571 c 0
 149 590 173 600 200 600 c 2
 200 600 300 600 300 600 c 1
 300 600 300 600 300 600 c 1
 327 600 351 590 371 571 c 0
 390 551 400 527 400 500 c 1
 400 500 500 500 500 500 c 1
 500 500 500 500 500 500 c 1
 500 555 480 602 441 641 c 0
 402 680 355 700 300 700 c 2
 300 700 200 700 200 700 c 1
 200 700 200 700 200 700 c 1
 145 700 98 680 59 641 c 0
 20 602 0 555 0 500 c 2
 0 500 0 200 0 200 c 1
 0 200 0 200 0 200 c 1
 0 145 20 98 59 59 c 0
 98 20 145 0 200 0 c 2
 200 0 219 0 219 0 c 1
 219 0 87 -130 87 -130 c 1
 87 -130 156 -199 156 -199 c 1
 156 -199 319 -36 319 -36 c 1
 319 -36 281 0 281 0 c 1
 281 0 219 0 219 0 c 1
 219 0 281 0 281 0 c 1
 281 0 300 0 300 0 c 1
 300 0 300 0 300 0 c 1
 355 0 403 20 442 59 c 0
 481 98 500 145 500 200 c 1
 500 200 400 200 400 200 c 1
EndSplineSet
Validated: 5
EndChar

StartChar: Egrave
Encoding: 200 200 136
Width: 600
Flags: W
LayerCount: 2
Fore
SplineSet
313 738 m 1
 313 738 150 900 150 900 c 1
 150 900 81 831 81 831 c 1
 81 831 213 700 213 700 c 1
 213 700 0 700 0 700 c 1
 0 700 0 0 0 0 c 1
 0 0 500 0 500 0 c 1
 500 0 500 100 500 100 c 1
 500 100 100 100 100 100 c 1
 100 100 100 300 100 300 c 1
 100 300 400 300 400 300 c 1
 400 300 400 400 400 400 c 1
 400 400 100 400 100 400 c 1
 100 400 100 600 100 600 c 1
 100 600 500 600 500 600 c 1
 500 600 500 700 500 700 c 1
 500 700 275 700 275 700 c 1
 275 700 313 738 313 738 c 1
EndSplineSet
Validated: 9
EndChar

StartChar: Eacute
Encoding: 201 201 137
Width: 600
Flags: W
LayerCount: 2
Fore
SplineSet
419 825 m 1
 419 825 350 894 350 894 c 1
 350 894 188 731 188 731 c 1
 188 731 219 700 219 700 c 1
 219 700 0 700 0 700 c 1
 0 700 0 0 0 0 c 1
 0 0 500 0 500 0 c 1
 500 0 500 100 500 100 c 1
 500 100 100 100 100 100 c 1
 100 100 100 300 100 300 c 1
 100 300 400 300 400 300 c 1
 400 300 400 400 400 400 c 1
 400 400 100 400 100 400 c 1
 100 400 100 600 100 600 c 1
 100 600 500 600 500 600 c 1
 500 600 500 700 500 700 c 1
 500 700 294 700 294 700 c 1
 294 700 419 825 419 825 c 1
EndSplineSet
Validated: 9
EndChar

StartChar: Ecircumflex
Encoding: 202 202 138
Width: 600
Flags: W
LayerCount: 2
Fore
SplineSet
500 100 m 1
 500 100 100 100 100 100 c 1
 100 100 100 300 100 300 c 1
 100 300 400 300 400 300 c 1
 400 300 400 400 400 400 c 1
 400 400 100 400 100 400 c 1
 100 400 100 600 100 600 c 1
 100 600 500 600 500 600 c 1
 500 600 500 700 500 700 c 1
 500 700 375 700 375 700 c 1
 375 700 412 737 412 737 c 1
 412 737 250 900 250 900 c 1
 250 900 87 737 87 737 c 1
 87 737 125 700 125 700 c 1
 125 700 0 700 0 700 c 1
 0 700 0 0 0 0 c 1
 0 0 500 0 500 0 c 1
 500 0 500 100 500 100 c 1
187 700 m 1
 187 700 250 762 250 762 c 1
 250 762 313 700 313 700 c 1
 313 700 187 700 187 700 c 1
EndSplineSet
Validated: 9
EndChar

StartChar: Edieresis
Encoding: 203 203 139
Width: 600
Flags: W
LayerCount: 2
Fore
SplineSet
400 850 m 1
 400 864 395 876 386 886 c 0
 376 895 364 900 350 900 c 1
 350 900 350 900 350 900 c 1
 336 900 324 895 315 886 c 0
 305 876 300 864 300 850 c 1
 300 850 300 850 300 850 c 1
 300 836 305 824 315 815 c 0
 324 805 336 800 350 800 c 1
 350 800 350 800 350 800 c 1
 364 800 376 805 386 815 c 0
 395 824 400 836 400 850 c 1
 400 850 400 850 400 850 c 1
200 850 m 1
 200 864 195 876 186 886 c 0
 176 895 164 900 150 900 c 1
 150 900 150 900 150 900 c 1
 136 900 124 895 115 886 c 0
 105 876 100 864 100 850 c 1
 100 850 100 850 100 850 c 1
 100 836 105 824 115 815 c 0
 124 805 136 800 150 800 c 1
 150 800 150 800 150 800 c 1
 164 800 176 805 186 815 c 0
 195 824 200 836 200 850 c 1
 200 850 200 850 200 850 c 1
500 100 m 1
 500 100 100 100 100 100 c 1
 100 100 100 300 100 300 c 1
 100 300 400 300 400 300 c 1
 400 300 400 400 400 400 c 1
 400 400 100 400 100 400 c 1
 100 400 100 600 100 600 c 1
 100 600 500 600 500 600 c 1
 500 600 500 700 500 700 c 1
 500 700 0 700 0 700 c 1
 0 700 0 0 0 0 c 1
 0 0 500 0 500 0 c 1
 500 0 500 100 500 100 c 1
EndSplineSet
Validated: 5
EndChar

StartChar: Igrave
Encoding: 204 204 140
Width: 600
Flags: W
LayerCount: 2
Fore
SplineSet
0 700 m 1
 0 700 0 600 0 600 c 1
 0 600 200 600 200 600 c 1
 200 600 200 100 200 100 c 1
 200 100 0 100 0 100 c 1
 0 100 0 0 0 0 c 1
 0 0 500 0 500 0 c 1
 500 0 500 100 500 100 c 1
 500 100 300 100 300 100 c 1
 300 100 300 600 300 600 c 1
 300 600 500 600 500 600 c 1
 500 600 500 700 500 700 c 1
 500 700 275 700 275 700 c 1
 275 700 313 738 313 738 c 1
 313 738 150 900 150 900 c 1
 150 900 81 831 81 831 c 1
 81 831 213 700 213 700 c 1
 213 700 0 700 0 700 c 1
EndSplineSet
Validated: 9
EndChar

StartChar: Iacute
Encoding: 205 205 141
Width: 600
Flags: W
LayerCount: 2
Fore
SplineSet
419 831 m 1
 419 831 350 900 350 900 c 1
 350 900 188 738 188 738 c 1
 188 738 225 700 225 700 c 1
 225 700 0 700 0 700 c 1
 0 700 0 600 0 600 c 1
 0 600 200 600 200 600 c 1
 200 600 200 100 200 100 c 1
 200 100 0 100 0 100 c 1
 0 100 0 0 0 0 c 1
 0 0 500 0 500 0 c 1
 500 0 500 100 500 100 c 1
 500 100 300 100 300 100 c 1
 300 100 300 600 300 600 c 1
 300 600 500 600 500 600 c 1
 500 600 500 700 500 700 c 1
 500 700 288 700 288 700 c 1
 288 700 419 831 419 831 c 1
EndSplineSet
Validated: 9
EndChar

StartChar: Icircumflex
Encoding: 206 206 142
Width: 600
Flags: W
LayerCount: 2
Fore
SplineSet
500 100 m 1
 500 100 300 100 300 100 c 1
 300 100 300 600 300 600 c 1
 300 600 500 600 500 600 c 1
 500 600 500 700 500 700 c 1
 500 700 375 700 375 700 c 1
 375 700 412 737 412 737 c 1
 412 737 250 900 250 900 c 1
 250 900 87 737 87 737 c 1
 87 737 87 737 87 737 c 1
 106 719 118 707 124 700 c 1
 124 700 0 700 0 700 c 1
 0 700 0 600 0 600 c 1
 0 600 200 600 200 600 c 1
 200 600 200 100 200 100 c 1
 200 100 0 100 0 100 c 1
 0 100 0 0 0 0 c 1
 0 0 500 0 500 0 c 1
 500 0 500 100 500 100 c 1
187 700 m 1
 187 700 250 762 250 762 c 1
 250 762 250 762 250 762 c 1
 281 732 301 711 312 700 c 1
 312 700 187 700 187 700 c 1
EndSplineSet
Validated: 5
EndChar

StartChar: Idieresis
Encoding: 207 207 143
Width: 600
Flags: W
LayerCount: 2
Fore
SplineSet
400 850 m 1
 400 864 395 876 386 886 c 0
 376 895 364 900 350 900 c 1
 350 900 350 900 350 900 c 1
 336 900 324 895 315 886 c 0
 305 876 300 864 300 850 c 1
 300 850 300 850 300 850 c 1
 300 836 305 824 315 815 c 0
 324 805 336 800 350 800 c 1
 350 800 350 800 350 800 c 1
 364 800 376 805 386 815 c 0
 395 824 400 836 400 850 c 1
 400 850 400 850 400 850 c 1
200 850 m 1
 200 864 195 876 186 886 c 0
 176 895 164 900 150 900 c 1
 150 900 150 900 150 900 c 1
 136 900 124 895 115 886 c 0
 105 876 100 864 100 850 c 1
 100 850 100 850 100 850 c 1
 100 836 105 824 115 815 c 0
 124 805 136 800 150 800 c 1
 150 800 150 800 150 800 c 1
 164 800 176 805 186 815 c 0
 195 824 200 836 200 850 c 1
 200 850 200 850 200 850 c 1
500 100 m 1
 500 100 300 100 300 100 c 1
 300 100 300 600 300 600 c 1
 300 600 500 600 500 600 c 1
 500 600 500 700 500 700 c 1
 500 700 0 700 0 700 c 1
 0 700 0 600 0 600 c 1
 0 600 200 600 200 600 c 1
 200 600 200 100 200 100 c 1
 200 100 0 100 0 100 c 1
 0 100 0 0 0 0 c 1
 0 0 500 0 500 0 c 1
 500 0 500 100 500 100 c 1
EndSplineSet
Validated: 5
EndChar

StartChar: Eth
Encoding: 208 208 144
Width: 600
Flags: W
LayerCount: 2
Fore
SplineSet
500 500 m 1
 500 500 500 500 500 500 c 1
 500 555 480 602 441 641 c 0
 402 680 355 700 300 700 c 2
 300 700 100 700 100 700 c 1
 100 700 100 400 100 400 c 1
 100 400 0 400 0 400 c 1
 0 400 0 300 0 300 c 1
 0 300 100 300 100 300 c 1
 100 300 100 0 100 0 c 1
 100 0 300 0 300 0 c 1
 300 0 300 0 300 0 c 1
 355 0 402 20 441 59 c 0
 480 98 500 145 500 200 c 2
 500 200 500 500 500 500 c 1
400 200 m 1
 400 173 390 149 371 130 c 0
 351 110 327 100 300 100 c 2
 300 100 200 100 200 100 c 1
 200 100 200 300 200 300 c 1
 200 300 300 300 300 300 c 1
 300 300 300 400 300 400 c 1
 300 400 200 400 200 400 c 1
 200 400 200 600 200 600 c 1
 200 600 300 600 300 600 c 1
 300 600 300 600 300 600 c 1
 327 600 351 590 371 571 c 0
 390 551 400 527 400 500 c 2
 400 500 400 200 400 200 c 1
 400 200 400 200 400 200 c 1
EndSplineSet
Validated: 5
EndChar

StartChar: Ntilde
Encoding: 209 209 145
Width: 600
Flags: W
LayerCount: 2
Fore
SplineSet
500 910 m 1
 500 910 400 910 400 910 c 1
 400 910 400 860 400 860 c 1
 400 860 400 860 400 860 c 1
 400 846 395 834 386 825 c 0
 376 815 364 810 350 810 c 1
 350 810 350 810 350 810 c 1
 325 810 292 831 250 873 c 1
 250 873 250 873 250 873 c 1
 225 898 192 910 150 910 c 1
 150 910 150 910 150 910 c 1
 109 910 73 895 44 866 c 0
 15 837 0 801 0 760 c 2
 0 760 0 710 0 710 c 1
 0 710 100 710 100 710 c 1
 100 710 100 760 100 760 c 1
 100 760 100 760 100 760 c 1
 100 774 105 786 115 796 c 0
 124 805 136 810 150 810 c 1
 150 810 150 810 150 810 c 1
 175 810 209 789 250 748 c 1
 250 748 250 748 250 748 c 1
 275 723 309 710 350 710 c 1
 350 710 350 710 350 710 c 1
 391 710 427 725 456 754 c 0
 485 783 500 819 500 860 c 2
 500 860 500 910 500 910 c 1
500 705 m 1
 500 705 400 705 400 705 c 1
 400 705 400 379 400 379 c 1
 400 379 69 705 69 705 c 1
 69 705 0 705 0 705 c 1
 0 705 0 10 0 10 c 1
 0 10 100 10 100 10 c 1
 100 10 100 541 100 541 c 1
 100 541 400 241 400 241 c 1
 400 241 400 10 400 10 c 1
 400 10 500 10 500 10 c 1
 500 10 500 705 500 705 c 1
EndSplineSet
Validated: 5
EndChar

StartChar: Ograve
Encoding: 210 210 146
Width: 600
Flags: W
LayerCount: 2
Fore
SplineSet
313 738 m 1
 313 738 150 900 150 900 c 1
 150 900 81 831 81 831 c 1
 81 831 213 700 213 700 c 1
 213 700 200 700 200 700 c 1
 200 700 200 700 200 700 c 1
 145 700 98 681 59 642 c 0
 20 603 0 555 0 500 c 2
 0 500 0 200 0 200 c 1
 0 200 0 200 0 200 c 1
 0 145 20 98 59 59 c 0
 98 20 145 0 200 0 c 2
 200 0 300 0 300 0 c 1
 300 0 300 0 300 0 c 1
 355 0 403 20 442 59 c 0
 481 98 500 145 500 200 c 2
 500 200 500 500 500 500 c 1
 500 500 500 500 500 500 c 1
 500 555 481 603 442 642 c 0
 403 681 355 700 300 700 c 2
 300 700 275 700 275 700 c 1
 275 700 313 738 313 738 c 1
300 600 m 1
 327 600 351 590 371 571 c 0
 390 551 400 527 400 500 c 2
 400 500 400 200 400 200 c 1
 400 200 400 200 400 200 c 1
 400 173 390 149 371 130 c 0
 351 110 327 100 300 100 c 2
 300 100 200 100 200 100 c 1
 200 100 200 100 200 100 c 1
 173 100 149 110 130 130 c 0
 110 149 100 173 100 200 c 2
 100 200 100 500 100 500 c 1
 100 500 100 500 100 500 c 1
 100 527 110 551 130 571 c 0
 149 590 173 600 200 600 c 2
 200 600 300 600 300 600 c 1
 300 600 300 600 300 600 c 1
EndSplineSet
Validated: 5
EndChar

StartChar: Oacute
Encoding: 211 211 147
Width: 600
Flags: W
LayerCount: 2
Fore
SplineSet
225 700 m 1
 225 700 200 700 200 700 c 1
 200 700 200 700 200 700 c 1
 145 700 98 681 59 642 c 0
 20 603 0 555 0 500 c 2
 0 500 0 200 0 200 c 1
 0 200 0 200 0 200 c 1
 0 145 20 98 59 59 c 0
 98 20 145 0 200 0 c 2
 200 0 300 0 300 0 c 1
 300 0 300 0 300 0 c 1
 355 0 403 20 442 59 c 0
 481 98 500 145 500 200 c 2
 500 200 500 500 500 500 c 1
 500 500 500 500 500 500 c 1
 500 555 481 603 442 642 c 0
 403 681 355 700 300 700 c 2
 300 700 288 700 288 700 c 1
 288 700 419 831 419 831 c 1
 419 831 350 900 350 900 c 1
 350 900 188 738 188 738 c 1
 188 738 225 700 225 700 c 1
300 600 m 1
 327 600 351 590 371 571 c 0
 390 551 400 527 400 500 c 2
 400 500 400 200 400 200 c 1
 400 200 400 200 400 200 c 1
 400 173 390 149 371 130 c 0
 351 110 327 100 300 100 c 2
 300 100 200 100 200 100 c 1
 200 100 200 100 200 100 c 1
 173 100 149 110 130 130 c 0
 110 149 100 173 100 200 c 2
 100 200 100 500 100 500 c 1
 100 500 100 500 100 500 c 1
 100 527 110 551 130 571 c 0
 149 590 173 600 200 600 c 2
 200 600 300 600 300 600 c 1
 300 600 300 600 300 600 c 1
EndSplineSet
Validated: 5
EndChar

StartChar: Ocircumflex
Encoding: 212 212 148
Width: 600
Flags: W
LayerCount: 2
Fore
SplineSet
500 500 m 1
 500 500 500 500 500 500 c 1
 500 543 487 582 462 617 c 0
 437 652 404 676 364 689 c 1
 364 689 412 737 412 737 c 1
 412 737 250 900 250 900 c 1
 250 900 87 737 87 737 c 1
 87 737 135 689 135 689 c 1
 135 689 135 689 135 689 c 1
 96 675 63 651 38 616 c 0
 13 581 0 543 0 500 c 2
 0 500 0 200 0 200 c 1
 0 200 0 200 0 200 c 1
 0 145 20 98 59 59 c 0
 98 20 145 0 200 0 c 2
 200 0 300 0 300 0 c 1
 300 0 300 0 300 0 c 1
 355 0 402 20 441 59 c 0
 480 98 500 145 500 200 c 2
 500 200 500 500 500 500 c 1
187 700 m 1
 187 700 250 762 250 762 c 1
 250 762 313 700 313 700 c 1
 313 700 187 700 187 700 c 1
400 200 m 1
 400 173 390 149 371 130 c 0
 351 110 327 100 300 100 c 2
 300 100 200 100 200 100 c 1
 200 100 200 100 200 100 c 1
 173 100 149 110 130 130 c 0
 110 149 100 173 100 200 c 2
 100 200 100 500 100 500 c 1
 100 500 100 500 100 500 c 1
 100 527 110 551 130 571 c 0
 149 590 173 600 200 600 c 2
 200 600 300 600 300 600 c 1
 300 600 300 600 300 600 c 1
 327 600 351 590 371 571 c 0
 390 551 400 527 400 500 c 2
 400 500 400 200 400 200 c 1
 400 200 400 200 400 200 c 1
EndSplineSet
Validated: 5
EndChar

StartChar: Otilde
Encoding: 213 213 149
Width: 600
Flags: W
LayerCount: 2
Fore
SplineSet
500 900 m 1
 500 900 400 900 400 900 c 1
 400 900 400 850 400 850 c 1
 400 850 400 850 400 850 c 1
 400 836 395 824 386 815 c 0
 376 805 364 800 350 800 c 1
 350 800 350 800 350 800 c 1
 325 800 292 821 250 863 c 1
 250 863 250 863 250 863 c 1
 225 888 192 900 150 900 c 1
 150 900 150 900 150 900 c 1
 109 900 73 885 44 856 c 0
 15 827 0 791 0 750 c 2
 0 750 0 700 0 700 c 1
 0 700 100 700 100 700 c 1
 100 700 100 750 100 750 c 1
 100 750 100 750 100 750 c 1
 100 764 105 776 115 786 c 0
 124 795 136 800 150 800 c 1
 150 800 150 800 150 800 c 1
 175 800 209 779 250 738 c 1
 250 738 250 738 250 738 c 1
 275 713 309 700 350 700 c 1
 350 700 350 700 350 700 c 1
 391 700 427 715 456 744 c 0
 485 773 500 809 500 850 c 2
 500 850 500 900 500 900 c 1
500 500 m 1
 500 500 500 500 500 500 c 1
 500 555 480 602 441 641 c 0
 402 680 355 700 300 700 c 2
 300 700 200 700 200 700 c 1
 200 700 200 700 200 700 c 1
 145 700 98 680 59 641 c 0
 20 602 0 555 0 500 c 2
 0 500 0 200 0 200 c 1
 0 200 0 200 0 200 c 1
 0 145 20 98 59 59 c 0
 98 20 145 0 200 0 c 2
 200 0 300 0 300 0 c 1
 300 0 300 0 300 0 c 1
 355 0 402 20 441 59 c 0
 480 98 500 145 500 200 c 2
 500 200 500 500 500 500 c 1
400 200 m 1
 400 173 390 149 371 130 c 0
 351 110 327 100 300 100 c 2
 300 100 200 100 200 100 c 1
 200 100 200 100 200 100 c 1
 173 100 149 110 130 130 c 0
 110 149 100 173 100 200 c 2
 100 200 100 500 100 500 c 1
 100 500 100 500 100 500 c 1
 100 527 110 551 130 571 c 0
 149 590 173 600 200 600 c 2
 200 600 300 600 300 600 c 1
 300 600 300 600 300 600 c 1
 327 600 351 590 371 571 c 0
 390 551 400 527 400 500 c 2
 400 500 400 200 400 200 c 1
 400 200 400 200 400 200 c 1
EndSplineSet
Validated: 5
EndChar

StartChar: Odieresis
Encoding: 214 214 150
Width: 600
Flags: W
LayerCount: 2
Fore
SplineSet
400 850 m 1
 400 864 395 876 386 886 c 0
 376 895 364 900 350 900 c 1
 350 900 350 900 350 900 c 1
 336 900 324 895 315 886 c 0
 305 876 300 864 300 850 c 1
 300 850 300 850 300 850 c 1
 300 836 305 824 315 815 c 0
 324 805 336 800 350 800 c 1
 350 800 350 800 350 800 c 1
 364 800 376 805 386 815 c 0
 395 824 400 836 400 850 c 1
 400 850 400 850 400 850 c 1
200 850 m 1
 200 864 195 876 186 886 c 0
 176 895 164 900 150 900 c 1
 150 900 150 900 150 900 c 1
 136 900 124 895 115 886 c 0
 105 876 100 864 100 850 c 1
 100 850 100 850 100 850 c 1
 100 836 105 824 115 815 c 0
 124 805 136 800 150 800 c 1
 150 800 150 800 150 800 c 1
 164 800 176 805 186 815 c 0
 195 824 200 836 200 850 c 1
 200 850 200 850 200 850 c 1
500 500 m 1
 500 500 500 500 500 500 c 1
 500 555 480 602 441 641 c 0
 402 680 355 700 300 700 c 2
 300 700 200 700 200 700 c 1
 200 700 200 700 200 700 c 1
 145 700 98 680 59 641 c 0
 20 602 0 555 0 500 c 2
 0 500 0 200 0 200 c 1
 0 200 0 200 0 200 c 1
 0 145 20 98 59 59 c 0
 98 20 145 0 200 0 c 2
 200 0 300 0 300 0 c 1
 300 0 300 0 300 0 c 1
 355 0 402 20 441 59 c 0
 480 98 500 145 500 200 c 2
 500 200 500 500 500 500 c 1
400 200 m 1
 400 173 390 149 371 130 c 0
 351 110 327 100 300 100 c 2
 300 100 200 100 200 100 c 1
 200 100 200 100 200 100 c 1
 173 100 149 110 130 130 c 0
 110 149 100 173 100 200 c 2
 100 200 100 500 100 500 c 1
 100 500 100 500 100 500 c 1
 100 527 110 551 130 571 c 0
 149 590 173 600 200 600 c 2
 200 600 300 600 300 600 c 1
 300 600 300 600 300 600 c 1
 327 600 351 590 371 571 c 0
 390 551 400 527 400 500 c 2
 400 500 400 200 400 200 c 1
 400 200 400 200 400 200 c 1
EndSplineSet
Validated: 5
EndChar

StartChar: multiply
Encoding: 215 215 151
Width: 600
Flags: W
LayerCount: 2
Fore
SplineSet
320 350 m 1
 320 350 497 527 497 527 c 1
 497 527 427 597 427 597 c 1
 427 597 250 420 250 420 c 1
 250 420 73 597 73 597 c 1
 73 597 3 527 3 527 c 1
 3 527 180 350 180 350 c 1
 180 350 3 173 3 173 c 1
 3 173 73 103 73 103 c 1
 73 103 250 280 250 280 c 1
 250 280 427 103 427 103 c 1
 427 103 497 173 497 173 c 1
 497 173 320 350 320 350 c 1
EndSplineSet
Validated: 9
EndChar

StartChar: Oslash
Encoding: 216 216 152
Width: 600
Flags: W
LayerCount: 2
Fore
SplineSet
500 500 m 1
 500 500 500 500 500 500 c 1
 500 555 480 602 441 641 c 0
 402 680 355 700 300 700 c 2
 300 700 200 700 200 700 c 1
 200 700 200 700 200 700 c 1
 145 700 98 680 59 641 c 0
 20 602 0 555 0 500 c 2
 0 500 0 200 0 200 c 1
 0 200 0 200 0 200 c 1
 0 145 20 98 59 59 c 0
 98 20 145 0 200 0 c 2
 200 0 300 0 300 0 c 1
 300 0 300 0 300 0 c 1
 355 0 402 20 441 59 c 0
 480 98 500 145 500 200 c 2
 500 200 500 500 500 500 c 1
100 269 m 1
 100 269 100 500 100 500 c 1
 100 500 100 500 100 500 c 1
 100 527 110 551 130 571 c 0
 149 590 173 600 200 600 c 2
 200 600 300 600 300 600 c 1
 300 600 300 600 300 600 c 1
 337 600 365 585 385 554 c 1
 385 554 100 269 100 269 c 1
400 200 m 1
 400 173 390 149 371 130 c 0
 351 110 327 100 300 100 c 2
 300 100 200 100 200 100 c 1
 200 100 200 100 200 100 c 1
 165 100 137 115 117 146 c 1
 117 146 400 429 400 429 c 1
 400 429 400 200 400 200 c 1
 400 200 400 200 400 200 c 1
EndSplineSet
Validated: 5
EndChar

StartChar: Ugrave
Encoding: 217 217 153
Width: 600
Flags: W
LayerCount: 2
Fore
SplineSet
150 900 m 1
 150 900 81 831 81 831 c 1
 81 831 244 669 244 669 c 1
 244 669 312 737 312 737 c 1
 312 737 150 900 150 900 c 1
500 700 m 1
 500 700 400 700 400 700 c 1
 400 700 400 200 400 200 c 1
 400 200 400 200 400 200 c 1
 400 173 390 149 371 130 c 0
 351 110 327 100 300 100 c 2
 300 100 200 100 200 100 c 1
 200 100 200 100 200 100 c 1
 173 100 149 110 130 130 c 0
 110 149 100 173 100 200 c 2
 100 200 100 700 100 700 c 1
 100 700 0 700 0 700 c 1
 0 700 0 200 0 200 c 1
 0 200 0 200 0 200 c 1
 0 145 20 98 59 59 c 0
 98 20 145 0 200 0 c 2
 200 0 300 0 300 0 c 1
 300 0 300 0 300 0 c 1
 355 0 402 20 441 59 c 0
 480 98 500 145 500 200 c 2
 500 200 500 700 500 700 c 1
EndSplineSet
Validated: 5
EndChar

StartChar: Uacute
Encoding: 218 218 154
Width: 600
Flags: W
LayerCount: 2
Fore
SplineSet
350 900 m 1
 350 900 187 737 187 737 c 1
 187 737 256 669 256 669 c 1
 256 669 419 831 419 831 c 1
 419 831 350 900 350 900 c 1
500 700 m 1
 500 700 400 700 400 700 c 1
 400 700 400 200 400 200 c 1
 400 200 400 200 400 200 c 1
 400 173 390 149 371 130 c 0
 351 110 327 100 300 100 c 2
 300 100 200 100 200 100 c 1
 200 100 200 100 200 100 c 1
 173 100 149 110 130 130 c 0
 110 149 100 173 100 200 c 2
 100 200 100 700 100 700 c 1
 100 700 0 700 0 700 c 1
 0 700 0 200 0 200 c 1
 0 200 0 200 0 200 c 1
 0 145 20 98 59 59 c 0
 98 20 145 0 200 0 c 2
 200 0 300 0 300 0 c 1
 300 0 300 0 300 0 c 1
 355 0 402 20 441 59 c 0
 480 98 500 145 500 200 c 2
 500 200 500 700 500 700 c 1
EndSplineSet
Validated: 5
EndChar

StartChar: Ucircumflex
Encoding: 219 219 155
Width: 600
Flags: W
LayerCount: 2
Fore
SplineSet
250 900 m 1
 250 900 87 737 87 737 c 1
 87 737 156 669 156 669 c 1
 156 669 250 762 250 762 c 1
 250 762 344 669 344 669 c 1
 344 669 412 737 412 737 c 1
 412 737 250 900 250 900 c 1
500 700 m 1
 500 700 400 700 400 700 c 1
 400 700 400 200 400 200 c 1
 400 200 400 200 400 200 c 1
 400 173 390 149 371 130 c 0
 351 110 327 100 300 100 c 2
 300 100 200 100 200 100 c 1
 200 100 200 100 200 100 c 1
 173 100 149 110 130 130 c 0
 110 149 100 173 100 200 c 2
 100 200 100 700 100 700 c 1
 100 700 0 700 0 700 c 1
 0 700 0 200 0 200 c 1
 0 200 0 200 0 200 c 1
 0 145 20 98 59 59 c 0
 98 20 145 0 200 0 c 2
 200 0 300 0 300 0 c 1
 300 0 300 0 300 0 c 1
 355 0 402 20 441 59 c 0
 480 98 500 145 500 200 c 2
 500 200 500 700 500 700 c 1
EndSplineSet
Validated: 5
EndChar

StartChar: Udieresis
Encoding: 220 220 156
Width: 600
Flags: W
LayerCount: 2
Fore
SplineSet
400 850 m 1
 400 864 395 876 386 886 c 0
 376 895 364 900 350 900 c 1
 350 900 350 900 350 900 c 1
 336 900 324 895 315 886 c 0
 305 876 300 864 300 850 c 1
 300 850 300 850 300 850 c 1
 300 836 305 824 315 815 c 0
 324 805 336 800 350 800 c 1
 350 800 350 800 350 800 c 1
 364 800 376 805 386 815 c 0
 395 824 400 836 400 850 c 1
 400 850 400 850 400 850 c 1
200 850 m 1
 200 864 195 876 186 886 c 0
 176 895 164 900 150 900 c 1
 150 900 150 900 150 900 c 1
 136 900 124 895 115 886 c 0
 105 876 100 864 100 850 c 1
 100 850 100 850 100 850 c 1
 100 836 105 824 115 815 c 0
 124 805 136 800 150 800 c 1
 150 800 150 800 150 800 c 1
 164 800 176 805 186 815 c 0
 195 824 200 836 200 850 c 1
 200 850 200 850 200 850 c 1
500 700 m 1
 500 700 400 700 400 700 c 1
 400 700 400 200 400 200 c 1
 400 200 400 200 400 200 c 1
 400 173 390 149 371 130 c 0
 351 110 327 100 300 100 c 2
 300 100 200 100 200 100 c 1
 200 100 200 100 200 100 c 1
 173 100 149 110 130 130 c 0
 110 149 100 173 100 200 c 2
 100 200 100 700 100 700 c 1
 100 700 0 700 0 700 c 1
 0 700 0 200 0 200 c 1
 0 200 0 200 0 200 c 1
 0 145 20 98 59 59 c 0
 98 20 145 0 200 0 c 2
 200 0 300 0 300 0 c 1
 300 0 300 0 300 0 c 1
 355 0 402 20 441 59 c 0
 480 98 500 145 500 200 c 2
 500 200 500 700 500 700 c 1
EndSplineSet
Validated: 5
EndChar

StartChar: Yacute
Encoding: 221 221 157
Width: 600
Flags: W
LayerCount: 2
Fore
SplineSet
350 900 m 1
 350 900 187 737 187 737 c 1
 187 737 256 669 256 669 c 1
 256 669 419 831 419 831 c 1
 419 831 350 900 350 900 c 1
500 700 m 1
 500 700 400 700 400 700 c 1
 400 700 400 469 400 469 c 1
 400 469 250 319 250 319 c 1
 250 319 100 469 100 469 c 1
 100 469 100 700 100 700 c 1
 100 700 0 700 0 700 c 1
 0 700 0 431 0 431 c 1
 0 431 200 231 200 231 c 1
 200 231 200 0 200 0 c 1
 200 0 300 0 300 0 c 1
 300 0 300 231 300 231 c 1
 300 231 500 431 500 431 c 1
 500 431 500 700 500 700 c 1
EndSplineSet
Validated: 9
EndChar

StartChar: Thorn
Encoding: 222 222 158
Width: 600
Flags: W
LayerCount: 2
Fore
SplineSet
500 400 m 1
 500 455 481 503 442 542 c 0
 403 581 355 600 300 600 c 2
 300 600 100 600 100 600 c 1
 100 600 100 700 100 700 c 1
 100 700 0 700 0 700 c 1
 0 700 0 0 0 0 c 1
 0 0 100 0 100 0 c 1
 100 0 100 200 100 200 c 1
 100 200 300 200 300 200 c 1
 300 200 300 200 300 200 c 1
 355 200 402 220 441 259 c 0
 480 298 500 345 500 400 c 1
 500 400 500 400 500 400 c 1
400 400 m 1
 400 373 390 349 371 330 c 0
 351 310 327 300 300 300 c 2
 300 300 100 300 100 300 c 1
 100 300 100 500 100 500 c 1
 100 500 300 500 300 500 c 1
 300 500 300 500 300 500 c 1
 327 500 351 490 371 471 c 0
 390 451 400 427 400 400 c 1
 400 400 400 400 400 400 c 1
EndSplineSet
Validated: 5
EndChar

StartChar: germandbls
Encoding: 223 223 159
Width: 600
Flags: W
LayerCount: 2
Fore
SplineSet
500 200 m 1
 500 265 473 319 418 362 c 1
 418 362 418 362 418 362 c 1
 406 371 400 384 400 400 c 1
 400 400 400 400 400 400 c 1
 400 417 407 430 420 440 c 1
 420 440 420 440 420 440 c 1
 473 480 500 533 500 600 c 1
 500 600 500 600 500 600 c 1
 500 655 481 703 442 742 c 0
 403 781 355 800 300 800 c 2
 300 800 231 800 231 800 c 1
 231 800 41 610 41 610 c 1
 41 610 41 610 41 610 c 1
 14 583 0 548 0 506 c 2
 0 506 0 -99 0 -99 c 1
 0 -99 100 -99 100 -99 c 1
 100 -99 100 491 100 491 c 1
 100 491 100 491 100 491 c 1
 100 518 109 541 128 560 c 2
 128 560 261 692 261 692 c 1
 261 692 261 692 261 692 c 1
 272 697 285 700 300 700 c 1
 300 700 300 700 300 700 c 1
 327 700 351 690 371 671 c 0
 390 651 400 627 400 600 c 1
 400 600 400 600 400 600 c 1
 400 573 391 551 374 534 c 1
 374 534 374 534 374 534 c 1
 358 520 342 506 326 492 c 1
 326 492 326 492 326 492 c 1
 309 475 300 452 300 425 c 2
 300 425 300 375 300 375 c 1
 300 375 300 375 300 375 c 1
 300 337 317 308 350 289 c 0
 383 269 400 239 400 200 c 1
 400 200 400 200 400 200 c 1
 400 173 390 149 371 130 c 0
 351 110 327 100 300 100 c 2
 300 100 200 100 200 100 c 1
 200 100 200 0 200 0 c 1
 200 0 300 0 300 0 c 1
 300 0 300 0 300 0 c 1
 355 0 402 20 441 59 c 0
 480 98 500 145 500 200 c 1
 500 200 500 200 500 200 c 1
EndSplineSet
Validated: 5
EndChar

StartChar: agrave
Encoding: 224 224 160
Width: 600
Flags: W
LayerCount: 2
Fore
SplineSet
250 819 m 1
 250 819 181 750 181 750 c 1
 181 750 344 588 344 588 c 1
 344 588 412 656 412 656 c 1
 412 656 250 819 250 819 c 1
200 500 m 1
 200 500 200 500 200 500 c 1
 145 500 98 481 59 442 c 0
 20 403 0 355 0 300 c 2
 0 300 0 200 0 200 c 1
 0 200 0 200 0 200 c 1
 0 145 20 98 59 59 c 0
 98 20 145 0 200 0 c 1
 200 0 200 0 200 0 c 1
 242 0 288 25 338 75 c 2
 338 75 400 138 400 138 c 1
 400 138 400 0 400 0 c 1
 400 0 500 0 500 0 c 1
 500 0 500 500 500 500 c 1
 500 500 200 500 200 500 c 1
400 400 m 1
 400 400 400 250 400 250 c 1
 400 250 300 150 300 150 c 1
 300 150 300 150 300 150 c 1
 267 117 233 100 200 100 c 1
 200 100 200 100 200 100 c 1
 173 100 149 110 130 130 c 0
 110 149 100 173 100 200 c 2
 100 200 100 300 100 300 c 1
 100 300 100 300 100 300 c 1
 100 327 110 351 130 371 c 0
 149 390 173 400 200 400 c 2
 200 400 400 400 400 400 c 1
EndSplineSet
Validated: 5
EndChar

StartChar: aacute
Encoding: 225 225 161
Width: 600
Flags: W
LayerCount: 2
Fore
SplineSet
350 819 m 1
 350 819 187 656 187 656 c 1
 187 656 256 588 256 588 c 1
 256 588 419 750 419 750 c 1
 419 750 350 819 350 819 c 1
200 500 m 1
 200 500 200 500 200 500 c 1
 145 500 98 481 59 442 c 0
 20 403 0 355 0 300 c 2
 0 300 0 200 0 200 c 1
 0 200 0 200 0 200 c 1
 0 145 20 98 59 59 c 0
 98 20 145 0 200 0 c 1
 200 0 200 0 200 0 c 1
 242 0 288 25 338 75 c 2
 338 75 400 138 400 138 c 1
 400 138 400 0 400 0 c 1
 400 0 500 0 500 0 c 1
 500 0 500 500 500 500 c 1
 500 500 200 500 200 500 c 1
400 400 m 1
 400 400 400 250 400 250 c 1
 400 250 300 150 300 150 c 1
 300 150 300 150 300 150 c 1
 267 117 233 100 200 100 c 1
 200 100 200 100 200 100 c 1
 173 100 149 110 130 130 c 0
 110 149 100 173 100 200 c 2
 100 200 100 300 100 300 c 1
 100 300 100 300 100 300 c 1
 100 327 110 351 130 371 c 0
 149 390 173 400 200 400 c 2
 200 400 400 400 400 400 c 1
EndSplineSet
Validated: 5
EndChar

StartChar: acircumflex
Encoding: 226 226 162
Width: 600
Flags: W
LayerCount: 2
Fore
SplineSet
250 819 m 1
 250 819 87 656 87 656 c 1
 87 656 156 588 156 588 c 1
 156 588 250 681 250 681 c 1
 250 681 344 588 344 588 c 1
 344 588 412 656 412 656 c 1
 412 656 250 819 250 819 c 1
200 500 m 1
 200 500 200 500 200 500 c 1
 145 500 98 481 59 442 c 0
 20 403 0 355 0 300 c 2
 0 300 0 200 0 200 c 1
 0 200 0 200 0 200 c 1
 0 145 20 98 59 59 c 0
 98 20 145 0 200 0 c 1
 200 0 200 0 200 0 c 1
 242 0 288 25 338 75 c 2
 338 75 400 138 400 138 c 1
 400 138 400 0 400 0 c 1
 400 0 500 0 500 0 c 1
 500 0 500 500 500 500 c 1
 500 500 200 500 200 500 c 1
400 400 m 1
 400 400 400 250 400 250 c 1
 400 250 300 150 300 150 c 1
 300 150 300 150 300 150 c 1
 267 117 233 100 200 100 c 1
 200 100 200 100 200 100 c 1
 173 100 149 110 130 130 c 0
 110 149 100 173 100 200 c 2
 100 200 100 300 100 300 c 1
 100 300 100 300 100 300 c 1
 100 327 110 351 130 371 c 0
 149 390 173 400 200 400 c 2
 200 400 400 400 400 400 c 1
EndSplineSet
Validated: 5
EndChar

StartChar: atilde
Encoding: 227 227 163
Width: 600
Flags: W
LayerCount: 2
Fore
SplineSet
500 800 m 1
 500 800 400 800 400 800 c 1
 400 800 400 750 400 750 c 1
 400 750 400 750 400 750 c 1
 400 736 395 724 386 715 c 0
 376 705 364 700 350 700 c 1
 350 700 350 700 350 700 c 1
 325 700 292 721 250 763 c 1
 250 763 250 763 250 763 c 1
 225 788 192 800 150 800 c 1
 150 800 150 800 150 800 c 1
 109 800 73 785 44 756 c 0
 15 727 0 691 0 650 c 2
 0 650 0 600 0 600 c 1
 0 600 100 600 100 600 c 1
 100 600 100 650 100 650 c 1
 100 650 100 650 100 650 c 1
 100 664 105 676 115 686 c 0
 124 695 136 700 150 700 c 1
 150 700 150 700 150 700 c 1
 175 700 209 679 250 638 c 1
 250 638 250 638 250 638 c 1
 275 613 309 600 350 600 c 1
 350 600 350 600 350 600 c 1
 391 600 427 615 456 644 c 0
 485 673 500 709 500 750 c 2
 500 750 500 800 500 800 c 1
200 500 m 1
 200 500 200 500 200 500 c 1
 145 500 98 481 59 442 c 0
 20 403 0 355 0 300 c 2
 0 300 0 200 0 200 c 1
 0 200 0 200 0 200 c 1
 0 145 20 98 59 59 c 0
 98 20 145 0 200 0 c 1
 200 0 200 0 200 0 c 1
 242 0 288 25 338 75 c 2
 338 75 400 138 400 138 c 1
 400 138 400 0 400 0 c 1
 400 0 500 0 500 0 c 1
 500 0 500 500 500 500 c 1
 500 500 200 500 200 500 c 1
400 400 m 1
 400 400 400 250 400 250 c 1
 400 250 300 150 300 150 c 1
 300 150 300 150 300 150 c 1
 267 117 233 100 200 100 c 1
 200 100 200 100 200 100 c 1
 173 100 149 110 130 130 c 0
 110 149 100 173 100 200 c 2
 100 200 100 300 100 300 c 1
 100 300 100 300 100 300 c 1
 100 327 110 351 130 371 c 0
 149 390 173 400 200 400 c 2
 200 400 400 400 400 400 c 1
EndSplineSet
Validated: 5
EndChar

StartChar: adieresis
Encoding: 228 228 164
Width: 600
Flags: W
LayerCount: 2
Fore
SplineSet
400 650 m 1
 400 664 395 676 386 686 c 0
 376 695 364 700 350 700 c 1
 350 700 350 700 350 700 c 1
 336 700 324 695 315 686 c 0
 305 676 300 664 300 650 c 1
 300 650 300 650 300 650 c 1
 300 636 305 624 315 615 c 0
 324 605 336 600 350 600 c 1
 350 600 350 600 350 600 c 1
 364 600 376 605 386 615 c 0
 395 624 400 636 400 650 c 1
 400 650 400 650 400 650 c 1
200 650 m 1
 200 664 195 676 186 686 c 0
 176 695 164 700 150 700 c 1
 150 700 150 700 150 700 c 1
 136 700 124 695 115 686 c 0
 105 676 100 664 100 650 c 1
 100 650 100 650 100 650 c 1
 100 636 105 624 115 615 c 0
 124 605 136 600 150 600 c 1
 150 600 150 600 150 600 c 1
 164 600 176 605 186 615 c 0
 195 624 200 636 200 650 c 1
 200 650 200 650 200 650 c 1
200 500 m 1
 200 500 200 500 200 500 c 1
 145 500 98 481 59 442 c 0
 20 403 0 355 0 300 c 2
 0 300 0 200 0 200 c 1
 0 200 0 200 0 200 c 1
 0 145 20 98 59 59 c 0
 98 20 145 0 200 0 c 1
 200 0 200 0 200 0 c 1
 242 0 288 25 338 75 c 2
 338 75 400 138 400 138 c 1
 400 138 400 0 400 0 c 1
 400 0 500 0 500 0 c 1
 500 0 500 500 500 500 c 1
 500 500 200 500 200 500 c 1
400 400 m 1
 400 400 400 250 400 250 c 1
 400 250 300 150 300 150 c 1
 300 150 300 150 300 150 c 1
 267 117 233 100 200 100 c 1
 200 100 200 100 200 100 c 1
 173 100 149 110 130 130 c 0
 110 149 100 173 100 200 c 2
 100 200 100 300 100 300 c 1
 100 300 100 300 100 300 c 1
 100 327 110 351 130 371 c 0
 149 390 173 400 200 400 c 2
 200 400 400 400 400 400 c 1
EndSplineSet
Validated: 5
EndChar

StartChar: aring
Encoding: 229 229 165
Width: 600
Flags: W
LayerCount: 2
Fore
SplineSet
200 500 m 1
 200 500 200 500 200 500 c 1
 145 500 98 481 59 442 c 0
 20 403 0 355 0 300 c 2
 0 300 0 200 0 200 c 1
 0 200 0 200 0 200 c 1
 0 145 20 98 59 59 c 0
 98 20 145 0 200 0 c 1
 200 0 200 0 200 0 c 1
 242 0 288 25 338 75 c 2
 338 75 400 138 400 138 c 1
 400 138 400 0 400 0 c 1
 400 0 500 0 500 0 c 1
 500 0 500 500 500 500 c 1
 500 500 250 500 250 500 c 1
 250 500 250 500 250 500 c 1
 291 500 327 515 356 544 c 0
 385 573 400 609 400 650 c 1
 400 650 400 650 400 650 c 1
 400 691 385 727 356 756 c 0
 327 785 291 800 250 800 c 1
 250 800 250 800 250 800 c 1
 209 800 173 785 144 756 c 0
 115 727 100 691 100 650 c 1
 100 650 100 650 100 650 c 1
 100 609 115 573 144 544 c 0
 173 515 209 500 250 500 c 2
 250 500 200 500 200 500 c 1
200 650 m 1
 200 664 205 676 215 686 c 0
 224 695 236 700 250 700 c 1
 250 700 250 700 250 700 c 1
 264 700 276 695 286 686 c 0
 295 676 300 664 300 650 c 1
 300 650 300 650 300 650 c 1
 300 636 295 624 286 615 c 0
 276 605 264 600 250 600 c 1
 250 600 250 600 250 600 c 1
 236 600 224 605 215 615 c 0
 205 624 200 636 200 650 c 1
 200 650 200 650 200 650 c 1
400 400 m 1
 400 400 400 250 400 250 c 1
 400 250 300 150 300 150 c 1
 300 150 300 150 300 150 c 1
 267 117 233 100 200 100 c 1
 200 100 200 100 200 100 c 1
 173 100 149 110 130 130 c 0
 110 149 100 173 100 200 c 2
 100 200 100 300 100 300 c 1
 100 300 100 300 100 300 c 1
 100 327 110 351 130 371 c 0
 149 390 173 400 200 400 c 2
 200 400 400 400 400 400 c 1
EndSplineSet
Validated: 5
EndChar

StartChar: ae
Encoding: 230 230 166
Width: 600
Flags: W
LayerCount: 2
Fore
SplineSet
500 100 m 1
 500 100 300 100 300 100 c 1
 300 100 300 200 300 200 c 1
 300 200 500 200 500 200 c 1
 500 200 500 300 500 300 c 1
 500 300 500 300 500 300 c 1
 500 355 480 402 441 441 c 0
 402 480 355 500 300 500 c 2
 300 500 200 500 200 500 c 1
 200 500 200 500 200 500 c 1
 145 500 98 480 59 441 c 0
 20 402 0 355 0 300 c 2
 0 300 0 200 0 200 c 1
 0 200 0 200 0 200 c 1
 0 145 20 98 59 59 c 0
 98 20 145 0 200 0 c 2
 200 0 500 0 500 0 c 1
 500 0 500 100 500 100 c 1
300 300 m 1
 300 300 300 400 300 400 c 1
 300 400 300 400 300 400 c 1
 327 400 351 390 371 371 c 0
 390 351 400 327 400 300 c 1
 400 300 300 300 300 300 c 1
200 100 m 1
 173 100 149 110 130 130 c 0
 110 149 100 173 100 200 c 2
 100 200 100 300 100 300 c 1
 100 300 100 300 100 300 c 1
 100 327 110 351 130 371 c 0
 149 390 173 400 200 400 c 1
 200 400 200 100 200 100 c 1
 200 100 200 100 200 100 c 1
EndSplineSet
Validated: 5
EndChar

StartChar: ccedilla
Encoding: 231 231 167
Width: 600
Flags: W
LayerCount: 2
Fore
SplineSet
500 100 m 1
 500 100 200 100 200 100 c 1
 200 100 200 100 200 100 c 1
 173 100 149 110 130 130 c 0
 110 149 100 173 100 200 c 2
 100 200 100 300 100 300 c 1
 100 300 100 300 100 300 c 1
 100 327 110 351 130 371 c 0
 149 390 173 400 200 400 c 2
 200 400 300 400 300 400 c 1
 300 400 300 400 300 400 c 1
 327 400 351 390 371 371 c 0
 390 351 400 327 400 300 c 1
 400 300 500 300 500 300 c 1
 500 300 500 300 500 300 c 1
 500 355 480 402 441 441 c 0
 402 480 355 500 300 500 c 2
 300 500 200 500 200 500 c 1
 200 500 200 500 200 500 c 1
 145 500 98 480 59 441 c 0
 20 402 0 355 0 300 c 2
 0 300 0 200 0 200 c 1
 0 200 0 200 0 200 c 1
 0 145 20 98 59 59 c 0
 98 20 145 0 200 0 c 2
 200 0 219 0 219 0 c 1
 219 0 87 -130 87 -130 c 1
 87 -130 156 -199 156 -199 c 1
 156 -199 319 -36 319 -36 c 1
 319 -36 281 0 281 0 c 1
 281 0 219 0 219 0 c 1
 219 0 281 0 281 0 c 1
 281 0 500 0 500 0 c 1
 500 0 500 100 500 100 c 1
EndSplineSet
Validated: 5
EndChar

StartChar: egrave
Encoding: 232 232 168
Width: 600
Flags: W
LayerCount: 2
Fore
SplineSet
150 819 m 1
 150 819 81 750 81 750 c 1
 81 750 244 588 244 588 c 1
 244 588 312 656 312 656 c 1
 312 656 150 819 150 819 c 1
500 100 m 1
 500 100 200 100 200 100 c 1
 200 100 200 100 200 100 c 1
 173 100 149 110 130 130 c 0
 110 149 100 173 100 200 c 1
 100 200 500 200 500 200 c 1
 500 200 500 300 500 300 c 1
 500 300 500 300 500 300 c 1
 500 355 480 402 441 441 c 0
 402 480 355 500 300 500 c 2
 300 500 200 500 200 500 c 1
 200 500 200 500 200 500 c 1
 145 500 98 480 59 441 c 0
 20 402 0 355 0 300 c 2
 0 300 0 200 0 200 c 1
 0 200 0 200 0 200 c 1
 0 145 20 98 59 59 c 0
 98 20 145 0 200 0 c 2
 200 0 500 0 500 0 c 1
 500 0 500 100 500 100 c 1
100 300 m 1
 100 300 100 300 100 300 c 1
 100 327 110 351 130 371 c 0
 149 390 173 400 200 400 c 2
 200 400 300 400 300 400 c 1
 300 400 300 400 300 400 c 1
 327 400 351 390 371 371 c 0
 390 351 400 327 400 300 c 1
 400 300 100 300 100 300 c 1
EndSplineSet
Validated: 5
EndChar

StartChar: eacute
Encoding: 233 233 169
Width: 600
Flags: W
LayerCount: 2
Fore
SplineSet
350 819 m 1
 350 819 187 656 187 656 c 1
 187 656 256 588 256 588 c 1
 256 588 419 750 419 750 c 1
 419 750 350 819 350 819 c 1
500 100 m 1
 500 100 200 100 200 100 c 1
 200 100 200 100 200 100 c 1
 173 100 149 110 130 130 c 0
 110 149 100 173 100 200 c 1
 100 200 500 200 500 200 c 1
 500 200 500 300 500 300 c 1
 500 300 500 300 500 300 c 1
 500 355 480 402 441 441 c 0
 402 480 355 500 300 500 c 2
 300 500 200 500 200 500 c 1
 200 500 200 500 200 500 c 1
 145 500 98 480 59 441 c 0
 20 402 0 355 0 300 c 2
 0 300 0 200 0 200 c 1
 0 200 0 200 0 200 c 1
 0 145 20 98 59 59 c 0
 98 20 145 0 200 0 c 2
 200 0 500 0 500 0 c 1
 500 0 500 100 500 100 c 1
100 300 m 1
 100 300 100 300 100 300 c 1
 100 327 110 351 130 371 c 0
 149 390 173 400 200 400 c 2
 200 400 300 400 300 400 c 1
 300 400 300 400 300 400 c 1
 327 400 351 390 371 371 c 0
 390 351 400 327 400 300 c 1
 400 300 100 300 100 300 c 1
EndSplineSet
Validated: 5
EndChar

StartChar: ecircumflex
Encoding: 234 234 170
Width: 600
Flags: W
LayerCount: 2
Fore
SplineSet
250 819 m 1
 250 819 87 656 87 656 c 1
 87 656 156 588 156 588 c 1
 156 588 250 681 250 681 c 1
 250 681 344 588 344 588 c 1
 344 588 412 656 412 656 c 1
 412 656 250 819 250 819 c 1
500 100 m 1
 500 100 200 100 200 100 c 1
 200 100 200 100 200 100 c 1
 173 100 149 110 130 130 c 0
 110 149 100 173 100 200 c 1
 100 200 500 200 500 200 c 1
 500 200 500 300 500 300 c 1
 500 300 500 300 500 300 c 1
 500 355 480 402 441 441 c 0
 402 480 355 500 300 500 c 2
 300 500 200 500 200 500 c 1
 200 500 200 500 200 500 c 1
 145 500 98 480 59 441 c 0
 20 402 0 355 0 300 c 2
 0 300 0 200 0 200 c 1
 0 200 0 200 0 200 c 1
 0 145 20 98 59 59 c 0
 98 20 145 0 200 0 c 2
 200 0 500 0 500 0 c 1
 500 0 500 100 500 100 c 1
100 300 m 1
 100 300 100 300 100 300 c 1
 100 327 110 351 130 371 c 0
 149 390 173 400 200 400 c 2
 200 400 300 400 300 400 c 1
 300 400 300 400 300 400 c 1
 327 400 351 390 371 371 c 0
 390 351 400 327 400 300 c 1
 400 300 100 300 100 300 c 1
EndSplineSet
Validated: 5
EndChar

StartChar: edieresis
Encoding: 235 235 171
Width: 600
Flags: W
LayerCount: 2
Fore
SplineSet
400 650 m 1
 400 664 395 676 386 686 c 0
 376 695 364 700 350 700 c 1
 350 700 350 700 350 700 c 1
 336 700 324 695 315 686 c 0
 305 676 300 664 300 650 c 1
 300 650 300 650 300 650 c 1
 300 636 305 624 315 615 c 0
 324 605 336 600 350 600 c 1
 350 600 350 600 350 600 c 1
 364 600 376 605 386 615 c 0
 395 624 400 636 400 650 c 1
 400 650 400 650 400 650 c 1
200 650 m 1
 200 664 195 676 186 686 c 0
 176 695 164 700 150 700 c 1
 150 700 150 700 150 700 c 1
 136 700 124 695 115 686 c 0
 105 676 100 664 100 650 c 1
 100 650 100 650 100 650 c 1
 100 636 105 624 115 615 c 0
 124 605 136 600 150 600 c 1
 150 600 150 600 150 600 c 1
 164 600 176 605 186 615 c 0
 195 624 200 636 200 650 c 1
 200 650 200 650 200 650 c 1
500 100 m 1
 500 100 200 100 200 100 c 1
 200 100 200 100 200 100 c 1
 173 100 149 110 130 130 c 0
 110 149 100 173 100 200 c 1
 100 200 500 200 500 200 c 1
 500 200 500 300 500 300 c 1
 500 300 500 300 500 300 c 1
 500 355 480 402 441 441 c 0
 402 480 355 500 300 500 c 2
 300 500 200 500 200 500 c 1
 200 500 200 500 200 500 c 1
 145 500 98 480 59 441 c 0
 20 402 0 355 0 300 c 2
 0 300 0 200 0 200 c 1
 0 200 0 200 0 200 c 1
 0 145 20 98 59 59 c 0
 98 20 145 0 200 0 c 2
 200 0 500 0 500 0 c 1
 500 0 500 100 500 100 c 1
100 300 m 1
 100 300 100 300 100 300 c 1
 100 327 110 351 130 371 c 0
 149 390 173 400 200 400 c 2
 200 400 300 400 300 400 c 1
 300 400 300 400 300 400 c 1
 327 400 351 390 371 371 c 0
 390 351 400 327 400 300 c 1
 400 300 100 300 100 300 c 1
EndSplineSet
Validated: 5
EndChar

StartChar: igrave
Encoding: 236 236 172
Width: 600
Flags: W
LayerCount: 2
Fore
SplineSet
150 819 m 1
 150 819 81 750 81 750 c 1
 81 750 244 588 244 588 c 1
 244 588 312 656 312 656 c 1
 312 656 150 819 150 819 c 1
400 100 m 1
 400 100 300 100 300 100 c 1
 300 100 300 500 300 500 c 1
 300 500 100 500 100 500 c 1
 100 500 100 400 100 400 c 1
 100 400 200 400 200 400 c 1
 200 400 200 100 200 100 c 1
 200 100 100 100 100 100 c 1
 100 100 100 0 100 0 c 1
 100 0 400 0 400 0 c 1
 400 0 400 100 400 100 c 1
EndSplineSet
Validated: 9
EndChar

StartChar: iacute
Encoding: 237 237 173
Width: 600
Flags: W
LayerCount: 2
Fore
SplineSet
350 819 m 1
 350 819 187 656 187 656 c 1
 187 656 256 588 256 588 c 1
 256 588 419 750 419 750 c 1
 419 750 350 819 350 819 c 1
400 100 m 1
 400 100 300 100 300 100 c 1
 300 100 300 500 300 500 c 1
 300 500 100 500 100 500 c 1
 100 500 100 400 100 400 c 1
 100 400 200 400 200 400 c 1
 200 400 200 100 200 100 c 1
 200 100 100 100 100 100 c 1
 100 100 100 0 100 0 c 1
 100 0 400 0 400 0 c 1
 400 0 400 100 400 100 c 1
EndSplineSet
Validated: 9
EndChar

StartChar: icircumflex
Encoding: 238 238 174
Width: 600
Flags: W
LayerCount: 2
Fore
SplineSet
250 819 m 1
 250 819 87 656 87 656 c 1
 87 656 156 588 156 588 c 1
 156 588 250 681 250 681 c 1
 250 681 344 588 344 588 c 1
 344 588 412 656 412 656 c 1
 412 656 250 819 250 819 c 1
400 100 m 1
 400 100 300 100 300 100 c 1
 300 100 300 500 300 500 c 1
 300 500 100 500 100 500 c 1
 100 500 100 400 100 400 c 1
 100 400 200 400 200 400 c 1
 200 400 200 100 200 100 c 1
 200 100 100 100 100 100 c 1
 100 100 100 0 100 0 c 1
 100 0 400 0 400 0 c 1
 400 0 400 100 400 100 c 1
EndSplineSet
Validated: 9
EndChar

StartChar: idieresis
Encoding: 239 239 175
Width: 600
Flags: W
LayerCount: 2
Fore
SplineSet
400 650 m 1
 400 664 395 676 386 686 c 0
 376 695 364 700 350 700 c 1
 350 700 350 700 350 700 c 1
 336 700 324 695 315 686 c 0
 305 676 300 664 300 650 c 1
 300 650 300 650 300 650 c 1
 300 636 305 624 315 615 c 0
 324 605 336 600 350 600 c 1
 350 600 350 600 350 600 c 1
 364 600 376 605 386 615 c 0
 395 624 400 636 400 650 c 1
 400 650 400 650 400 650 c 1
200 650 m 1
 200 664 195 676 186 686 c 0
 176 695 164 700 150 700 c 1
 150 700 150 700 150 700 c 1
 136 700 124 695 115 686 c 0
 105 676 100 664 100 650 c 1
 100 650 100 650 100 650 c 1
 100 636 105 624 115 615 c 0
 124 605 136 600 150 600 c 1
 150 600 150 600 150 600 c 1
 164 600 176 605 186 615 c 0
 195 624 200 636 200 650 c 1
 200 650 200 650 200 650 c 1
400 100 m 1
 400 100 300 100 300 100 c 1
 300 100 300 500 300 500 c 1
 300 500 100 500 100 500 c 1
 100 500 100 400 100 400 c 1
 100 400 200 400 200 400 c 1
 200 400 200 100 200 100 c 1
 200 100 100 100 100 100 c 1
 100 100 100 0 100 0 c 1
 100 0 400 0 400 0 c 1
 400 0 400 100 400 100 c 1
EndSplineSet
Validated: 5
EndChar

StartChar: eth
Encoding: 240 240 176
Width: 600
Flags: W
LayerCount: 2
Fore
SplineSet
500 388 m 1
 500 388 500 388 500 388 c 1
 500 443 481 489 443 527 c 2
 443 527 271 700 271 700 c 1
 271 700 333 762 333 762 c 1
 333 762 262 833 262 833 c 1
 262 833 200 771 200 771 c 1
 200 771 138 833 138 833 c 1
 138 833 67 762 67 762 c 1
 67 762 129 700 129 700 c 1
 129 700 67 638 67 638 c 1
 67 638 138 567 138 567 c 1
 138 567 200 629 200 629 c 1
 200 629 332 497 332 497 c 1
 332 497 332 497 332 497 c 1
 321 499 310 500 300 500 c 2
 300 500 200 500 200 500 c 1
 200 500 200 500 200 500 c 1
 145 500 98 480 59 441 c 0
 20 402 0 355 0 300 c 2
 0 300 0 200 0 200 c 1
 0 200 0 200 0 200 c 1
 0 145 20 98 59 59 c 0
 98 20 145 0 200 0 c 2
 200 0 300 0 300 0 c 1
 300 0 300 0 300 0 c 1
 355 0 403 20 442 59 c 0
 481 98 500 145 500 200 c 2
 500 200 500 388 500 388 c 1
400 200 m 1
 400 173 390 149 371 130 c 0
 351 110 327 100 300 100 c 2
 300 100 200 100 200 100 c 1
 200 100 200 100 200 100 c 1
 173 100 149 110 130 130 c 0
 110 149 100 173 100 200 c 2
 100 200 100 300 100 300 c 1
 100 300 100 300 100 300 c 1
 100 327 110 351 130 371 c 0
 149 390 173 400 200 400 c 2
 200 400 300 400 300 400 c 1
 300 400 300 400 300 400 c 1
 327 400 351 390 371 371 c 0
 390 351 400 327 400 300 c 2
 400 300 400 200 400 200 c 1
 400 200 400 200 400 200 c 1
EndSplineSet
Validated: 5
EndChar

StartChar: ntilde
Encoding: 241 241 177
Width: 600
Flags: W
LayerCount: 2
Fore
SplineSet
500 800 m 1
 500 800 400 800 400 800 c 1
 400 800 400 750 400 750 c 1
 400 750 400 750 400 750 c 1
 400 736 395 724 386 715 c 0
 376 705 364 700 350 700 c 1
 350 700 350 700 350 700 c 1
 325 700 292 721 250 763 c 1
 250 763 250 763 250 763 c 1
 225 788 192 800 150 800 c 1
 150 800 150 800 150 800 c 1
 109 800 73 785 44 756 c 0
 15 727 0 691 0 650 c 2
 0 650 0 600 0 600 c 1
 0 600 100 600 100 600 c 1
 100 600 100 650 100 650 c 1
 100 650 100 650 100 650 c 1
 100 664 105 676 115 686 c 0
 124 695 136 700 150 700 c 1
 150 700 150 700 150 700 c 1
 175 700 209 679 250 638 c 1
 250 638 250 638 250 638 c 1
 275 613 309 600 350 600 c 1
 350 600 350 600 350 600 c 1
 391 600 427 615 456 644 c 0
 485 673 500 709 500 750 c 2
 500 750 500 800 500 800 c 1
0 500 m 1
 0 500 0 0 0 0 c 1
 0 0 100 0 100 0 c 1
 100 0 100 250 100 250 c 1
 100 250 200 350 200 350 c 1
 200 350 200 350 200 350 c 1
 233 383 267 400 300 400 c 1
 300 400 300 400 300 400 c 1
 327 400 351 390 371 371 c 0
 390 351 400 327 400 300 c 2
 400 300 400 0 400 0 c 1
 400 0 500 0 500 0 c 1
 500 0 500 300 500 300 c 1
 500 300 500 300 500 300 c 1
 500 355 481 403 442 442 c 0
 403 481 355 500 300 500 c 1
 300 500 300 500 300 500 c 1
 259 500 213 475 163 425 c 2
 163 425 100 363 100 363 c 1
 100 363 100 500 100 500 c 1
 100 500 0 500 0 500 c 1
EndSplineSet
Validated: 5
EndChar

StartChar: ograve
Encoding: 242 242 178
Width: 600
Flags: W
LayerCount: 2
Fore
SplineSet
150 819 m 1
 150 819 81 750 81 750 c 1
 81 750 244 588 244 588 c 1
 244 588 312 656 312 656 c 1
 312 656 150 819 150 819 c 1
500 300 m 1
 500 300 500 300 500 300 c 1
 500 355 480 402 441 441 c 0
 402 480 355 500 300 500 c 2
 300 500 200 500 200 500 c 1
 200 500 200 500 200 500 c 1
 145 500 98 480 59 441 c 0
 20 402 0 355 0 300 c 2
 0 300 0 200 0 200 c 1
 0 200 0 200 0 200 c 1
 0 145 20 98 59 59 c 0
 98 20 145 0 200 0 c 2
 200 0 300 0 300 0 c 1
 300 0 300 0 300 0 c 1
 355 0 402 20 441 59 c 0
 480 98 500 145 500 200 c 2
 500 200 500 300 500 300 c 1
400 200 m 1
 400 173 390 149 371 130 c 0
 351 110 327 100 300 100 c 2
 300 100 200 100 200 100 c 1
 200 100 200 100 200 100 c 1
 173 100 149 110 130 130 c 0
 110 149 100 173 100 200 c 2
 100 200 100 300 100 300 c 1
 100 300 100 300 100 300 c 1
 100 327 110 351 130 371 c 0
 149 390 173 400 200 400 c 2
 200 400 300 400 300 400 c 1
 300 400 300 400 300 400 c 1
 327 400 351 390 371 371 c 0
 390 351 400 327 400 300 c 2
 400 300 400 200 400 200 c 1
 400 200 400 200 400 200 c 1
EndSplineSet
Validated: 5
EndChar

StartChar: oacute
Encoding: 243 243 179
Width: 600
Flags: W
LayerCount: 2
Fore
SplineSet
350 819 m 1
 350 819 187 656 187 656 c 1
 187 656 256 588 256 588 c 1
 256 588 419 750 419 750 c 1
 419 750 350 819 350 819 c 1
500 300 m 1
 500 300 500 300 500 300 c 1
 500 355 480 402 441 441 c 0
 402 480 355 500 300 500 c 2
 300 500 200 500 200 500 c 1
 200 500 200 500 200 500 c 1
 145 500 98 480 59 441 c 0
 20 402 0 355 0 300 c 2
 0 300 0 200 0 200 c 1
 0 200 0 200 0 200 c 1
 0 145 20 98 59 59 c 0
 98 20 145 0 200 0 c 2
 200 0 300 0 300 0 c 1
 300 0 300 0 300 0 c 1
 355 0 402 20 441 59 c 0
 480 98 500 145 500 200 c 2
 500 200 500 300 500 300 c 1
400 200 m 1
 400 173 390 149 371 130 c 0
 351 110 327 100 300 100 c 2
 300 100 200 100 200 100 c 1
 200 100 200 100 200 100 c 1
 173 100 149 110 130 130 c 0
 110 149 100 173 100 200 c 2
 100 200 100 300 100 300 c 1
 100 300 100 300 100 300 c 1
 100 327 110 351 130 371 c 0
 149 390 173 400 200 400 c 2
 200 400 300 400 300 400 c 1
 300 400 300 400 300 400 c 1
 327 400 351 390 371 371 c 0
 390 351 400 327 400 300 c 2
 400 300 400 200 400 200 c 1
 400 200 400 200 400 200 c 1
EndSplineSet
Validated: 5
EndChar

StartChar: ocircumflex
Encoding: 244 244 180
Width: 600
Flags: W
LayerCount: 2
Fore
SplineSet
250 819 m 1
 250 819 87 656 87 656 c 1
 87 656 156 588 156 588 c 1
 156 588 250 681 250 681 c 1
 250 681 344 588 344 588 c 1
 344 588 412 656 412 656 c 1
 412 656 250 819 250 819 c 1
500 300 m 1
 500 300 500 300 500 300 c 1
 500 355 480 402 441 441 c 0
 402 480 355 500 300 500 c 2
 300 500 200 500 200 500 c 1
 200 500 200 500 200 500 c 1
 145 500 98 480 59 441 c 0
 20 402 0 355 0 300 c 2
 0 300 0 200 0 200 c 1
 0 200 0 200 0 200 c 1
 0 145 20 98 59 59 c 0
 98 20 145 0 200 0 c 2
 200 0 300 0 300 0 c 1
 300 0 300 0 300 0 c 1
 355 0 402 20 441 59 c 0
 480 98 500 145 500 200 c 2
 500 200 500 300 500 300 c 1
400 200 m 1
 400 173 390 149 371 130 c 0
 351 110 327 100 300 100 c 2
 300 100 200 100 200 100 c 1
 200 100 200 100 200 100 c 1
 173 100 149 110 130 130 c 0
 110 149 100 173 100 200 c 2
 100 200 100 300 100 300 c 1
 100 300 100 300 100 300 c 1
 100 327 110 351 130 371 c 0
 149 390 173 400 200 400 c 2
 200 400 300 400 300 400 c 1
 300 400 300 400 300 400 c 1
 327 400 351 390 371 371 c 0
 390 351 400 327 400 300 c 2
 400 300 400 200 400 200 c 1
 400 200 400 200 400 200 c 1
EndSplineSet
Validated: 5
EndChar

StartChar: otilde
Encoding: 245 245 181
Width: 600
Flags: W
LayerCount: 2
Fore
SplineSet
500 800 m 1
 500 800 400 800 400 800 c 1
 400 800 400 750 400 750 c 1
 400 750 400 750 400 750 c 1
 400 736 395 724 386 715 c 0
 376 705 364 700 350 700 c 1
 350 700 350 700 350 700 c 1
 325 700 292 721 250 763 c 1
 250 763 250 763 250 763 c 1
 225 788 192 800 150 800 c 1
 150 800 150 800 150 800 c 1
 109 800 73 785 44 756 c 0
 15 727 0 691 0 650 c 2
 0 650 0 600 0 600 c 1
 0 600 100 600 100 600 c 1
 100 600 100 650 100 650 c 1
 100 650 100 650 100 650 c 1
 100 664 105 676 115 686 c 0
 124 695 136 700 150 700 c 1
 150 700 150 700 150 700 c 1
 175 700 209 679 250 638 c 1
 250 638 250 638 250 638 c 1
 275 613 309 600 350 600 c 1
 350 600 350 600 350 600 c 1
 391 600 427 615 456 644 c 0
 485 673 500 709 500 750 c 2
 500 750 500 800 500 800 c 1
500 300 m 1
 500 300 500 300 500 300 c 1
 500 355 480 402 441 441 c 0
 402 480 355 500 300 500 c 2
 300 500 200 500 200 500 c 1
 200 500 200 500 200 500 c 1
 145 500 98 480 59 441 c 0
 20 402 0 355 0 300 c 2
 0 300 0 200 0 200 c 1
 0 200 0 200 0 200 c 1
 0 145 20 98 59 59 c 0
 98 20 145 0 200 0 c 2
 200 0 300 0 300 0 c 1
 300 0 300 0 300 0 c 1
 355 0 402 20 441 59 c 0
 480 98 500 145 500 200 c 2
 500 200 500 300 500 300 c 1
400 200 m 1
 400 173 390 149 371 130 c 0
 351 110 327 100 300 100 c 2
 300 100 200 100 200 100 c 1
 200 100 200 100 200 100 c 1
 173 100 149 110 130 130 c 0
 110 149 100 173 100 200 c 2
 100 200 100 300 100 300 c 1
 100 300 100 300 100 300 c 1
 100 327 110 351 130 371 c 0
 149 390 173 400 200 400 c 2
 200 400 300 400 300 400 c 1
 300 400 300 400 300 400 c 1
 327 400 351 390 371 371 c 0
 390 351 400 327 400 300 c 2
 400 300 400 200 400 200 c 1
 400 200 400 200 400 200 c 1
EndSplineSet
Validated: 5
EndChar

StartChar: odieresis
Encoding: 246 246 182
Width: 600
Flags: W
LayerCount: 2
Fore
SplineSet
400 650 m 1
 400 664 395 676 386 686 c 0
 376 695 364 700 350 700 c 1
 350 700 350 700 350 700 c 1
 336 700 324 695 315 686 c 0
 305 676 300 664 300 650 c 1
 300 650 300 650 300 650 c 1
 300 636 305 624 315 615 c 0
 324 605 336 600 350 600 c 1
 350 600 350 600 350 600 c 1
 364 600 376 605 386 615 c 0
 395 624 400 636 400 650 c 1
 400 650 400 650 400 650 c 1
200 650 m 1
 200 664 195 676 186 686 c 0
 176 695 164 700 150 700 c 1
 150 700 150 700 150 700 c 1
 136 700 124 695 115 686 c 0
 105 676 100 664 100 650 c 1
 100 650 100 650 100 650 c 1
 100 636 105 624 115 615 c 0
 124 605 136 600 150 600 c 1
 150 600 150 600 150 600 c 1
 164 600 176 605 186 615 c 0
 195 624 200 636 200 650 c 1
 200 650 200 650 200 650 c 1
500 300 m 1
 500 300 500 300 500 300 c 1
 500 355 480 402 441 441 c 0
 402 480 355 500 300 500 c 2
 300 500 200 500 200 500 c 1
 200 500 200 500 200 500 c 1
 145 500 98 480 59 441 c 0
 20 402 0 355 0 300 c 2
 0 300 0 200 0 200 c 1
 0 200 0 200 0 200 c 1
 0 145 20 98 59 59 c 0
 98 20 145 0 200 0 c 2
 200 0 300 0 300 0 c 1
 300 0 300 0 300 0 c 1
 355 0 402 20 441 59 c 0
 480 98 500 145 500 200 c 2
 500 200 500 300 500 300 c 1
400 200 m 1
 400 173 390 149 371 130 c 0
 351 110 327 100 300 100 c 2
 300 100 200 100 200 100 c 1
 200 100 200 100 200 100 c 1
 173 100 149 110 130 130 c 0
 110 149 100 173 100 200 c 2
 100 200 100 300 100 300 c 1
 100 300 100 300 100 300 c 1
 100 327 110 351 130 371 c 0
 149 390 173 400 200 400 c 2
 200 400 300 400 300 400 c 1
 300 400 300 400 300 400 c 1
 327 400 351 390 371 371 c 0
 390 351 400 327 400 300 c 2
 400 300 400 200 400 200 c 1
 400 200 400 200 400 200 c 1
EndSplineSet
Validated: 5
EndChar

StartChar: divide
Encoding: 247 247 183
Width: 600
Flags: W
LayerCount: 2
Fore
SplineSet
300 550 m 1
 300 564 295 576 286 586 c 0
 276 595 264 600 250 600 c 1
 250 600 250 600 250 600 c 1
 236 600 224 595 215 586 c 0
 205 576 200 564 200 550 c 1
 200 550 200 550 200 550 c 1
 200 536 205 524 215 515 c 0
 224 505 236 500 250 500 c 1
 250 500 250 500 250 500 c 1
 264 500 276 505 286 515 c 0
 295 524 300 536 300 550 c 1
 300 550 300 550 300 550 c 1
500 400 m 1
 500 400 0 400 0 400 c 1
 0 400 0 300 0 300 c 1
 0 300 500 300 500 300 c 1
 500 300 500 400 500 400 c 1
300 150 m 1
 300 164 295 176 286 186 c 0
 276 195 264 200 250 200 c 1
 250 200 250 200 250 200 c 1
 236 200 224 195 215 186 c 0
 205 176 200 164 200 150 c 1
 200 150 200 150 200 150 c 1
 200 136 205 124 215 115 c 0
 224 105 236 100 250 100 c 1
 250 100 250 100 250 100 c 1
 264 100 276 105 286 115 c 0
 295 124 300 136 300 150 c 1
 300 150 300 150 300 150 c 1
EndSplineSet
Validated: 5
EndChar

StartChar: oslash
Encoding: 248 248 184
Width: 600
Flags: W
LayerCount: 2
Fore
SplineSet
500 300 m 1
 500 300 500 300 500 300 c 1
 500 355 480 402 441 441 c 0
 402 480 355 500 300 500 c 2
 300 500 200 500 200 500 c 1
 200 500 200 500 200 500 c 1
 145 500 98 480 59 441 c 0
 20 402 0 355 0 300 c 2
 0 300 0 200 0 200 c 1
 0 200 0 200 0 200 c 1
 0 145 20 98 59 59 c 0
 98 20 145 0 200 0 c 2
 200 0 300 0 300 0 c 1
 300 0 300 0 300 0 c 1
 355 0 402 20 441 59 c 0
 480 98 500 145 500 200 c 2
 500 200 500 300 500 300 c 1
105 176 m 1
 105 176 105 176 105 176 c 1
 102 189 100 197 100 200 c 2
 100 200 100 300 100 300 c 1
 100 300 100 300 100 300 c 1
 100 327 110 351 130 371 c 0
 149 390 173 400 200 400 c 2
 200 400 300 400 300 400 c 1
 300 400 300 400 300 400 c 1
 307 400 315 399 326 396 c 1
 326 396 105 176 105 176 c 1
400 200 m 1
 400 173 390 149 371 130 c 0
 351 110 327 100 300 100 c 2
 300 100 200 100 200 100 c 1
 200 100 200 100 200 100 c 1
 194 100 186 101 175 104 c 1
 175 104 397 326 397 326 c 1
 397 326 397 326 397 326 c 1
 399 317 400 309 400 300 c 2
 400 300 400 200 400 200 c 1
 400 200 400 200 400 200 c 1
EndSplineSet
Validated: 5
EndChar

StartChar: ugrave
Encoding: 249 249 185
Width: 600
Flags: W
LayerCount: 2
Fore
SplineSet
150 819 m 1
 150 819 81 750 81 750 c 1
 81 750 244 588 244 588 c 1
 244 588 312 656 312 656 c 1
 312 656 150 819 150 819 c 1
500 0 m 1
 500 0 500 500 500 500 c 1
 500 500 400 500 400 500 c 1
 400 500 400 250 400 250 c 1
 400 250 300 150 300 150 c 1
 300 150 300 150 300 150 c 1
 267 117 233 100 200 100 c 1
 200 100 200 100 200 100 c 1
 173 100 149 110 130 130 c 0
 110 149 100 173 100 200 c 2
 100 200 100 500 100 500 c 1
 100 500 0 500 0 500 c 1
 0 500 0 200 0 200 c 1
 0 200 0 200 0 200 c 1
 0 145 20 98 59 59 c 0
 98 20 145 0 200 0 c 1
 200 0 200 0 200 0 c 1
 242 0 288 25 338 75 c 2
 338 75 400 138 400 138 c 1
 400 138 400 0 400 0 c 1
 400 0 500 0 500 0 c 1
EndSplineSet
Validated: 5
EndChar

StartChar: uacute
Encoding: 250 250 186
Width: 600
Flags: W
LayerCount: 2
Fore
SplineSet
350 819 m 1
 350 819 187 656 187 656 c 1
 187 656 256 588 256 588 c 1
 256 588 419 750 419 750 c 1
 419 750 350 819 350 819 c 1
500 0 m 1
 500 0 500 500 500 500 c 1
 500 500 400 500 400 500 c 1
 400 500 400 250 400 250 c 1
 400 250 300 150 300 150 c 1
 300 150 300 150 300 150 c 1
 267 117 233 100 200 100 c 1
 200 100 200 100 200 100 c 1
 173 100 149 110 130 130 c 0
 110 149 100 173 100 200 c 2
 100 200 100 500 100 500 c 1
 100 500 0 500 0 500 c 1
 0 500 0 200 0 200 c 1
 0 200 0 200 0 200 c 1
 0 145 20 98 59 59 c 0
 98 20 145 0 200 0 c 1
 200 0 200 0 200 0 c 1
 242 0 288 25 338 75 c 2
 338 75 400 138 400 138 c 1
 400 138 400 0 400 0 c 1
 400 0 500 0 500 0 c 1
EndSplineSet
Validated: 5
EndChar

StartChar: ucircumflex
Encoding: 251 251 187
Width: 600
Flags: W
LayerCount: 2
Fore
SplineSet
250 813 m 1
 250 813 87 650 87 650 c 1
 87 650 156 581 156 581 c 1
 156 581 250 675 250 675 c 1
 250 675 344 581 344 581 c 1
 344 581 412 650 412 650 c 1
 412 650 250 813 250 813 c 1
500 0 m 1
 500 0 500 500 500 500 c 1
 500 500 400 500 400 500 c 1
 400 500 400 250 400 250 c 1
 400 250 300 150 300 150 c 1
 300 150 300 150 300 150 c 1
 267 117 233 100 200 100 c 1
 200 100 200 100 200 100 c 1
 173 100 149 110 130 130 c 0
 110 149 100 173 100 200 c 2
 100 200 100 500 100 500 c 1
 100 500 0 500 0 500 c 1
 0 500 0 200 0 200 c 1
 0 200 0 200 0 200 c 1
 0 145 20 98 59 59 c 0
 98 20 145 0 200 0 c 1
 200 0 200 0 200 0 c 1
 242 0 288 25 338 75 c 2
 338 75 400 138 400 138 c 1
 400 138 400 0 400 0 c 1
 400 0 500 0 500 0 c 1
EndSplineSet
Validated: 5
EndChar

StartChar: udieresis
Encoding: 252 252 188
Width: 600
Flags: W
LayerCount: 2
Fore
SplineSet
400 650 m 1
 400 664 395 676 386 686 c 0
 376 695 364 700 350 700 c 1
 350 700 350 700 350 700 c 1
 336 700 324 695 315 686 c 0
 305 676 300 664 300 650 c 1
 300 650 300 650 300 650 c 1
 300 636 305 624 315 615 c 0
 324 605 336 600 350 600 c 1
 350 600 350 600 350 600 c 1
 364 600 376 605 386 615 c 0
 395 624 400 636 400 650 c 1
 400 650 400 650 400 650 c 1
200 650 m 1
 200 664 195 676 186 686 c 0
 176 695 164 700 150 700 c 1
 150 700 150 700 150 700 c 1
 136 700 124 695 115 686 c 0
 105 676 100 664 100 650 c 1
 100 650 100 650 100 650 c 1
 100 636 105 624 115 615 c 0
 124 605 136 600 150 600 c 1
 150 600 150 600 150 600 c 1
 164 600 176 605 186 615 c 0
 195 624 200 636 200 650 c 1
 200 650 200 650 200 650 c 1
500 0 m 1
 500 0 500 500 500 500 c 1
 500 500 400 500 400 500 c 1
 400 500 400 250 400 250 c 1
 400 250 300 150 300 150 c 1
 300 150 300 150 300 150 c 1
 267 117 233 100 200 100 c 1
 200 100 200 100 200 100 c 1
 173 100 149 110 130 130 c 0
 110 149 100 173 100 200 c 2
 100 200 100 500 100 500 c 1
 100 500 0 500 0 500 c 1
 0 500 0 200 0 200 c 1
 0 200 0 200 0 200 c 1
 0 145 20 98 59 59 c 0
 98 20 145 0 200 0 c 1
 200 0 200 0 200 0 c 1
 242 0 288 25 338 75 c 2
 338 75 400 138 400 138 c 1
 400 138 400 0 400 0 c 1
 400 0 500 0 500 0 c 1
EndSplineSet
Validated: 5
EndChar

StartChar: yacute
Encoding: 253 253 189
Width: 600
Flags: W
LayerCount: 2
Fore
SplineSet
350 819 m 1
 350 819 187 656 187 656 c 1
 187 656 256 588 256 588 c 1
 256 588 419 750 419 750 c 1
 419 750 350 819 350 819 c 1
500 500 m 1
 500 500 400 500 400 500 c 1
 400 500 400 100 400 100 c 1
 400 100 200 100 200 100 c 1
 200 100 200 100 200 100 c 1
 173 100 149 110 130 130 c 0
 110 149 100 173 100 200 c 2
 100 200 100 500 100 500 c 1
 100 500 0 500 0 500 c 1
 0 500 0 200 0 200 c 1
 0 200 0 200 0 200 c 1
 0 145 20 98 59 59 c 0
 98 20 145 0 200 0 c 2
 200 0 400 0 400 0 c 1
 400 0 400 0 400 0 c 1
 400 -27 390 -50 371 -69 c 0
 351 -89 327 -99 300 -99 c 2
 300 -99 100 -99 100 -99 c 1
 100 -99 100 -199 100 -199 c 1
 100 -199 300 -199 300 -199 c 1
 300 -199 300 -199 300 -199 c 1
 355 -199 402 -179 441 -140 c 0
 480 -101 500 -55 500 0 c 2
 500 0 500 500 500 500 c 1
EndSplineSet
Validated: 5
EndChar

StartChar: thorn
Encoding: 254 254 190
Width: 600
Flags: W
LayerCount: 2
Fore
SplineSet
500 300 m 1
 500 300 500 300 500 300 c 1
 500 355 480 402 441 441 c 0
 402 480 355 500 300 500 c 2
 300 500 100 500 100 500 c 1
 100 500 100 700 100 700 c 1
 100 700 0 700 0 700 c 1
 0 700 0 -199 0 -199 c 1
 0 -199 100 -199 100 -199 c 1
 100 -199 100 0 100 0 c 1
 100 0 300 0 300 0 c 1
 300 0 300 0 300 0 c 1
 355 0 402 20 441 59 c 0
 480 98 500 145 500 200 c 2
 500 200 500 300 500 300 c 1
400 200 m 1
 400 173 390 149 371 130 c 0
 351 110 327 100 300 100 c 2
 300 100 100 100 100 100 c 1
 100 100 100 400 100 400 c 1
 100 400 300 400 300 400 c 1
 300 400 300 400 300 400 c 1
 327 400 351 390 371 371 c 0
 390 351 400 327 400 300 c 2
 400 300 400 200 400 200 c 1
 400 200 400 200 400 200 c 1
EndSplineSet
Validated: 5
EndChar

StartChar: ydieresis
Encoding: 255 255 191
Width: 600
Flags: W
LayerCount: 2
Fore
SplineSet
400 650 m 1
 400 664 395 676 386 686 c 0
 376 695 364 700 350 700 c 1
 350 700 350 700 350 700 c 1
 336 700 324 695 315 686 c 0
 305 676 300 664 300 650 c 1
 300 650 300 650 300 650 c 1
 300 636 305 624 315 615 c 0
 324 605 336 600 350 600 c 1
 350 600 350 600 350 600 c 1
 364 600 376 605 386 615 c 0
 395 624 400 636 400 650 c 1
 400 650 400 650 400 650 c 1
200 650 m 1
 200 664 195 676 186 686 c 0
 176 695 164 700 150 700 c 1
 150 700 150 700 150 700 c 1
 136 700 124 695 115 686 c 0
 105 676 100 664 100 650 c 1
 100 650 100 650 100 650 c 1
 100 636 105 624 115 615 c 0
 124 605 136 600 150 600 c 1
 150 600 150 600 150 600 c 1
 164 600 176 605 186 615 c 0
 195 624 200 636 200 650 c 1
 200 650 200 650 200 650 c 1
500 500 m 1
 500 500 400 500 400 500 c 1
 400 500 400 100 400 100 c 1
 400 100 200 100 200 100 c 1
 200 100 200 100 200 100 c 1
 173 100 149 110 130 130 c 0
 110 149 100 173 100 200 c 2
 100 200 100 500 100 500 c 1
 100 500 0 500 0 500 c 1
 0 500 0 200 0 200 c 1
 0 200 0 200 0 200 c 1
 0 145 20 98 59 59 c 0
 98 20 145 0 200 0 c 2
 200 0 400 0 400 0 c 1
 400 0 400 0 400 0 c 1
 400 -27 390 -50 371 -69 c 0
 351 -89 327 -99 300 -99 c 2
 300 -99 100 -99 100 -99 c 1
 100 -99 100 -199 100 -199 c 1
 100 -199 300 -199 300 -199 c 1
 300 -199 300 -199 300 -199 c 1
 355 -199 402 -179 441 -140 c 0
 480 -101 500 -55 500 0 c 2
 500 0 500 500 500 500 c 1
EndSplineSet
Validated: 5
EndChar

StartChar: dotlessi
Encoding: 305 305 193
Width: 600
Flags: W
LayerCount: 2
Fore
SplineSet
400 100 m 1
 400 100 300 100 300 100 c 1
 300 100 300 500 300 500 c 1
 300 500 100 500 100 500 c 1
 100 500 100 400 100 400 c 1
 100 400 200 400 200 400 c 1
 200 400 200 100 200 100 c 1
 200 100 100 100 100 100 c 1
 100 100 100 0 100 0 c 1
 100 0 400 0 400 0 c 1
 400 0 400 100 400 100 c 1
EndSplineSet
Validated: 9
EndChar

StartChar: OE
Encoding: 338 338 194
Width: 600
Flags: W
LayerCount: 2
Fore
SplineSet
500 100 m 1
 500 100 300 100 300 100 c 1
 300 100 300 300 300 300 c 1
 300 300 400 300 400 300 c 1
 400 300 400 400 400 400 c 1
 400 400 300 400 300 400 c 1
 300 400 300 600 300 600 c 1
 300 600 500 600 500 600 c 1
 500 600 500 700 500 700 c 1
 500 700 200 700 200 700 c 1
 200 700 200 700 200 700 c 1
 145 700 98 680 59 641 c 0
 20 602 0 555 0 500 c 2
 0 500 0 200 0 200 c 1
 0 200 0 200 0 200 c 1
 0 145 20 98 59 59 c 0
 98 20 145 0 200 0 c 2
 200 0 500 0 500 0 c 1
 500 0 500 100 500 100 c 1
200 100 m 1
 173 100 149 110 130 130 c 0
 110 149 100 173 100 200 c 2
 100 200 100 500 100 500 c 1
 100 500 100 500 100 500 c 1
 100 527 110 551 130 571 c 0
 149 590 173 600 200 600 c 1
 200 600 200 100 200 100 c 1
 200 100 200 100 200 100 c 1
EndSplineSet
Validated: 5
EndChar

StartChar: oe
Encoding: 339 339 195
Width: 600
Flags: W
LayerCount: 2
Fore
SplineSet
500 100 m 1
 500 100 350 100 350 100 c 1
 350 100 350 100 350 100 c 1
 336 100 324 105 315 115 c 0
 305 124 300 136 300 150 c 1
 300 150 300 150 300 150 c 1
 300 164 305 176 315 186 c 0
 324 195 336 200 350 200 c 2
 350 200 500 200 500 200 c 1
 500 200 500 350 500 350 c 1
 500 350 500 350 500 350 c 1
 500 391 485 427 456 456 c 0
 427 485 391 500 350 500 c 1
 350 500 350 500 350 500 c 1
 314 500 282 486 253 459 c 1
 253 459 253 459 253 459 c 1
 224 486 189 500 150 500 c 1
 150 500 150 500 150 500 c 1
 109 500 73 485 44 456 c 0
 15 427 0 391 0 350 c 2
 0 350 0 150 0 150 c 1
 0 150 0 150 0 150 c 1
 0 109 15 73 44 44 c 0
 73 15 109 0 150 0 c 1
 150 0 150 0 150 0 c 1
 190 0 224 13 252 40 c 1
 252 40 252 40 252 40 c 1
 281 13 313 0 350 0 c 2
 350 0 500 0 500 0 c 1
 500 0 500 100 500 100 c 1
400 350 m 1
 400 336 395 324 386 315 c 0
 376 305 364 300 350 300 c 1
 350 300 350 300 350 300 c 1
 336 300 324 305 315 315 c 0
 305 324 300 336 300 350 c 1
 300 350 300 350 300 350 c 1
 300 364 305 376 315 386 c 0
 324 395 336 400 350 400 c 1
 350 400 350 400 350 400 c 1
 364 400 376 395 386 386 c 0
 395 376 400 364 400 350 c 1
 400 350 400 350 400 350 c 1
200 150 m 1
 200 136 195 124 186 115 c 0
 176 105 164 100 150 100 c 1
 150 100 150 100 150 100 c 1
 136 100 124 105 115 115 c 0
 105 124 100 136 100 150 c 2
 100 150 100 350 100 350 c 1
 100 350 100 350 100 350 c 1
 100 364 105 376 115 386 c 0
 124 395 136 400 150 400 c 1
 150 400 150 400 150 400 c 1
 164 400 176 395 186 386 c 0
 195 376 200 364 200 350 c 2
 200 350 200 150 200 150 c 1
 200 150 200 150 200 150 c 1
EndSplineSet
Validated: 5
EndChar

StartChar: Scaron
Encoding: 352 352 196
Width: 600
Flags: W
LayerCount: 2
Fore
SplineSet
200 700 m 1
 145 700 98 681 59 642 c 0
 20 603 0 555 0 500 c 1
 0 500 0 500 0 500 c 1
 0 445 20 398 59 359 c 0
 98 320 145 300 200 300 c 2
 200 300 300 300 300 300 c 1
 300 300 300 300 300 300 c 1
 327 300 351 290 371 271 c 0
 390 251 400 227 400 200 c 1
 400 200 400 200 400 200 c 1
 400 173 390 149 371 130 c 0
 351 110 327 100 300 100 c 2
 300 100 200 100 200 100 c 1
 200 100 200 100 200 100 c 1
 173 100 149 110 130 130 c 0
 110 149 100 173 100 200 c 1
 100 200 0 200 0 200 c 1
 0 200 0 200 0 200 c 1
 0 145 20 98 59 59 c 0
 98 20 145 0 200 0 c 2
 200 0 300 0 300 0 c 1
 300 0 300 0 300 0 c 1
 355 0 403 20 442 59 c 0
 481 98 500 145 500 200 c 1
 500 200 500 200 500 200 c 1
 500 255 481 303 442 342 c 0
 403 381 355 400 300 400 c 2
 300 400 200 400 200 400 c 1
 200 400 200 400 200 400 c 1
 173 400 149 410 130 430 c 0
 110 449 100 473 100 500 c 1
 100 500 100 500 100 500 c 1
 100 527 110 551 130 571 c 0
 149 590 173 600 200 600 c 2
 200 600 300 600 300 600 c 1
 300 600 300 600 300 600 c 1
 327 600 351 590 371 571 c 0
 390 551 400 527 400 500 c 1
 400 500 500 500 500 500 c 1
 500 500 500 500 500 500 c 1
 500 555 481 603 442 642 c 0
 403 681 355 700 300 700 c 2
 300 700 281 700 281 700 c 1
 281 700 413 831 413 831 c 1
 413 831 344 900 344 900 c 1
 344 900 250 806 250 806 c 1
 250 806 156 900 156 900 c 1
 156 900 88 831 88 831 c 1
 88 831 88 831 88 831 c 1
 151 768 195 724 219 700 c 1
 219 700 200 700 200 700 c 1
 200 700 200 700 200 700 c 1
EndSplineSet
Validated: 5
EndChar

StartChar: scaron
Encoding: 353 353 197
Width: 600
Flags: W
LayerCount: 2
Fore
SplineSet
342 819 m 1
 342 819 248 726 248 726 c 1
 248 726 154 819 154 819 c 1
 154 819 85 751 85 751 c 1
 85 751 248 588 248 588 c 1
 248 588 410 751 410 751 c 1
 410 751 342 819 342 819 c 1
238 500 m 1
 238 500 238 500 238 500 c 1
 175 500 122 485 79 456 c 0
 35 427 13 391 13 350 c 1
 13 350 13 350 13 350 c 1
 13 309 35 273 79 244 c 0
 122 215 175 200 238 200 c 2
 238 200 263 200 263 200 c 1
 263 200 263 200 263 200 c 1
 297 200 326 195 351 186 c 0
 376 176 388 164 388 150 c 1
 388 150 388 150 388 150 c 1
 388 136 376 124 351 115 c 0
 326 105 297 100 263 100 c 2
 263 100 0 100 0 100 c 1
 0 100 0 0 0 0 c 1
 0 0 263 0 263 0 c 1
 263 0 263 0 263 0 c 1
 325 0 378 15 422 44 c 0
 466 73 488 109 488 150 c 1
 488 150 488 150 488 150 c 1
 488 191 466 227 422 256 c 0
 378 285 325 300 263 300 c 2
 263 300 238 300 238 300 c 1
 238 300 238 300 238 300 c 1
 203 300 174 305 150 315 c 0
 125 324 113 336 113 350 c 1
 113 350 113 350 113 350 c 1
 113 364 125 376 150 386 c 0
 174 395 203 400 238 400 c 2
 238 400 500 400 500 400 c 1
 500 400 500 500 500 500 c 1
 500 500 238 500 238 500 c 1
EndSplineSet
Validated: 5
EndChar

StartChar: Ydieresis
Encoding: 376 376 198
Width: 600
Flags: W
LayerCount: 2
Fore
SplineSet
400 850 m 1
 400 864 395 876 386 886 c 0
 376 895 364 900 350 900 c 1
 350 900 350 900 350 900 c 1
 336 900 324 895 315 886 c 0
 305 876 300 864 300 850 c 1
 300 850 300 850 300 850 c 1
 300 836 305 824 315 815 c 0
 324 805 336 800 350 800 c 1
 350 800 350 800 350 800 c 1
 364 800 376 805 386 815 c 0
 395 824 400 836 400 850 c 1
 400 850 400 850 400 850 c 1
200 850 m 1
 200 864 195 876 186 886 c 0
 176 895 164 900 150 900 c 1
 150 900 150 900 150 900 c 1
 136 900 124 895 115 886 c 0
 105 876 100 864 100 850 c 1
 100 850 100 850 100 850 c 1
 100 836 105 824 115 815 c 0
 124 805 136 800 150 800 c 1
 150 800 150 800 150 800 c 1
 164 800 176 805 186 815 c 0
 195 824 200 836 200 850 c 1
 200 850 200 850 200 850 c 1
500 700 m 1
 500 700 400 700 400 700 c 1
 400 700 400 469 400 469 c 1
 400 469 250 319 250 319 c 1
 250 319 100 469 100 469 c 1
 100 469 100 700 100 700 c 1
 100 700 0 700 0 700 c 1
 0 700 0 431 0 431 c 1
 0 431 200 231 200 231 c 1
 200 231 200 0 200 0 c 1
 200 0 300 0 300 0 c 1
 300 0 300 231 300 231 c 1
 300 231 500 431 500 431 c 1
 500 431 500 700 500 700 c 1
EndSplineSet
Validated: 5
EndChar

StartChar: Zcaron
Encoding: 381 381 199
Width: 600
Flags: W
LayerCount: 2
Fore
SplineSet
500 0 m 1
 500 0 0 0 0 0 c 1
 0 0 0 179 0 179 c 1
 0 179 400 578 400 578 c 1
 400 578 400 600 400 600 c 1
 400 600 0 600 0 600 c 1
 0 600 0 700 0 700 c 1
 0 700 212 700 212 700 c 1
 212 700 86 826 86 826 c 1
 86 826 155 895 155 895 c 1
 155 895 249 801 249 801 c 1
 249 801 343 895 343 895 c 1
 343 895 411 826 411 826 c 1
 411 826 286 700 286 700 c 1
 286 700 500 700 500 700 c 1
 500 700 500 538 500 538 c 1
 500 538 100 138 100 138 c 1
 100 138 100 100 100 100 c 1
 100 100 500 100 500 100 c 1
 500 100 500 0 500 0 c 1
EndSplineSet
Validated: 1
EndChar

StartChar: zcaron
Encoding: 382 382 200
Width: 600
Flags: W
LayerCount: 2
Fore
SplineSet
500 100 m 1
 500 100 169 100 169 100 c 1
 169 100 500 431 500 431 c 1
 500 431 500 500 500 500 c 1
 500 500 0 500 0 500 c 1
 0 500 0 400 0 400 c 1
 0 400 331 400 331 400 c 1
 331 400 0 69 0 69 c 1
 0 69 0 0 0 0 c 1
 0 0 500 0 500 0 c 1
 500 0 500 100 500 100 c 1
252 583 m 1
 252 583 415 746 415 746 c 1
 415 746 346 814 346 814 c 1
 346 814 252 721 252 721 c 1
 252 721 158 814 158 814 c 1
 158 814 90 746 90 746 c 1
 90 746 252 583 252 583 c 1
EndSplineSet
Validated: 9
EndChar

StartChar: florin
Encoding: 402 402 202
Width: 600
Flags: W
LayerCount: 2
Fore
SplineSet
500 900 m 1
 500 900 400 900 400 900 c 1
 400 900 400 900 400 900 c 1
 345 900 298 880 259 841 c 0
 220 802 200 755 200 700 c 2
 200 700 200 500 200 500 c 1
 200 500 100 500 100 500 c 1
 100 500 100 400 100 400 c 1
 100 400 200 400 200 400 c 1
 200 400 200 0 200 0 c 1
 200 0 200 0 200 0 c 1
 200 -27 190 -50 171 -69 c 0
 151 -89 127 -99 100 -99 c 2
 100 -99 0 -99 0 -99 c 1
 0 -99 0 -199 0 -199 c 1
 0 -199 100 -199 100 -199 c 1
 100 -199 100 -199 100 -199 c 1
 155 -199 202 -179 241 -140 c 0
 280 -101 300 -54 300 0 c 2
 300 0 300 400 300 400 c 1
 300 400 400 400 400 400 c 1
 400 400 400 500 400 500 c 1
 400 500 300 500 300 500 c 1
 300 500 300 700 300 700 c 1
 300 700 300 700 300 700 c 1
 300 727 310 751 330 771 c 0
 349 790 373 800 400 800 c 2
 400 800 500 800 500 800 c 1
 500 800 500 900 500 900 c 1
EndSplineSet
Validated: 5
EndChar

StartChar: circumflex
Encoding: 710 710 204
Width: 600
Flags: W
LayerCount: 2
Fore
SplineSet
250 819 m 1
 250 819 87 656 87 656 c 1
 87 656 156 588 156 588 c 1
 156 588 250 681 250 681 c 1
 250 681 344 588 344 588 c 1
 344 588 412 656 412 656 c 1
 412 656 250 819 250 819 c 1
EndSplineSet
Validated: 9
EndChar

StartChar: caron
Encoding: 711 711 205
Width: 600
Flags: W
LayerCount: 2
Fore
SplineSet
342 819 m 1
 342 819 248 726 248 726 c 1
 248 726 154 819 154 819 c 1
 154 819 85 751 85 751 c 1
 85 751 248 588 248 588 c 1
 248 588 410 751 410 751 c 1
 410 751 342 819 342 819 c 1
EndSplineSet
Validated: 9
EndChar

StartChar: breve
Encoding: 728 728 206
Width: 600
Flags: W
LayerCount: 2
Fore
SplineSet
505 800 m 1
 505 800 405 800 405 800 c 1
 405 800 405 800 405 800 c 1
 405 773 395 749 376 730 c 0
 356 710 332 700 305 700 c 1
 305 700 305 700 305 700 c 1
 278 700 254 710 235 730 c 0
 215 749 205 773 205 800 c 1
 205 800 105 800 105 800 c 1
 105 800 105 800 105 800 c 1
 105 745 125 698 164 659 c 0
 203 620 250 600 305 600 c 1
 305 600 305 600 305 600 c 1
 360 600 407 620 446 659 c 0
 485 698 505 745 505 800 c 1
 505 800 505 800 505 800 c 1
EndSplineSet
Validated: 5
EndChar

StartChar: dotaccent
Encoding: 729 729 207
Width: 600
Flags: W
LayerCount: 2
Fore
SplineSet
405 600 m 1
 405 627 395 651 376 671 c 0
 356 690 332 700 305 700 c 1
 305 700 305 700 305 700 c 1
 278 700 254 690 235 671 c 0
 215 651 205 627 205 600 c 1
 205 600 205 600 205 600 c 1
 205 573 215 549 235 530 c 0
 254 510 278 500 305 500 c 1
 305 500 305 500 305 500 c 1
 332 500 356 510 376 530 c 0
 395 549 405 573 405 600 c 1
 405 600 405 600 405 600 c 1
EndSplineSet
Validated: 5
EndChar

StartChar: ring
Encoding: 730 730 208
Width: 600
Flags: W
LayerCount: 2
Fore
SplineSet
305 650 m 1
 305 636 300 624 291 615 c 0
 281 605 269 600 255 600 c 1
 255 600 255 600 255 600 c 1
 241 600 229 605 220 615 c 0
 210 624 205 636 205 650 c 1
 205 650 205 650 205 650 c 1
 205 664 210 676 220 686 c 0
 229 695 241 700 255 700 c 1
 255 700 255 700 255 700 c 1
 269 700 281 695 291 686 c 0
 300 676 305 664 305 650 c 1
 305 650 305 650 305 650 c 1
405 650 m 1
 405 691 390 727 361 756 c 0
 332 785 296 800 255 800 c 1
 255 800 255 800 255 800 c 1
 214 800 178 785 149 756 c 0
 120 727 105 691 105 650 c 1
 105 650 105 650 105 650 c 1
 105 609 120 573 149 544 c 0
 178 515 214 500 255 500 c 1
 255 500 255 500 255 500 c 1
 296 500 332 515 361 544 c 0
 390 573 405 609 405 650 c 1
 405 650 405 650 405 650 c 1
EndSplineSet
Validated: 5
EndChar

StartChar: ogonek
Encoding: 731 731 209
Width: 600
Flags: W
LayerCount: 2
Fore
SplineSet
200 -18 m 1
 200 -18 200 0 200 0 c 1
 200 0 300 0 300 0 c 1
 300 0 300 100 300 100 c 1
 300 100 100 100 100 100 c 1
 100 100 100 -55 100 -55 c 1
 100 -55 244 -199 244 -199 c 1
 244 -199 312 -130 312 -130 c 1
 312 -130 200 -18 200 -18 c 1
EndSplineSet
Validated: 9
EndChar

StartChar: tilde
Encoding: 732 732 210
Width: 600
Flags: W
LayerCount: 2
Fore
SplineSet
500 800 m 1
 500 800 400 800 400 800 c 1
 400 800 400 750 400 750 c 1
 400 750 400 750 400 750 c 1
 400 736 395 724 386 715 c 0
 376 705 364 700 350 700 c 1
 350 700 350 700 350 700 c 1
 325 700 292 721 250 763 c 1
 250 763 250 763 250 763 c 1
 225 788 192 800 150 800 c 1
 150 800 150 800 150 800 c 1
 109 800 73 785 44 756 c 0
 15 727 0 691 0 650 c 2
 0 650 0 600 0 600 c 1
 0 600 100 600 100 600 c 1
 100 600 100 650 100 650 c 1
 100 650 100 650 100 650 c 1
 100 664 105 676 115 686 c 0
 124 695 136 700 150 700 c 1
 150 700 150 700 150 700 c 1
 175 700 209 679 250 638 c 1
 250 638 250 638 250 638 c 1
 275 613 309 600 350 600 c 1
 350 600 350 600 350 600 c 1
 391 600 427 615 456 644 c 0
 485 673 500 709 500 750 c 2
 500 750 500 800 500 800 c 1
EndSplineSet
Validated: 5
EndChar

StartChar: hungarumlaut
Encoding: 733 733 211
Width: 600
Flags: W
LayerCount: 2
Fore
SplineSet
236 750 m 1
 236 750 167 819 167 819 c 1
 167 819 5 656 5 656 c 1
 5 656 74 588 74 588 c 1
 74 588 236 750 236 750 c 1
524 750 m 1
 524 750 455 819 455 819 c 1
 455 819 292 656 292 656 c 1
 292 656 361 588 361 588 c 1
 361 588 524 750 524 750 c 1
EndSplineSet
Validated: 9
EndChar

StartChar: endash
Encoding: 8211 8211 213
Width: 600
Flags: W
LayerCount: 2
Fore
SplineSet
400 400 m 1
 400 400 100 400 100 400 c 1
 100 400 100 300 100 300 c 1
 100 300 400 300 400 300 c 1
 400 300 400 400 400 400 c 1
EndSplineSet
Validated: 9
EndChar

StartChar: emdash
Encoding: 8212 8212 214
Width: 600
Flags: W
LayerCount: 2
Fore
SplineSet
600 400 m 1
 600 400 0 400 0 400 c 1
 0 400 0 300 0 300 c 1
 0 300 600 300 600 300 c 1
 600 300 600 400 600 400 c 1
EndSplineSet
Validated: 9
EndChar

StartChar: underscoredbl
Encoding: 8215 8215 215
Width: 600
Flags: W
LayerCount: 2
Fore
SplineSet
600 0 m 1
 600 0 0 0 0 0 c 1
 0 0 0 -100 0 -100 c 1
 0 -100 600 -100 600 -100 c 1
 600 -100 600 0 600 0 c 1
600 -200 m 1
 600 -200 0 -200 0 -200 c 1
 0 -200 0 -300 0 -300 c 1
 0 -300 600 -300 600 -300 c 1
 600 -300 600 -200 600 -200 c 1
EndSplineSet
Validated: 9
EndChar

StartChar: quoteleft
Encoding: 8216 8216 216
Width: 600
Flags: W
LayerCount: 2
Fore
SplineSet
321 733 m 1
 321 733 259 671 259 671 c 1
 259 671 259 671 259 671 c 1
 220 632 200 586 200 533 c 2
 200 533 200 400 200 400 c 1
 200 400 300 400 300 400 c 1
 300 400 300 532 300 532 c 1
 300 532 300 532 300 532 c 1
 300 557 310 580 330 600 c 2
 330 600 391 662 391 662 c 1
 391 662 321 733 321 733 c 1
EndSplineSet
Validated: 5
EndChar

StartChar: quoteright
Encoding: 8217 8217 217
Width: 600
Flags: W
LayerCount: 2
Fore
SplineSet
400 700 m 1
 400 700 300 700 300 700 c 1
 300 700 300 568 300 568 c 1
 300 568 300 568 300 568 c 1
 300 543 290 520 270 500 c 2
 270 500 209 438 209 438 c 1
 209 438 279 367 279 367 c 1
 279 367 341 429 341 429 c 1
 341 429 341 429 341 429 c 1
 380 468 400 514 400 567 c 2
 400 567 400 700 400 700 c 1
EndSplineSet
Validated: 5
EndChar

StartChar: quotesinglbase
Encoding: 8218 8218 218
Width: 600
Flags: W
LayerCount: 2
Fore
SplineSet
200 200 m 1
 200 200 100 200 100 200 c 1
 100 200 100 68 100 68 c 1
 100 68 100 68 100 68 c 1
 100 43 90 20 70 0 c 2
 70 0 9 -61 9 -61 c 1
 9 -61 79 -132 79 -132 c 1
 79 -132 141 -70 141 -70 c 1
 141 -70 141 -70 141 -70 c 1
 180 -31 200 15 200 67 c 2
 200 67 200 200 200 200 c 1
EndSplineSet
Validated: 5
EndChar

StartChar: quotedblleft
Encoding: 8220 8220 219
Width: 600
Flags: W
LayerCount: 2
Fore
SplineSet
421 733 m 1
 421 733 359 671 359 671 c 1
 359 671 359 671 359 671 c 1
 320 632 300 586 300 533 c 2
 300 533 300 400 300 400 c 1
 300 400 400 400 400 400 c 1
 400 400 400 532 400 532 c 1
 400 532 400 532 400 532 c 1
 400 557 410 580 430 600 c 2
 430 600 491 662 491 662 c 1
 491 662 421 733 421 733 c 1
221 733 m 1
 221 733 159 671 159 671 c 1
 159 671 159 671 159 671 c 1
 120 632 100 586 100 533 c 2
 100 533 100 400 100 400 c 1
 100 400 200 400 200 400 c 1
 200 400 200 532 200 532 c 1
 200 532 200 532 200 532 c 1
 200 557 210 580 230 600 c 2
 230 600 291 662 291 662 c 1
 291 662 221 733 221 733 c 1
EndSplineSet
Validated: 5
EndChar

StartChar: quotedblright
Encoding: 8221 8221 220
Width: 600
Flags: W
LayerCount: 2
Fore
SplineSet
500 700 m 1
 500 700 400 700 400 700 c 1
 400 700 400 568 400 568 c 1
 400 568 400 568 400 568 c 1
 400 543 390 520 370 500 c 2
 370 500 309 438 309 438 c 1
 309 438 379 367 379 367 c 1
 379 367 441 429 441 429 c 1
 441 429 441 429 441 429 c 1
 480 468 500 514 500 567 c 2
 500 567 500 700 500 700 c 1
300 700 m 1
 300 700 200 700 200 700 c 1
 200 700 200 568 200 568 c 1
 200 568 200 568 200 568 c 1
 200 543 190 520 170 500 c 2
 170 500 109 438 109 438 c 1
 109 438 179 367 179 367 c 1
 179 367 241 429 241 429 c 1
 241 429 241 429 241 429 c 1
 280 468 300 514 300 567 c 2
 300 567 300 700 300 700 c 1
EndSplineSet
Validated: 5
EndChar

StartChar: quotedblbase
Encoding: 8222 8222 221
Width: 600
Flags: W
LayerCount: 2
Fore
SplineSet
400 200 m 1
 400 200 300 200 300 200 c 1
 300 200 300 68 300 68 c 1
 300 68 300 68 300 68 c 1
 300 43 290 20 270 0 c 2
 270 0 209 -61 209 -61 c 1
 209 -61 279 -132 279 -132 c 1
 279 -132 341 -70 341 -70 c 1
 341 -70 341 -70 341 -70 c 1
 380 -31 400 15 400 67 c 2
 400 67 400 200 400 200 c 1
200 200 m 1
 200 200 100 200 100 200 c 1
 100 200 100 68 100 68 c 1
 100 68 100 68 100 68 c 1
 100 43 90 20 70 0 c 2
 70 0 9 -61 9 -61 c 1
 9 -61 79 -132 79 -132 c 1
 79 -132 141 -70 141 -70 c 1
 141 -70 141 -70 141 -70 c 1
 180 -31 200 15 200 67 c 2
 200 67 200 200 200 200 c 1
EndSplineSet
Validated: 5
EndChar

StartChar: dagger
Encoding: 8224 8224 222
Width: 600
Flags: W
LayerCount: 2
Fore
SplineSet
400 600 m 1
 400 600 300 600 300 600 c 1
 300 600 300 700 300 700 c 1
 300 700 200 700 200 700 c 1
 200 700 200 600 200 600 c 1
 200 600 100 600 100 600 c 1
 100 600 100 500 100 500 c 1
 100 500 200 500 200 500 c 1
 200 500 200 200 200 200 c 1
 200 200 300 200 300 200 c 1
 300 200 300 500 300 500 c 1
 300 500 400 500 400 500 c 1
 400 500 400 600 400 600 c 1
EndSplineSet
Validated: 9
EndChar

StartChar: daggerdbl
Encoding: 8225 8225 223
Width: 600
Flags: W
LayerCount: 2
Fore
SplineSet
400 400 m 1
 400 400 300 400 300 400 c 1
 300 400 300 500 300 500 c 1
 300 500 400 500 400 500 c 1
 400 500 400 600 400 600 c 1
 400 600 300 600 300 600 c 1
 300 600 300 700 300 700 c 1
 300 700 200 700 200 700 c 1
 200 700 200 600 200 600 c 1
 200 600 100 600 100 600 c 1
 100 600 100 500 100 500 c 1
 100 500 200 500 200 500 c 1
 200 500 200 400 200 400 c 1
 200 400 100 400 100 400 c 1
 100 400 100 300 100 300 c 1
 100 300 200 300 200 300 c 1
 200 300 200 200 200 200 c 1
 200 200 300 200 300 200 c 1
 300 200 300 300 300 300 c 1
 300 300 400 300 400 300 c 1
 400 300 400 400 400 400 c 1
EndSplineSet
Validated: 9
EndChar

StartChar: bullet
Encoding: 8226 8226 224
Width: 600
Flags: W
LayerCount: 2
Fore
SplineSet
500 350 m 1
 500 419 476 478 427 527 c 0
 378 576 319 600 250 600 c 1
 250 600 250 600 250 600 c 1
 181 600 123 576 74 527 c 0
 25 478 0 419 0 350 c 1
 0 350 0 350 0 350 c 1
 0 281 24 222 73 173 c 0
 122 124 181 100 250 100 c 1
 250 100 250 100 250 100 c 1
 319 100 378 124 427 173 c 0
 476 222 500 281 500 350 c 1
 500 350 500 350 500 350 c 1
EndSplineSet
Validated: 5
EndChar

StartChar: ellipsis
Encoding: 8230 8230 225
Width: 600
Flags: W
LayerCount: 2
Fore
SplineSet
500 50 m 1
 500 64 495 76 486 86 c 0
 476 95 464 100 450 100 c 1
 450 100 450 100 450 100 c 1
 436 100 424 95 415 86 c 0
 405 76 400 64 400 50 c 1
 400 50 400 50 400 50 c 1
 400 36 405 24 415 15 c 0
 424 5 436 0 450 0 c 1
 450 0 450 0 450 0 c 1
 464 0 476 5 486 15 c 0
 495 24 500 36 500 50 c 1
 500 50 500 50 500 50 c 1
300 50 m 1
 300 64 295 76 286 86 c 0
 276 95 264 100 250 100 c 1
 250 100 250 100 250 100 c 1
 236 100 224 95 215 86 c 0
 205 76 200 64 200 50 c 1
 200 50 200 50 200 50 c 1
 200 36 205 24 215 15 c 0
 224 5 236 0 250 0 c 1
 250 0 250 0 250 0 c 1
 264 0 276 5 286 15 c 0
 295 24 300 36 300 50 c 1
 300 50 300 50 300 50 c 1
100 50 m 1
 100 64 95 76 86 86 c 0
 76 95 64 100 50 100 c 1
 50 100 50 100 50 100 c 1
 36 100 24 95 15 86 c 0
 5 76 0 64 0 50 c 1
 0 50 0 50 0 50 c 1
 0 36 5 24 15 15 c 0
 24 5 36 0 50 0 c 1
 50 0 50 0 50 0 c 1
 64 0 76 5 86 15 c 0
 95 24 100 36 100 50 c 1
 100 50 100 50 100 50 c 1
EndSplineSet
Validated: 5
EndChar

StartChar: perthousand
Encoding: 8240 8240 226
Width: 600
Flags: W
LayerCount: 2
Fore
SplineSet
605 200 m 1
 605 255 590 303 561 342 c 0
 532 381 496 400 455 400 c 1
 455 400 455 400 455 400 c 1
 417 400 384 383 355 349 c 1
 355 349 355 349 355 349 c 1
 332 377 305 393 274 398 c 1
 274 398 605 729 605 729 c 1
 605 729 605 800 605 800 c 1
 605 800 155 800 155 800 c 1
 155 800 155 800 155 800 c 1
 114 800 78 781 49 742 c 0
 20 703 5 655 5 600 c 1
 5 600 5 600 5 600 c 1
 5 549 18 505 43 468 c 0
 68 431 99 409 136 402 c 1
 136 402 5 271 5 271 c 1
 5 271 5 129 5 129 c 1
 5 129 107 231 107 231 c 1
 107 231 107 231 107 231 c 1
 106 224 105 214 105 200 c 1
 105 200 105 200 105 200 c 1
 105 145 120 98 149 59 c 0
 178 20 214 0 255 0 c 1
 255 0 255 0 255 0 c 1
 293 0 326 17 355 51 c 1
 355 51 355 51 355 51 c 1
 384 17 418 0 455 0 c 1
 455 0 455 0 455 0 c 1
 496 0 532 20 561 59 c 0
 590 98 605 145 605 200 c 1
 605 200 605 200 605 200 c 1
303 569 m 1
 303 569 303 569 303 569 c 1
 304 582 305 593 305 600 c 1
 305 600 305 600 305 600 c 1
 305 637 298 670 285 700 c 1
 285 700 434 700 434 700 c 1
 434 700 303 569 303 569 c 1
205 600 m 1
 205 573 200 549 191 530 c 0
 181 510 169 500 155 500 c 1
 155 500 155 500 155 500 c 1
 141 500 129 510 120 530 c 0
 110 549 105 573 105 600 c 1
 105 600 105 600 105 600 c 1
 105 627 110 651 120 671 c 0
 129 690 141 700 155 700 c 1
 155 700 155 700 155 700 c 1
 169 700 181 690 191 671 c 0
 200 651 205 627 205 600 c 1
 205 600 205 600 205 600 c 1
505 200 m 1
 505 173 500 149 491 130 c 0
 481 110 469 100 455 100 c 1
 455 100 455 100 455 100 c 1
 441 100 429 110 420 130 c 0
 410 149 405 173 405 200 c 1
 405 200 405 200 405 200 c 1
 405 227 410 251 420 271 c 0
 429 290 441 300 455 300 c 1
 455 300 455 300 455 300 c 1
 469 300 481 290 491 271 c 0
 500 251 505 227 505 200 c 1
 505 200 505 200 505 200 c 1
305 200 m 1
 305 173 300 149 291 130 c 0
 281 110 269 100 255 100 c 1
 255 100 255 100 255 100 c 1
 241 100 229 110 220 130 c 0
 210 149 205 173 205 200 c 1
 205 200 205 200 205 200 c 1
 205 227 210 251 220 271 c 0
 229 290 241 300 255 300 c 1
 255 300 255 300 255 300 c 1
 269 300 281 290 291 271 c 0
 300 251 305 227 305 200 c 1
 305 200 305 200 305 200 c 1
EndSplineSet
Validated: 5
EndChar

StartChar: PERTENTHOUSANDSIGN
Encoding: 8241 8241 227
Width: 849
Flags: W
LayerCount: 2
Fore
SplineSet
323 569 m 1
 323 569 323 569 323 569 c 1
 324 582 325 593 325 600 c 1
 325 600 325 600 325 600 c 1
 325 637 318 670 305 700 c 1
 305 700 454 700 454 700 c 1
 454 700 323 569 323 569 c 1
225 600 m 1
 225 573 220 549 211 530 c 0
 201 510 189 500 175 500 c 1
 175 500 175 500 175 500 c 1
 161 500 149 510 140 530 c 0
 130 549 125 573 125 600 c 1
 125 600 125 600 125 600 c 1
 125 627 130 651 140 671 c 0
 149 690 161 700 175 700 c 1
 175 700 175 700 175 700 c 1
 189 700 201 690 211 671 c 0
 220 651 225 627 225 600 c 1
 225 600 225 600 225 600 c 1
525 200 m 1
 525 173 520 149 511 130 c 0
 501 110 489 100 475 100 c 1
 475 100 475 100 475 100 c 1
 461 100 449 110 440 130 c 0
 430 149 425 173 425 200 c 1
 425 200 425 200 425 200 c 1
 425 227 430 251 440 271 c 0
 449 290 461 300 475 300 c 1
 475 300 475 300 475 300 c 1
 489 300 501 290 511 271 c 0
 520 251 525 227 525 200 c 1
 525 200 525 200 525 200 c 1
325 200 m 1
 325 173 320 149 311 130 c 0
 301 110 289 100 275 100 c 1
 275 100 275 100 275 100 c 1
 261 100 249 110 240 130 c 0
 230 149 225 173 225 200 c 1
 225 200 225 200 225 200 c 1
 225 227 230 251 240 271 c 0
 249 290 261 300 275 300 c 1
 275 300 275 300 275 300 c 1
 289 300 301 290 311 271 c 0
 320 251 325 227 325 200 c 1
 325 200 325 200 325 200 c 1
677 398 m 0
 638 398 603 379 576 348 c 1
 547 383 514 400 475 400 c 0
 437 400 404 383 375 349 c 1
 352 377 325 393 294 398 c 1
 294 398 625 729 625 729 c 1
 625 729 625 800 625 800 c 1
 625 800 175 800 175 800 c 2
 134 800 98 781 69 742 c 0
 40 703 25 655 25 600 c 0
 25 549 38 505 63 468 c 0
 88 431 119 409 156 402 c 1
 156 402 25 271 25 271 c 1
 25 271 25 129 25 129 c 1
 25 129 127 231 127 231 c 1
 126 224 125 214 125 200 c 0
 125 145 140 98 169 59 c 0
 198 20 234 0 275 0 c 0
 313 0 346 17 375 51 c 1
 404 17 438 0 475 0 c 0
 514 0 547 17 575 51 c 1
 602 19 638 0 677 0 c 0
 760 0 829 90 829 200 c 0
 829 309 761 398 677 398 c 0
639 199 m 0
 639 254 661 299 689 299 c 0
 717 299 739 254 739 199 c 0
 739 143 717 99 689 99 c 0
 660 99 639 144 639 199 c 0
EndSplineSet
Validated: 5
EndChar

StartChar: guilsinglleft
Encoding: 8249 8249 228
Width: 600
Flags: W
LayerCount: 2
Fore
SplineSet
106 200 m 1
 106 200 190 391 190 391 c 1
 190 391 98 430 98 430 c 1
 98 430 0 200 0 200 c 1
 0 200 98 -29 98 -29 c 1
 98 -29 190 9 190 9 c 1
 190 9 106 200 106 200 c 1
EndSplineSet
Validated: 9
EndChar

StartChar: guilsinglright
Encoding: 8250 8250 229
Width: 600
Flags: W
LayerCount: 2
Fore
SplineSet
102 430 m 1
 102 430 10 391 10 391 c 1
 10 391 94 200 94 200 c 1
 94 200 10 9 10 9 c 1
 10 9 102 -29 102 -29 c 1
 102 -29 200 200 200 200 c 1
 200 200 102 430 102 430 c 1
EndSplineSet
Validated: 9
EndChar

StartChar: trademark
Encoding: 8482 8482 232
Width: 600
Flags: W
LayerCount: 2
Fore
SplineSet
600 700 m 1
 600 700 500 700 500 700 c 1
 500 700 450 600 450 600 c 1
 450 600 400 700 400 700 c 1
 400 700 0 700 0 700 c 1
 0 700 0 600 0 600 c 1
 0 600 100 600 100 600 c 1
 100 600 100 400 100 400 c 1
 100 400 200 400 200 400 c 1
 200 400 200 600 200 600 c 1
 200 600 300 600 300 600 c 1
 300 600 300 400 300 400 c 1
 300 400 400 400 400 400 c 1
 400 400 400 550 400 550 c 1
 400 550 450 450 450 450 c 1
 450 450 500 550 500 550 c 1
 500 550 500 400 500 400 c 1
 500 400 600 400 600 400 c 1
 600 400 600 700 600 700 c 1
EndSplineSet
Validated: 9
EndChar

StartChar: revlogicalnot
Encoding: 8976 8976 234
Width: 600
Flags: W
LayerCount: 2
Fore
SplineSet
0 100 m 1
 0 100 100 100 100 100 c 1
 100 100 100 300 100 300 c 1
 100 300 500 300 500 300 c 1
 500 300 500 400 500 400 c 1
 500 400 0 400 0 400 c 1
 0 400 0 100 0 100 c 1
EndSplineSet
Validated: 9
EndChar

StartChar: SF100000
Encoding: 9472 9472 236
Width: 600
Flags: W
LayerCount: 2
Fore
SplineSet
0 300 m 1
 0 300 600 300 600 300 c 1
 600 300 600 400 600 400 c 1
 600 400 0 400 0 400 c 1
 0 400 0 300 0 300 c 1
EndSplineSet
Validated: 9
EndChar

StartChar: SF110000
Encoding: 9474 9474 238
Width: 600
Flags: W
LayerCount: 2
Fore
SplineSet
200 -300 m 1
 200 -300 300 -300 300 -300 c 1
 300 -300 300 900 300 900 c 1
 300 900 200 900 200 900 c 1
 200 900 200 -300 200 -300 c 1
EndSplineSet
Validated: 9
EndChar

StartChar: SF010000
Encoding: 9484 9484 239
Width: 600
Flags: W
LayerCount: 2
Fore
SplineSet
300 300 m 1
 300 300 600 300 600 300 c 1
 600 300 600 400 600 400 c 1
 600 400 200 400 200 400 c 1
 200 400 200 -300 200 -300 c 1
 200 -300 300 -300 300 -300 c 1
 300 -300 300 300 300 300 c 1
EndSplineSet
Validated: 9
EndChar

StartChar: SF030000
Encoding: 9488 9488 240
Width: 600
Flags: W
LayerCount: 2
Fore
SplineSet
0 300 m 1
 0 300 200 300 200 300 c 1
 200 300 200 -300 200 -300 c 1
 200 -300 300 -300 300 -300 c 1
 300 -300 300 400 300 400 c 1
 300 400 0 400 0 400 c 1
 0 400 0 300 0 300 c 1
EndSplineSet
Validated: 9
EndChar

StartChar: SF020000
Encoding: 9492 9492 241
Width: 600
Flags: W
LayerCount: 2
Fore
SplineSet
200 300 m 1
 200 300 600 300 600 300 c 1
 600 300 600 400 600 400 c 1
 600 400 300 400 300 400 c 1
 300 400 300 900 300 900 c 1
 300 900 200 900 200 900 c 1
 200 900 200 300 200 300 c 1
EndSplineSet
Validated: 9
EndChar

StartChar: SF040000
Encoding: 9496 9496 242
Width: 600
Flags: W
LayerCount: 2
Fore
SplineSet
0 300 m 1
 0 300 300 300 300 300 c 1
 300 300 300 900 300 900 c 1
 300 900 200 900 200 900 c 1
 200 900 200 400 200 400 c 1
 200 400 0 400 0 400 c 1
 0 400 0 300 0 300 c 1
EndSplineSet
Validated: 9
EndChar

StartChar: SF080000
Encoding: 9500 9500 243
Width: 600
Flags: W
LayerCount: 2
Fore
SplineSet
300 300 m 1
 300 300 600 300 600 300 c 1
 600 300 600 400 600 400 c 1
 600 400 300 400 300 400 c 1
 300 400 300 900 300 900 c 1
 300 900 200 900 200 900 c 1
 200 900 200 -300 200 -300 c 1
 200 -300 300 -300 300 -300 c 1
 300 -300 300 300 300 300 c 1
EndSplineSet
Validated: 9
EndChar

StartChar: SF090000
Encoding: 9508 9508 244
Width: 600
Flags: W
LayerCount: 2
Fore
SplineSet
0 300 m 1
 0 300 200 300 200 300 c 1
 200 300 200 -300 200 -300 c 1
 200 -300 300 -300 300 -300 c 1
 300 -300 300 900 300 900 c 1
 300 900 200 900 200 900 c 1
 200 900 200 400 200 400 c 1
 200 400 0 400 0 400 c 1
 0 400 0 300 0 300 c 1
EndSplineSet
Validated: 9
EndChar

StartChar: SF060000
Encoding: 9516 9516 245
Width: 600
Flags: W
LayerCount: 2
Fore
SplineSet
0 300 m 1
 0 300 200 300 200 300 c 1
 200 300 200 -300 200 -300 c 1
 200 -300 300 -300 300 -300 c 1
 300 -300 300 300 300 300 c 1
 300 300 600 300 600 300 c 1
 600 300 600 400 600 400 c 1
 600 400 0 400 0 400 c 1
 0 400 0 300 0 300 c 1
EndSplineSet
Validated: 9
EndChar

StartChar: SF070000
Encoding: 9524 9524 246
Width: 600
Flags: W
LayerCount: 2
Fore
SplineSet
0 300 m 1
 0 300 600 300 600 300 c 1
 600 300 600 400 600 400 c 1
 600 400 300 400 300 400 c 1
 300 400 300 900 300 900 c 1
 300 900 200 900 200 900 c 1
 200 900 200 400 200 400 c 1
 200 400 0 400 0 400 c 1
 0 400 0 300 0 300 c 1
EndSplineSet
Validated: 9
EndChar

StartChar: SF050000
Encoding: 9532 9532 247
Width: 600
Flags: HW
TeX: 900 300
LayerCount: 2
Fore
SplineSet
0 300 m 1
 0 300 200 300 200 300 c 1
 200 300 200 -300 200 -300 c 1
 200 -300 300 -300 300 -300 c 1
 300 -300 300 300 300 300 c 1
 300 300 600 300 600 300 c 1
 600 300 600 400 600 400 c 1
 600 400 300 400 300 400 c 1
 300 400 300 900 300 900 c 1
 300 900 200 900 200 900 c 1
 200 900 200 400 200 400 c 1
 200 400 0 400 0 400 c 1
 0 400 0 300 0 300 c 1
EndSplineSet
EndChar

StartChar: SF430000
Encoding: 9552 9552 248
Width: 600
Flags: W
LayerCount: 2
Fore
SplineSet
0 200 m 1
 0 200 600 200 600 200 c 1
 600 200 600 300 600 300 c 1
 600 300 0 300 0 300 c 1
 0 300 0 200 0 200 c 1
0 400 m 1
 0 400 600 400 600 400 c 1
 600 400 600 500 600 500 c 1
 600 500 0 500 0 500 c 1
 0 500 0 400 0 400 c 1
EndSplineSet
Validated: 9
EndChar

StartChar: SF240000
Encoding: 9553 9553 249
Width: 600
Flags: W
LayerCount: 2
Fore
SplineSet
100 -300 m 1
 100 -300 200 -300 200 -300 c 1
 200 -300 200 900 200 900 c 1
 200 900 100 900 100 900 c 1
 100 900 100 -300 100 -300 c 1
300 -300 m 1
 300 -300 400 -300 400 -300 c 1
 400 -300 400 900 400 900 c 1
 400 900 300 900 300 900 c 1
 300 900 300 -300 300 -300 c 1
EndSplineSet
Validated: 9
EndChar

StartChar: SF510000
Encoding: 9554 9554 250
Width: 600
Flags: W
LayerCount: 2
Fore
SplineSet
300 200 m 1
 300 200 600 200 600 200 c 1
 600 200 600 300 600 300 c 1
 600 300 300 300 300 300 c 1
 300 300 300 400 300 400 c 1
 300 400 600 400 600 400 c 1
 600 400 600 500 600 500 c 1
 600 500 200 500 200 500 c 1
 200 500 200 -300 200 -300 c 1
 200 -300 300 -300 300 -300 c 1
 300 -300 300 200 300 200 c 1
EndSplineSet
Validated: 9
EndChar

StartChar: SF520000
Encoding: 9555 9555 251
Width: 600
Flags: W
LayerCount: 2
Fore
SplineSet
200 300 m 1
 200 300 300 300 300 300 c 1
 300 300 300 -300 300 -300 c 1
 300 -300 400 -300 400 -300 c 1
 400 -300 400 300 400 300 c 1
 400 300 600 300 600 300 c 1
 600 300 600 400 600 400 c 1
 600 400 100 400 100 400 c 1
 100 400 100 -300 100 -300 c 1
 100 -300 200 -300 200 -300 c 1
 200 -300 200 300 200 300 c 1
EndSplineSet
Validated: 9
EndChar

StartChar: SF390000
Encoding: 9556 9556 252
Width: 600
Flags: W
LayerCount: 2
Fore
SplineSet
300 -300 m 1
 300 -300 400 -300 400 -300 c 1
 400 -300 400 200 400 200 c 1
 400 200 600 200 600 200 c 1
 600 200 600 300 600 300 c 1
 600 300 300 300 300 300 c 1
 300 300 300 -300 300 -300 c 1
200 400 m 1
 200 400 600 400 600 400 c 1
 600 400 600 500 600 500 c 1
 600 500 100 500 100 500 c 1
 100 500 100 -300 100 -300 c 1
 100 -300 200 -300 200 -300 c 1
 200 -300 200 400 200 400 c 1
EndSplineSet
Validated: 9
EndChar

StartChar: SF220000
Encoding: 9557 9557 253
Width: 600
Flags: W
LayerCount: 2
Fore
SplineSet
0 200 m 1
 0 200 200 200 200 200 c 1
 200 200 200 -300 200 -300 c 1
 200 -300 300 -300 300 -300 c 1
 300 -300 300 500 300 500 c 1
 300 500 0 500 0 500 c 1
 0 500 0 400 0 400 c 1
 0 400 200 400 200 400 c 1
 200 400 200 300 200 300 c 1
 200 300 0 300 0 300 c 1
 0 300 0 200 0 200 c 1
EndSplineSet
Validated: 9
EndChar

StartChar: SF210000
Encoding: 9558 9558 254
Width: 600
Flags: W
LayerCount: 2
Fore
SplineSet
0 300 m 1
 0 300 100 300 100 300 c 1
 100 300 100 -300 100 -300 c 1
 100 -300 200 -300 200 -300 c 1
 200 -300 200 300 200 300 c 1
 200 300 300 300 300 300 c 1
 300 300 300 -300 300 -300 c 1
 300 -300 400 -300 400 -300 c 1
 400 -300 400 400 400 400 c 1
 400 400 0 400 0 400 c 1
 0 400 0 300 0 300 c 1
EndSplineSet
Validated: 9
EndChar

StartChar: SF250000
Encoding: 9559 9559 255
Width: 600
Flags: W
LayerCount: 2
Fore
SplineSet
0 200 m 1
 0 200 100 200 100 200 c 1
 100 200 100 -300 100 -300 c 1
 100 -300 200 -300 200 -300 c 1
 200 -300 200 300 200 300 c 1
 200 300 0 300 0 300 c 1
 0 300 0 200 0 200 c 1
0 400 m 1
 0 400 300 400 300 400 c 1
 300 400 300 -300 300 -300 c 1
 300 -300 400 -300 400 -300 c 1
 400 -300 400 500 400 500 c 1
 400 500 0 500 0 500 c 1
 0 500 0 400 0 400 c 1
EndSplineSet
Validated: 9
EndChar

StartChar: SF500000
Encoding: 9560 9560 256
Width: 600
Flags: W
LayerCount: 2
Fore
SplineSet
200 200 m 1
 200 200 600 200 600 200 c 1
 600 200 600 300 600 300 c 1
 600 300 300 300 300 300 c 1
 300 300 300 400 300 400 c 1
 300 400 600 400 600 400 c 1
 600 400 600 500 600 500 c 1
 600 500 300 500 300 500 c 1
 300 500 300 900 300 900 c 1
 300 900 200 900 200 900 c 1
 200 900 200 200 200 200 c 1
EndSplineSet
Validated: 9
EndChar

StartChar: SF490000
Encoding: 9561 9561 257
Width: 600
Flags: W
LayerCount: 2
Fore
SplineSet
100 300 m 1
 100 300 600 300 600 300 c 1
 600 300 600 400 600 400 c 1
 600 400 400 400 400 400 c 1
 400 400 400 900 400 900 c 1
 400 900 300 900 300 900 c 1
 300 900 300 400 300 400 c 1
 300 400 200 400 200 400 c 1
 200 400 200 900 200 900 c 1
 200 900 100 900 100 900 c 1
 100 900 100 300 100 300 c 1
EndSplineSet
Validated: 9
EndChar

StartChar: SF380000
Encoding: 9562 9562 258
Width: 600
Flags: W
LayerCount: 2
Fore
SplineSet
300 400 m 1
 300 400 600 400 600 400 c 1
 600 400 600 500 600 500 c 1
 600 500 400 500 400 500 c 1
 400 500 400 900 400 900 c 1
 400 900 300 900 300 900 c 1
 300 900 300 400 300 400 c 1
100 200 m 1
 100 200 600 200 600 200 c 1
 600 200 600 300 600 300 c 1
 600 300 200 300 200 300 c 1
 200 300 200 900 200 900 c 1
 200 900 100 900 100 900 c 1
 100 900 100 200 100 200 c 1
EndSplineSet
Validated: 9
EndChar

StartChar: SF280000
Encoding: 9563 9563 259
Width: 600
Flags: W
LayerCount: 2
Fore
SplineSet
0 200 m 1
 0 200 300 200 300 200 c 1
 300 200 300 900 300 900 c 1
 300 900 200 900 200 900 c 1
 200 900 200 500 200 500 c 1
 200 500 0 500 0 500 c 1
 0 500 0 400 0 400 c 1
 0 400 200 400 200 400 c 1
 200 400 200 300 200 300 c 1
 200 300 0 300 0 300 c 1
 0 300 0 200 0 200 c 1
EndSplineSet
Validated: 9
EndChar

StartChar: SF270000
Encoding: 9564 9564 260
Width: 600
Flags: W
LayerCount: 2
Fore
SplineSet
300 400 m 1
 300 400 200 400 200 400 c 1
 200 400 200 900 200 900 c 1
 200 900 100 900 100 900 c 1
 100 900 100 400 100 400 c 1
 100 400 0 400 0 400 c 1
 0 400 0 300 0 300 c 1
 0 300 400 300 400 300 c 1
 400 300 400 900 400 900 c 1
 400 900 300 900 300 900 c 1
 300 900 300 400 300 400 c 1
EndSplineSet
Validated: 9
EndChar

StartChar: SF260000
Encoding: 9565 9565 261
Width: 600
Flags: W
LayerCount: 2
Fore
SplineSet
0 400 m 1
 0 400 200 400 200 400 c 1
 200 400 200 900 200 900 c 1
 200 900 100 900 100 900 c 1
 100 900 100 500 100 500 c 1
 100 500 0 500 0 500 c 1
 0 500 0 400 0 400 c 1
0 200 m 1
 0 200 400 200 400 200 c 1
 400 200 400 900 400 900 c 1
 400 900 300 900 300 900 c 1
 300 900 300 300 300 300 c 1
 300 300 0 300 0 300 c 1
 0 300 0 200 0 200 c 1
EndSplineSet
Validated: 9
EndChar

StartChar: SF360000
Encoding: 9566 9566 262
Width: 600
Flags: W
LayerCount: 2
Fore
SplineSet
300 200 m 1
 300 200 600 200 600 200 c 1
 600 200 600 300 600 300 c 1
 600 300 300 300 300 300 c 1
 300 300 300 400 300 400 c 1
 300 400 600 400 600 400 c 1
 600 400 600 500 600 500 c 1
 600 500 300 500 300 500 c 1
 300 500 300 900 300 900 c 1
 300 900 200 900 200 900 c 1
 200 900 200 -300 200 -300 c 1
 200 -300 300 -300 300 -300 c 1
 300 -300 300 200 300 200 c 1
EndSplineSet
Validated: 9
EndChar

StartChar: SF370000
Encoding: 9567 9567 263
Width: 600
Flags: W
LayerCount: 2
Fore
SplineSet
100 -300 m 1
 100 -300 200 -300 200 -300 c 1
 200 -300 200 900 200 900 c 1
 200 900 100 900 100 900 c 1
 100 900 100 -300 100 -300 c 1
400 300 m 1
 400 300 600 300 600 300 c 1
 600 300 600 400 600 400 c 1
 600 400 400 400 400 400 c 1
 400 400 400 900 400 900 c 1
 400 900 300 900 300 900 c 1
 300 900 300 -300 300 -300 c 1
 300 -300 400 -300 400 -300 c 1
 400 -300 400 300 400 300 c 1
EndSplineSet
Validated: 9
EndChar

StartChar: SF420000
Encoding: 9568 9568 264
Width: 600
Flags: W
LayerCount: 2
Fore
SplineSet
400 200 m 1
 400 200 600 200 600 200 c 1
 600 200 600 300 600 300 c 1
 600 300 300 300 300 300 c 1
 300 300 300 200 300 200 c 1
 300 200 300 -300 300 -300 c 1
 300 -300 400 -300 400 -300 c 1
 400 -300 400 200 400 200 c 1
300 400 m 1
 300 400 600 400 600 400 c 1
 600 400 600 500 600 500 c 1
 600 500 400 500 400 500 c 1
 400 500 400 900 400 900 c 1
 400 900 300 900 300 900 c 1
 300 900 300 400 300 400 c 1
100 -300 m 1
 100 -300 200 -300 200 -300 c 1
 200 -300 200 900 200 900 c 1
 200 900 100 900 100 900 c 1
 100 900 100 -300 100 -300 c 1
EndSplineSet
Validated: 9
EndChar

StartChar: SF190000
Encoding: 9569 9569 265
Width: 600
Flags: W
LayerCount: 2
Fore
SplineSet
0 200 m 1
 0 200 200 200 200 200 c 1
 200 200 200 -300 200 -300 c 1
 200 -300 300 -300 300 -300 c 1
 300 -300 300 900 300 900 c 1
 300 900 200 900 200 900 c 1
 200 900 200 500 200 500 c 1
 200 500 0 500 0 500 c 1
 0 500 0 400 0 400 c 1
 0 400 200 400 200 400 c 1
 200 400 200 300 200 300 c 1
 200 300 0 300 0 300 c 1
 0 300 0 200 0 200 c 1
EndSplineSet
Validated: 9
EndChar

